%TF.GenerationSoftware,KiCad,Pcbnew,8.0.9-unknown-202502181922~c4009544a9~ubuntu24.04.1*%
%TF.CreationDate,2025-03-05T23:49:28+05:30*%
%TF.ProjectId,CircuitDesign_AEDTrainer,43697263-7569-4744-9465-7369676e5f41,rev?*%
%TF.SameCoordinates,Original*%
%TF.FileFunction,Soldermask,Bot*%
%TF.FilePolarity,Negative*%
%FSLAX46Y46*%
G04 Gerber Fmt 4.6, Leading zero omitted, Abs format (unit mm)*
G04 Created by KiCad (PCBNEW 8.0.9-unknown-202502181922~c4009544a9~ubuntu24.04.1) date 2025-03-05 23:49:28*
%MOMM*%
%LPD*%
G01*
G04 APERTURE LIST*
G04 Aperture macros list*
%AMRoundRect*
0 Rectangle with rounded corners*
0 $1 Rounding radius*
0 $2 $3 $4 $5 $6 $7 $8 $9 X,Y pos of 4 corners*
0 Add a 4 corners polygon primitive as box body*
4,1,4,$2,$3,$4,$5,$6,$7,$8,$9,$2,$3,0*
0 Add four circle primitives for the rounded corners*
1,1,$1+$1,$2,$3*
1,1,$1+$1,$4,$5*
1,1,$1+$1,$6,$7*
1,1,$1+$1,$8,$9*
0 Add four rect primitives between the rounded corners*
20,1,$1+$1,$2,$3,$4,$5,0*
20,1,$1+$1,$4,$5,$6,$7,0*
20,1,$1+$1,$6,$7,$8,$9,0*
20,1,$1+$1,$8,$9,$2,$3,0*%
G04 Aperture macros list end*
%ADD10C,2.500000*%
%ADD11RoundRect,0.102000X-0.754000X-0.754000X0.754000X-0.754000X0.754000X0.754000X-0.754000X0.754000X0*%
%ADD12C,1.397000*%
%ADD13C,1.600000*%
%ADD14O,1.600000X1.600000*%
%ADD15R,1.700000X1.700000*%
%ADD16O,1.700000X1.700000*%
%ADD17RoundRect,0.250000X-0.725000X0.600000X-0.725000X-0.600000X0.725000X-0.600000X0.725000X0.600000X0*%
%ADD18O,1.950000X1.700000*%
%ADD19R,1.800000X1.800000*%
%ADD20C,1.800000*%
G04 APERTURE END LIST*
D10*
%TO.C,REF\u002A\u002A*%
X177725000Y-61400000D03*
%TD*%
%TO.C,REF\u002A\u002A*%
X177725000Y-114825000D03*
%TD*%
%TO.C,REF\u002A\u002A*%
X93675000Y-114800000D03*
%TD*%
%TO.C,REF\u002A\u002A*%
X93675000Y-61375000D03*
%TD*%
D11*
%TO.C,U1*%
X134191200Y-75441200D03*
X134191200Y-72901200D03*
X134191200Y-77981200D03*
X134191200Y-83061200D03*
X134191200Y-70361200D03*
X134191200Y-95761200D03*
X134191200Y-108461200D03*
X116411200Y-70361200D03*
X116411200Y-83061200D03*
X116411200Y-95761200D03*
X116411200Y-108461200D03*
X116411200Y-65281200D03*
X116411200Y-67821200D03*
X116411200Y-72901200D03*
X116411200Y-75441200D03*
X116411200Y-77981200D03*
X116411200Y-80521200D03*
X116411200Y-85601200D03*
X116411200Y-88141200D03*
X116411200Y-90681200D03*
X116411200Y-93221200D03*
X116411200Y-98301200D03*
X116411200Y-100841200D03*
X116411200Y-103381200D03*
X116411200Y-105921200D03*
X116411200Y-111001200D03*
X116411200Y-113541200D03*
X134191200Y-113541200D03*
X134191200Y-111001200D03*
X134191200Y-105921200D03*
X134191200Y-103381200D03*
X134191200Y-100841200D03*
X134191200Y-98301200D03*
X134191200Y-93221200D03*
X134191200Y-88141200D03*
X134191200Y-85601200D03*
X134191200Y-80521200D03*
X134191200Y-90681200D03*
X134191200Y-65281200D03*
X134191200Y-67821200D03*
%TD*%
D12*
%TO.C,SW3*%
X169590000Y-105290000D03*
X177210000Y-105290000D03*
X169590000Y-100210000D03*
X177210000Y-100210000D03*
%TD*%
%TO.C,SW2*%
X169465000Y-92790000D03*
X177085000Y-92790000D03*
X169465000Y-87710000D03*
X177085000Y-87710000D03*
%TD*%
D13*
%TO.C,R3*%
X151530000Y-78900000D03*
D14*
X166770000Y-78900000D03*
%TD*%
D13*
%TO.C,R2*%
X151455000Y-71600000D03*
D14*
X166695000Y-71600000D03*
%TD*%
D13*
%TO.C,R1*%
X151430000Y-64675000D03*
D14*
X166670000Y-64675000D03*
%TD*%
D15*
%TO.C,J4*%
X162825000Y-85125000D03*
D16*
X162825000Y-87665000D03*
X162825000Y-90205000D03*
X162825000Y-92745000D03*
X162825000Y-95285000D03*
X162825000Y-97825000D03*
%TD*%
D15*
%TO.C,J3*%
X142500000Y-85080000D03*
D16*
X142500000Y-87620000D03*
X142500000Y-90160000D03*
X142500000Y-92700000D03*
X142500000Y-95240000D03*
X142500000Y-97780000D03*
X142500000Y-100320000D03*
X142500000Y-102860000D03*
X142500000Y-105400000D03*
%TD*%
D17*
%TO.C,J2*%
X105325000Y-65775000D03*
D18*
X105325000Y-68275000D03*
X105325000Y-70775000D03*
X105325000Y-73275000D03*
X105325000Y-75775000D03*
X105325000Y-78275000D03*
X105325000Y-80775000D03*
%TD*%
D15*
%TO.C,J1*%
X108975000Y-91650000D03*
D16*
X108975000Y-94190000D03*
X108975000Y-96730000D03*
X108975000Y-99270000D03*
X108975000Y-101810000D03*
X108975000Y-104350000D03*
%TD*%
D19*
%TO.C,D3*%
X174170000Y-78750000D03*
D20*
X171630000Y-78750000D03*
%TD*%
D19*
%TO.C,D2*%
X174300000Y-71105000D03*
D20*
X171760000Y-71105000D03*
%TD*%
D19*
%TO.C,D1*%
X174225000Y-64350000D03*
D20*
X171685000Y-64350000D03*
%TD*%
M02*
