%TF.GenerationSoftware,KiCad,Pcbnew,8.0.9-unknown-202502181922~c4009544a9~ubuntu24.04.1*%
%TF.CreationDate,2025-03-05T23:49:28+05:30*%
%TF.ProjectId,CircuitDesign_AEDTrainer,43697263-7569-4744-9465-7369676e5f41,rev?*%
%TF.SameCoordinates,Original*%
%TF.FileFunction,Legend,Bot*%
%TF.FilePolarity,Positive*%
%FSLAX46Y46*%
G04 Gerber Fmt 4.6, Leading zero omitted, Abs format (unit mm)*
G04 Created by KiCad (PCBNEW 8.0.9-unknown-202502181922~c4009544a9~ubuntu24.04.1) date 2025-03-05 23:49:28*
%MOMM*%
%LPD*%
G01*
G04 APERTURE LIST*
%ADD10C,0.100000*%
%ADD11C,0.150000*%
%ADD12C,0.120000*%
G04 APERTURE END LIST*
D10*
X176347419Y-78033646D02*
X176347419Y-78652693D01*
X176347419Y-78652693D02*
X176728371Y-78319360D01*
X176728371Y-78319360D02*
X176728371Y-78462217D01*
X176728371Y-78462217D02*
X176775990Y-78557455D01*
X176775990Y-78557455D02*
X176823609Y-78605074D01*
X176823609Y-78605074D02*
X176918847Y-78652693D01*
X176918847Y-78652693D02*
X177156942Y-78652693D01*
X177156942Y-78652693D02*
X177252180Y-78605074D01*
X177252180Y-78605074D02*
X177299800Y-78557455D01*
X177299800Y-78557455D02*
X177347419Y-78462217D01*
X177347419Y-78462217D02*
X177347419Y-78176503D01*
X177347419Y-78176503D02*
X177299800Y-78081265D01*
X177299800Y-78081265D02*
X177252180Y-78033646D01*
X177347419Y-79081265D02*
X176680752Y-79081265D01*
X176871228Y-79081265D02*
X176775990Y-79128884D01*
X176775990Y-79128884D02*
X176728371Y-79176503D01*
X176728371Y-79176503D02*
X176680752Y-79271741D01*
X176680752Y-79271741D02*
X176680752Y-79366979D01*
X177347419Y-80128884D02*
X176347419Y-80128884D01*
X177299800Y-80128884D02*
X177347419Y-80033646D01*
X177347419Y-80033646D02*
X177347419Y-79843170D01*
X177347419Y-79843170D02*
X177299800Y-79747932D01*
X177299800Y-79747932D02*
X177252180Y-79700313D01*
X177252180Y-79700313D02*
X177156942Y-79652694D01*
X177156942Y-79652694D02*
X176871228Y-79652694D01*
X176871228Y-79652694D02*
X176775990Y-79700313D01*
X176775990Y-79700313D02*
X176728371Y-79747932D01*
X176728371Y-79747932D02*
X176680752Y-79843170D01*
X176680752Y-79843170D02*
X176680752Y-80033646D01*
X176680752Y-80033646D02*
X176728371Y-80128884D01*
X176492657Y-70156265D02*
X176445038Y-70203884D01*
X176445038Y-70203884D02*
X176397419Y-70299122D01*
X176397419Y-70299122D02*
X176397419Y-70537217D01*
X176397419Y-70537217D02*
X176445038Y-70632455D01*
X176445038Y-70632455D02*
X176492657Y-70680074D01*
X176492657Y-70680074D02*
X176587895Y-70727693D01*
X176587895Y-70727693D02*
X176683133Y-70727693D01*
X176683133Y-70727693D02*
X176825990Y-70680074D01*
X176825990Y-70680074D02*
X177397419Y-70108646D01*
X177397419Y-70108646D02*
X177397419Y-70727693D01*
X176730752Y-71156265D02*
X177397419Y-71156265D01*
X176825990Y-71156265D02*
X176778371Y-71203884D01*
X176778371Y-71203884D02*
X176730752Y-71299122D01*
X176730752Y-71299122D02*
X176730752Y-71441979D01*
X176730752Y-71441979D02*
X176778371Y-71537217D01*
X176778371Y-71537217D02*
X176873609Y-71584836D01*
X176873609Y-71584836D02*
X177397419Y-71584836D01*
X177397419Y-72489598D02*
X176397419Y-72489598D01*
X177349800Y-72489598D02*
X177397419Y-72394360D01*
X177397419Y-72394360D02*
X177397419Y-72203884D01*
X177397419Y-72203884D02*
X177349800Y-72108646D01*
X177349800Y-72108646D02*
X177302180Y-72061027D01*
X177302180Y-72061027D02*
X177206942Y-72013408D01*
X177206942Y-72013408D02*
X176921228Y-72013408D01*
X176921228Y-72013408D02*
X176825990Y-72061027D01*
X176825990Y-72061027D02*
X176778371Y-72108646D01*
X176778371Y-72108646D02*
X176730752Y-72203884D01*
X176730752Y-72203884D02*
X176730752Y-72394360D01*
X176730752Y-72394360D02*
X176778371Y-72489598D01*
X177347419Y-64152693D02*
X177347419Y-63581265D01*
X177347419Y-63866979D02*
X176347419Y-63866979D01*
X176347419Y-63866979D02*
X176490276Y-63771741D01*
X176490276Y-63771741D02*
X176585514Y-63676503D01*
X176585514Y-63676503D02*
X176633133Y-63581265D01*
X177299800Y-64533646D02*
X177347419Y-64628884D01*
X177347419Y-64628884D02*
X177347419Y-64819360D01*
X177347419Y-64819360D02*
X177299800Y-64914598D01*
X177299800Y-64914598D02*
X177204561Y-64962217D01*
X177204561Y-64962217D02*
X177156942Y-64962217D01*
X177156942Y-64962217D02*
X177061704Y-64914598D01*
X177061704Y-64914598D02*
X177014085Y-64819360D01*
X177014085Y-64819360D02*
X177014085Y-64676503D01*
X177014085Y-64676503D02*
X176966466Y-64581265D01*
X176966466Y-64581265D02*
X176871228Y-64533646D01*
X176871228Y-64533646D02*
X176823609Y-64533646D01*
X176823609Y-64533646D02*
X176728371Y-64581265D01*
X176728371Y-64581265D02*
X176680752Y-64676503D01*
X176680752Y-64676503D02*
X176680752Y-64819360D01*
X176680752Y-64819360D02*
X176728371Y-64914598D01*
X176680752Y-65247932D02*
X176680752Y-65628884D01*
X176347419Y-65390789D02*
X177204561Y-65390789D01*
X177204561Y-65390789D02*
X177299800Y-65438408D01*
X177299800Y-65438408D02*
X177347419Y-65533646D01*
X177347419Y-65533646D02*
X177347419Y-65628884D01*
X180172419Y-99003884D02*
X179172419Y-99003884D01*
X179172419Y-99003884D02*
X179172419Y-99384836D01*
X179172419Y-99384836D02*
X179220038Y-99480074D01*
X179220038Y-99480074D02*
X179267657Y-99527693D01*
X179267657Y-99527693D02*
X179362895Y-99575312D01*
X179362895Y-99575312D02*
X179505752Y-99575312D01*
X179505752Y-99575312D02*
X179600990Y-99527693D01*
X179600990Y-99527693D02*
X179648609Y-99480074D01*
X179648609Y-99480074D02*
X179696228Y-99384836D01*
X179696228Y-99384836D02*
X179696228Y-99003884D01*
X180172419Y-100146741D02*
X180124800Y-100051503D01*
X180124800Y-100051503D02*
X180029561Y-100003884D01*
X180029561Y-100003884D02*
X179172419Y-100003884D01*
X180172419Y-100956265D02*
X179648609Y-100956265D01*
X179648609Y-100956265D02*
X179553371Y-100908646D01*
X179553371Y-100908646D02*
X179505752Y-100813408D01*
X179505752Y-100813408D02*
X179505752Y-100622932D01*
X179505752Y-100622932D02*
X179553371Y-100527694D01*
X180124800Y-100956265D02*
X180172419Y-100861027D01*
X180172419Y-100861027D02*
X180172419Y-100622932D01*
X180172419Y-100622932D02*
X180124800Y-100527694D01*
X180124800Y-100527694D02*
X180029561Y-100480075D01*
X180029561Y-100480075D02*
X179934323Y-100480075D01*
X179934323Y-100480075D02*
X179839085Y-100527694D01*
X179839085Y-100527694D02*
X179791466Y-100622932D01*
X179791466Y-100622932D02*
X179791466Y-100861027D01*
X179791466Y-100861027D02*
X179743847Y-100956265D01*
X179505752Y-101337218D02*
X180172419Y-101575313D01*
X179505752Y-101813408D02*
X180172419Y-101575313D01*
X180172419Y-101575313D02*
X180410514Y-101480075D01*
X180410514Y-101480075D02*
X180458133Y-101432456D01*
X180458133Y-101432456D02*
X180505752Y-101337218D01*
X179648609Y-103289599D02*
X179696228Y-103432456D01*
X179696228Y-103432456D02*
X179743847Y-103480075D01*
X179743847Y-103480075D02*
X179839085Y-103527694D01*
X179839085Y-103527694D02*
X179981942Y-103527694D01*
X179981942Y-103527694D02*
X180077180Y-103480075D01*
X180077180Y-103480075D02*
X180124800Y-103432456D01*
X180124800Y-103432456D02*
X180172419Y-103337218D01*
X180172419Y-103337218D02*
X180172419Y-102956266D01*
X180172419Y-102956266D02*
X179172419Y-102956266D01*
X179172419Y-102956266D02*
X179172419Y-103289599D01*
X179172419Y-103289599D02*
X179220038Y-103384837D01*
X179220038Y-103384837D02*
X179267657Y-103432456D01*
X179267657Y-103432456D02*
X179362895Y-103480075D01*
X179362895Y-103480075D02*
X179458133Y-103480075D01*
X179458133Y-103480075D02*
X179553371Y-103432456D01*
X179553371Y-103432456D02*
X179600990Y-103384837D01*
X179600990Y-103384837D02*
X179648609Y-103289599D01*
X179648609Y-103289599D02*
X179648609Y-102956266D01*
X179505752Y-104384837D02*
X180172419Y-104384837D01*
X179505752Y-103956266D02*
X180029561Y-103956266D01*
X180029561Y-103956266D02*
X180124800Y-104003885D01*
X180124800Y-104003885D02*
X180172419Y-104099123D01*
X180172419Y-104099123D02*
X180172419Y-104241980D01*
X180172419Y-104241980D02*
X180124800Y-104337218D01*
X180124800Y-104337218D02*
X180077180Y-104384837D01*
X179505752Y-104718171D02*
X179505752Y-105099123D01*
X179172419Y-104861028D02*
X180029561Y-104861028D01*
X180029561Y-104861028D02*
X180124800Y-104908647D01*
X180124800Y-104908647D02*
X180172419Y-105003885D01*
X180172419Y-105003885D02*
X180172419Y-105099123D01*
X179505752Y-105289600D02*
X179505752Y-105670552D01*
X179172419Y-105432457D02*
X180029561Y-105432457D01*
X180029561Y-105432457D02*
X180124800Y-105480076D01*
X180124800Y-105480076D02*
X180172419Y-105575314D01*
X180172419Y-105575314D02*
X180172419Y-105670552D01*
X180172419Y-106146743D02*
X180124800Y-106051505D01*
X180124800Y-106051505D02*
X180077180Y-106003886D01*
X180077180Y-106003886D02*
X179981942Y-105956267D01*
X179981942Y-105956267D02*
X179696228Y-105956267D01*
X179696228Y-105956267D02*
X179600990Y-106003886D01*
X179600990Y-106003886D02*
X179553371Y-106051505D01*
X179553371Y-106051505D02*
X179505752Y-106146743D01*
X179505752Y-106146743D02*
X179505752Y-106289600D01*
X179505752Y-106289600D02*
X179553371Y-106384838D01*
X179553371Y-106384838D02*
X179600990Y-106432457D01*
X179600990Y-106432457D02*
X179696228Y-106480076D01*
X179696228Y-106480076D02*
X179981942Y-106480076D01*
X179981942Y-106480076D02*
X180077180Y-106432457D01*
X180077180Y-106432457D02*
X180124800Y-106384838D01*
X180124800Y-106384838D02*
X180172419Y-106289600D01*
X180172419Y-106289600D02*
X180172419Y-106146743D01*
X179505752Y-106908648D02*
X180172419Y-106908648D01*
X179600990Y-106908648D02*
X179553371Y-106956267D01*
X179553371Y-106956267D02*
X179505752Y-107051505D01*
X179505752Y-107051505D02*
X179505752Y-107194362D01*
X179505752Y-107194362D02*
X179553371Y-107289600D01*
X179553371Y-107289600D02*
X179648609Y-107337219D01*
X179648609Y-107337219D02*
X180172419Y-107337219D01*
X180072419Y-85778884D02*
X179072419Y-85778884D01*
X179072419Y-85778884D02*
X179072419Y-86159836D01*
X179072419Y-86159836D02*
X179120038Y-86255074D01*
X179120038Y-86255074D02*
X179167657Y-86302693D01*
X179167657Y-86302693D02*
X179262895Y-86350312D01*
X179262895Y-86350312D02*
X179405752Y-86350312D01*
X179405752Y-86350312D02*
X179500990Y-86302693D01*
X179500990Y-86302693D02*
X179548609Y-86255074D01*
X179548609Y-86255074D02*
X179596228Y-86159836D01*
X179596228Y-86159836D02*
X179596228Y-85778884D01*
X180072419Y-87207455D02*
X179548609Y-87207455D01*
X179548609Y-87207455D02*
X179453371Y-87159836D01*
X179453371Y-87159836D02*
X179405752Y-87064598D01*
X179405752Y-87064598D02*
X179405752Y-86874122D01*
X179405752Y-86874122D02*
X179453371Y-86778884D01*
X180024800Y-87207455D02*
X180072419Y-87112217D01*
X180072419Y-87112217D02*
X180072419Y-86874122D01*
X180072419Y-86874122D02*
X180024800Y-86778884D01*
X180024800Y-86778884D02*
X179929561Y-86731265D01*
X179929561Y-86731265D02*
X179834323Y-86731265D01*
X179834323Y-86731265D02*
X179739085Y-86778884D01*
X179739085Y-86778884D02*
X179691466Y-86874122D01*
X179691466Y-86874122D02*
X179691466Y-87112217D01*
X179691466Y-87112217D02*
X179643847Y-87207455D01*
X179405752Y-88112217D02*
X180072419Y-88112217D01*
X179405752Y-87683646D02*
X179929561Y-87683646D01*
X179929561Y-87683646D02*
X180024800Y-87731265D01*
X180024800Y-87731265D02*
X180072419Y-87826503D01*
X180072419Y-87826503D02*
X180072419Y-87969360D01*
X180072419Y-87969360D02*
X180024800Y-88064598D01*
X180024800Y-88064598D02*
X179977180Y-88112217D01*
X180024800Y-88540789D02*
X180072419Y-88636027D01*
X180072419Y-88636027D02*
X180072419Y-88826503D01*
X180072419Y-88826503D02*
X180024800Y-88921741D01*
X180024800Y-88921741D02*
X179929561Y-88969360D01*
X179929561Y-88969360D02*
X179881942Y-88969360D01*
X179881942Y-88969360D02*
X179786704Y-88921741D01*
X179786704Y-88921741D02*
X179739085Y-88826503D01*
X179739085Y-88826503D02*
X179739085Y-88683646D01*
X179739085Y-88683646D02*
X179691466Y-88588408D01*
X179691466Y-88588408D02*
X179596228Y-88540789D01*
X179596228Y-88540789D02*
X179548609Y-88540789D01*
X179548609Y-88540789D02*
X179453371Y-88588408D01*
X179453371Y-88588408D02*
X179405752Y-88683646D01*
X179405752Y-88683646D02*
X179405752Y-88826503D01*
X179405752Y-88826503D02*
X179453371Y-88921741D01*
X180024800Y-89778884D02*
X180072419Y-89683646D01*
X180072419Y-89683646D02*
X180072419Y-89493170D01*
X180072419Y-89493170D02*
X180024800Y-89397932D01*
X180024800Y-89397932D02*
X179929561Y-89350313D01*
X179929561Y-89350313D02*
X179548609Y-89350313D01*
X179548609Y-89350313D02*
X179453371Y-89397932D01*
X179453371Y-89397932D02*
X179405752Y-89493170D01*
X179405752Y-89493170D02*
X179405752Y-89683646D01*
X179405752Y-89683646D02*
X179453371Y-89778884D01*
X179453371Y-89778884D02*
X179548609Y-89826503D01*
X179548609Y-89826503D02*
X179643847Y-89826503D01*
X179643847Y-89826503D02*
X179739085Y-89350313D01*
X179548609Y-91350313D02*
X179596228Y-91493170D01*
X179596228Y-91493170D02*
X179643847Y-91540789D01*
X179643847Y-91540789D02*
X179739085Y-91588408D01*
X179739085Y-91588408D02*
X179881942Y-91588408D01*
X179881942Y-91588408D02*
X179977180Y-91540789D01*
X179977180Y-91540789D02*
X180024800Y-91493170D01*
X180024800Y-91493170D02*
X180072419Y-91397932D01*
X180072419Y-91397932D02*
X180072419Y-91016980D01*
X180072419Y-91016980D02*
X179072419Y-91016980D01*
X179072419Y-91016980D02*
X179072419Y-91350313D01*
X179072419Y-91350313D02*
X179120038Y-91445551D01*
X179120038Y-91445551D02*
X179167657Y-91493170D01*
X179167657Y-91493170D02*
X179262895Y-91540789D01*
X179262895Y-91540789D02*
X179358133Y-91540789D01*
X179358133Y-91540789D02*
X179453371Y-91493170D01*
X179453371Y-91493170D02*
X179500990Y-91445551D01*
X179500990Y-91445551D02*
X179548609Y-91350313D01*
X179548609Y-91350313D02*
X179548609Y-91016980D01*
X179405752Y-92445551D02*
X180072419Y-92445551D01*
X179405752Y-92016980D02*
X179929561Y-92016980D01*
X179929561Y-92016980D02*
X180024800Y-92064599D01*
X180024800Y-92064599D02*
X180072419Y-92159837D01*
X180072419Y-92159837D02*
X180072419Y-92302694D01*
X180072419Y-92302694D02*
X180024800Y-92397932D01*
X180024800Y-92397932D02*
X179977180Y-92445551D01*
X179405752Y-92778885D02*
X179405752Y-93159837D01*
X179072419Y-92921742D02*
X179929561Y-92921742D01*
X179929561Y-92921742D02*
X180024800Y-92969361D01*
X180024800Y-92969361D02*
X180072419Y-93064599D01*
X180072419Y-93064599D02*
X180072419Y-93159837D01*
X179405752Y-93350314D02*
X179405752Y-93731266D01*
X179072419Y-93493171D02*
X179929561Y-93493171D01*
X179929561Y-93493171D02*
X180024800Y-93540790D01*
X180024800Y-93540790D02*
X180072419Y-93636028D01*
X180072419Y-93636028D02*
X180072419Y-93731266D01*
X180072419Y-94207457D02*
X180024800Y-94112219D01*
X180024800Y-94112219D02*
X179977180Y-94064600D01*
X179977180Y-94064600D02*
X179881942Y-94016981D01*
X179881942Y-94016981D02*
X179596228Y-94016981D01*
X179596228Y-94016981D02*
X179500990Y-94064600D01*
X179500990Y-94064600D02*
X179453371Y-94112219D01*
X179453371Y-94112219D02*
X179405752Y-94207457D01*
X179405752Y-94207457D02*
X179405752Y-94350314D01*
X179405752Y-94350314D02*
X179453371Y-94445552D01*
X179453371Y-94445552D02*
X179500990Y-94493171D01*
X179500990Y-94493171D02*
X179596228Y-94540790D01*
X179596228Y-94540790D02*
X179881942Y-94540790D01*
X179881942Y-94540790D02*
X179977180Y-94493171D01*
X179977180Y-94493171D02*
X180024800Y-94445552D01*
X180024800Y-94445552D02*
X180072419Y-94350314D01*
X180072419Y-94350314D02*
X180072419Y-94207457D01*
X179405752Y-94969362D02*
X180072419Y-94969362D01*
X179500990Y-94969362D02*
X179453371Y-95016981D01*
X179453371Y-95016981D02*
X179405752Y-95112219D01*
X179405752Y-95112219D02*
X179405752Y-95255076D01*
X179405752Y-95255076D02*
X179453371Y-95350314D01*
X179453371Y-95350314D02*
X179548609Y-95397933D01*
X179548609Y-95397933D02*
X180072419Y-95397933D01*
D11*
X174733332Y-107777200D02*
X174590475Y-107824819D01*
X174590475Y-107824819D02*
X174352380Y-107824819D01*
X174352380Y-107824819D02*
X174257142Y-107777200D01*
X174257142Y-107777200D02*
X174209523Y-107729580D01*
X174209523Y-107729580D02*
X174161904Y-107634342D01*
X174161904Y-107634342D02*
X174161904Y-107539104D01*
X174161904Y-107539104D02*
X174209523Y-107443866D01*
X174209523Y-107443866D02*
X174257142Y-107396247D01*
X174257142Y-107396247D02*
X174352380Y-107348628D01*
X174352380Y-107348628D02*
X174542856Y-107301009D01*
X174542856Y-107301009D02*
X174638094Y-107253390D01*
X174638094Y-107253390D02*
X174685713Y-107205771D01*
X174685713Y-107205771D02*
X174733332Y-107110533D01*
X174733332Y-107110533D02*
X174733332Y-107015295D01*
X174733332Y-107015295D02*
X174685713Y-106920057D01*
X174685713Y-106920057D02*
X174638094Y-106872438D01*
X174638094Y-106872438D02*
X174542856Y-106824819D01*
X174542856Y-106824819D02*
X174304761Y-106824819D01*
X174304761Y-106824819D02*
X174161904Y-106872438D01*
X173828570Y-106824819D02*
X173590475Y-107824819D01*
X173590475Y-107824819D02*
X173399999Y-107110533D01*
X173399999Y-107110533D02*
X173209523Y-107824819D01*
X173209523Y-107824819D02*
X172971428Y-106824819D01*
X172685713Y-106824819D02*
X172066666Y-106824819D01*
X172066666Y-106824819D02*
X172399999Y-107205771D01*
X172399999Y-107205771D02*
X172257142Y-107205771D01*
X172257142Y-107205771D02*
X172161904Y-107253390D01*
X172161904Y-107253390D02*
X172114285Y-107301009D01*
X172114285Y-107301009D02*
X172066666Y-107396247D01*
X172066666Y-107396247D02*
X172066666Y-107634342D01*
X172066666Y-107634342D02*
X172114285Y-107729580D01*
X172114285Y-107729580D02*
X172161904Y-107777200D01*
X172161904Y-107777200D02*
X172257142Y-107824819D01*
X172257142Y-107824819D02*
X172542856Y-107824819D01*
X172542856Y-107824819D02*
X172638094Y-107777200D01*
X172638094Y-107777200D02*
X172685713Y-107729580D01*
X174608332Y-95277200D02*
X174465475Y-95324819D01*
X174465475Y-95324819D02*
X174227380Y-95324819D01*
X174227380Y-95324819D02*
X174132142Y-95277200D01*
X174132142Y-95277200D02*
X174084523Y-95229580D01*
X174084523Y-95229580D02*
X174036904Y-95134342D01*
X174036904Y-95134342D02*
X174036904Y-95039104D01*
X174036904Y-95039104D02*
X174084523Y-94943866D01*
X174084523Y-94943866D02*
X174132142Y-94896247D01*
X174132142Y-94896247D02*
X174227380Y-94848628D01*
X174227380Y-94848628D02*
X174417856Y-94801009D01*
X174417856Y-94801009D02*
X174513094Y-94753390D01*
X174513094Y-94753390D02*
X174560713Y-94705771D01*
X174560713Y-94705771D02*
X174608332Y-94610533D01*
X174608332Y-94610533D02*
X174608332Y-94515295D01*
X174608332Y-94515295D02*
X174560713Y-94420057D01*
X174560713Y-94420057D02*
X174513094Y-94372438D01*
X174513094Y-94372438D02*
X174417856Y-94324819D01*
X174417856Y-94324819D02*
X174179761Y-94324819D01*
X174179761Y-94324819D02*
X174036904Y-94372438D01*
X173703570Y-94324819D02*
X173465475Y-95324819D01*
X173465475Y-95324819D02*
X173274999Y-94610533D01*
X173274999Y-94610533D02*
X173084523Y-95324819D01*
X173084523Y-95324819D02*
X172846428Y-94324819D01*
X172513094Y-94420057D02*
X172465475Y-94372438D01*
X172465475Y-94372438D02*
X172370237Y-94324819D01*
X172370237Y-94324819D02*
X172132142Y-94324819D01*
X172132142Y-94324819D02*
X172036904Y-94372438D01*
X172036904Y-94372438D02*
X171989285Y-94420057D01*
X171989285Y-94420057D02*
X171941666Y-94515295D01*
X171941666Y-94515295D02*
X171941666Y-94610533D01*
X171941666Y-94610533D02*
X171989285Y-94753390D01*
X171989285Y-94753390D02*
X172560713Y-95324819D01*
X172560713Y-95324819D02*
X171941666Y-95324819D01*
X173638094Y-76244819D02*
X173638094Y-75244819D01*
X173638094Y-75244819D02*
X173399999Y-75244819D01*
X173399999Y-75244819D02*
X173257142Y-75292438D01*
X173257142Y-75292438D02*
X173161904Y-75387676D01*
X173161904Y-75387676D02*
X173114285Y-75482914D01*
X173114285Y-75482914D02*
X173066666Y-75673390D01*
X173066666Y-75673390D02*
X173066666Y-75816247D01*
X173066666Y-75816247D02*
X173114285Y-76006723D01*
X173114285Y-76006723D02*
X173161904Y-76101961D01*
X173161904Y-76101961D02*
X173257142Y-76197200D01*
X173257142Y-76197200D02*
X173399999Y-76244819D01*
X173399999Y-76244819D02*
X173638094Y-76244819D01*
X172733332Y-75244819D02*
X172114285Y-75244819D01*
X172114285Y-75244819D02*
X172447618Y-75625771D01*
X172447618Y-75625771D02*
X172304761Y-75625771D01*
X172304761Y-75625771D02*
X172209523Y-75673390D01*
X172209523Y-75673390D02*
X172161904Y-75721009D01*
X172161904Y-75721009D02*
X172114285Y-75816247D01*
X172114285Y-75816247D02*
X172114285Y-76054342D01*
X172114285Y-76054342D02*
X172161904Y-76149580D01*
X172161904Y-76149580D02*
X172209523Y-76197200D01*
X172209523Y-76197200D02*
X172304761Y-76244819D01*
X172304761Y-76244819D02*
X172590475Y-76244819D01*
X172590475Y-76244819D02*
X172685713Y-76197200D01*
X172685713Y-76197200D02*
X172733332Y-76149580D01*
X173768094Y-68599819D02*
X173768094Y-67599819D01*
X173768094Y-67599819D02*
X173529999Y-67599819D01*
X173529999Y-67599819D02*
X173387142Y-67647438D01*
X173387142Y-67647438D02*
X173291904Y-67742676D01*
X173291904Y-67742676D02*
X173244285Y-67837914D01*
X173244285Y-67837914D02*
X173196666Y-68028390D01*
X173196666Y-68028390D02*
X173196666Y-68171247D01*
X173196666Y-68171247D02*
X173244285Y-68361723D01*
X173244285Y-68361723D02*
X173291904Y-68456961D01*
X173291904Y-68456961D02*
X173387142Y-68552200D01*
X173387142Y-68552200D02*
X173529999Y-68599819D01*
X173529999Y-68599819D02*
X173768094Y-68599819D01*
X172815713Y-67695057D02*
X172768094Y-67647438D01*
X172768094Y-67647438D02*
X172672856Y-67599819D01*
X172672856Y-67599819D02*
X172434761Y-67599819D01*
X172434761Y-67599819D02*
X172339523Y-67647438D01*
X172339523Y-67647438D02*
X172291904Y-67695057D01*
X172291904Y-67695057D02*
X172244285Y-67790295D01*
X172244285Y-67790295D02*
X172244285Y-67885533D01*
X172244285Y-67885533D02*
X172291904Y-68028390D01*
X172291904Y-68028390D02*
X172863332Y-68599819D01*
X172863332Y-68599819D02*
X172244285Y-68599819D01*
X173693094Y-61844819D02*
X173693094Y-60844819D01*
X173693094Y-60844819D02*
X173454999Y-60844819D01*
X173454999Y-60844819D02*
X173312142Y-60892438D01*
X173312142Y-60892438D02*
X173216904Y-60987676D01*
X173216904Y-60987676D02*
X173169285Y-61082914D01*
X173169285Y-61082914D02*
X173121666Y-61273390D01*
X173121666Y-61273390D02*
X173121666Y-61416247D01*
X173121666Y-61416247D02*
X173169285Y-61606723D01*
X173169285Y-61606723D02*
X173216904Y-61701961D01*
X173216904Y-61701961D02*
X173312142Y-61797200D01*
X173312142Y-61797200D02*
X173454999Y-61844819D01*
X173454999Y-61844819D02*
X173693094Y-61844819D01*
X172169285Y-61844819D02*
X172740713Y-61844819D01*
X172454999Y-61844819D02*
X172454999Y-60844819D01*
X172454999Y-60844819D02*
X172550237Y-60987676D01*
X172550237Y-60987676D02*
X172645475Y-61082914D01*
X172645475Y-61082914D02*
X172740713Y-61130533D01*
D12*
%TO.C,SW3*%
X169590000Y-106260000D02*
X169590000Y-106560000D01*
X177210000Y-106560000D02*
X169590000Y-106560000D01*
X169590000Y-101180000D02*
X169590000Y-104320000D01*
X169590000Y-98940000D02*
X169590000Y-99240000D01*
X177210000Y-106260000D02*
X177210000Y-106560000D01*
X177210000Y-101180000D02*
X177210000Y-104320000D01*
X177210000Y-98940000D02*
X177210000Y-99240000D01*
X169590000Y-98940000D02*
X177210000Y-98940000D01*
X175940000Y-102750000D02*
G75*
G02*
X170860000Y-102750000I-2540000J0D01*
G01*
X170860000Y-102750000D02*
G75*
G02*
X175940000Y-102750000I2540000J0D01*
G01*
%TO.C,SW2*%
X169465000Y-93760000D02*
X169465000Y-94060000D01*
X177085000Y-94060000D02*
X169465000Y-94060000D01*
X169465000Y-88680000D02*
X169465000Y-91820000D01*
X169465000Y-86440000D02*
X169465000Y-86740000D01*
X177085000Y-93760000D02*
X177085000Y-94060000D01*
X177085000Y-88680000D02*
X177085000Y-91820000D01*
X177085000Y-86440000D02*
X177085000Y-86740000D01*
X169465000Y-86440000D02*
X177085000Y-86440000D01*
X175815000Y-90250000D02*
G75*
G02*
X170735000Y-90250000I-2540000J0D01*
G01*
X170735000Y-90250000D02*
G75*
G02*
X175815000Y-90250000I2540000J0D01*
G01*
%TO.C,D3*%
X174460000Y-77670000D02*
X174460000Y-77514000D01*
X174460000Y-79986000D02*
X174460000Y-79830000D01*
X171228603Y-77669939D02*
G75*
G02*
X174460000Y-77514484I1671397J-1080061D01*
G01*
X171859090Y-77669951D02*
G75*
G02*
X173940961Y-77670000I1040910J-1080049D01*
G01*
X173940961Y-79830000D02*
G75*
G02*
X171859090Y-79830049I-1040961J1080000D01*
G01*
X174460000Y-79985516D02*
G75*
G02*
X171228603Y-79830061I-1560000J1235516D01*
G01*
%TO.C,D2*%
X174590000Y-70025000D02*
X174590000Y-69869000D01*
X174590000Y-72341000D02*
X174590000Y-72185000D01*
X171358603Y-70024939D02*
G75*
G02*
X174590000Y-69869484I1671397J-1080061D01*
G01*
X171989090Y-70024951D02*
G75*
G02*
X174070961Y-70025000I1040910J-1080049D01*
G01*
X174070961Y-72185000D02*
G75*
G02*
X171989090Y-72185049I-1040961J1080000D01*
G01*
X174590000Y-72340516D02*
G75*
G02*
X171358603Y-72185061I-1560000J1235516D01*
G01*
%TO.C,D1*%
X174515000Y-63270000D02*
X174515000Y-63114000D01*
X174515000Y-65586000D02*
X174515000Y-65430000D01*
X171283603Y-63269939D02*
G75*
G02*
X174515000Y-63114484I1671397J-1080061D01*
G01*
X171914090Y-63269951D02*
G75*
G02*
X173995961Y-63270000I1040910J-1080049D01*
G01*
X173995961Y-65430000D02*
G75*
G02*
X171914090Y-65430049I-1040961J1080000D01*
G01*
X174515000Y-65585516D02*
G75*
G02*
X171283603Y-65430061I-1560000J1235516D01*
G01*
%TD*%
M02*
