%TF.GenerationSoftware,KiCad,Pcbnew,8.0.9-unknown-202502181922~c4009544a9~ubuntu24.04.1*%
%TF.CreationDate,2025-03-05T23:49:28+05:30*%
%TF.ProjectId,CircuitDesign_AEDTrainer,43697263-7569-4744-9465-7369676e5f41,rev?*%
%TF.SameCoordinates,Original*%
%TF.FileFunction,Legend,Top*%
%TF.FilePolarity,Positive*%
%FSLAX46Y46*%
G04 Gerber Fmt 4.6, Leading zero omitted, Abs format (unit mm)*
G04 Created by KiCad (PCBNEW 8.0.9-unknown-202502181922~c4009544a9~ubuntu24.04.1) date 2025-03-05 23:49:28*
%MOMM*%
%LPD*%
G01*
G04 APERTURE LIST*
%ADD10C,0.300000*%
%ADD11C,0.100000*%
%ADD12C,0.150000*%
%ADD13C,0.152400*%
%ADD14C,0.120000*%
G04 APERTURE END LIST*
D10*
X155558082Y-116822257D02*
X156272368Y-116822257D01*
X155415225Y-117250828D02*
X155915225Y-115750828D01*
X155915225Y-115750828D02*
X156415225Y-117250828D01*
X156915224Y-116465114D02*
X157415224Y-116465114D01*
X157629510Y-117250828D02*
X156915224Y-117250828D01*
X156915224Y-117250828D02*
X156915224Y-115750828D01*
X156915224Y-115750828D02*
X157629510Y-115750828D01*
X158272367Y-117250828D02*
X158272367Y-115750828D01*
X158272367Y-115750828D02*
X158629510Y-115750828D01*
X158629510Y-115750828D02*
X158843796Y-115822257D01*
X158843796Y-115822257D02*
X158986653Y-115965114D01*
X158986653Y-115965114D02*
X159058082Y-116107971D01*
X159058082Y-116107971D02*
X159129510Y-116393685D01*
X159129510Y-116393685D02*
X159129510Y-116607971D01*
X159129510Y-116607971D02*
X159058082Y-116893685D01*
X159058082Y-116893685D02*
X158986653Y-117036542D01*
X158986653Y-117036542D02*
X158843796Y-117179400D01*
X158843796Y-117179400D02*
X158629510Y-117250828D01*
X158629510Y-117250828D02*
X158272367Y-117250828D01*
X160700939Y-115750828D02*
X161558082Y-115750828D01*
X161129510Y-117250828D02*
X161129510Y-115750828D01*
X162058081Y-117250828D02*
X162058081Y-116250828D01*
X162058081Y-116536542D02*
X162129510Y-116393685D01*
X162129510Y-116393685D02*
X162200939Y-116322257D01*
X162200939Y-116322257D02*
X162343796Y-116250828D01*
X162343796Y-116250828D02*
X162486653Y-116250828D01*
X163629510Y-117250828D02*
X163629510Y-116465114D01*
X163629510Y-116465114D02*
X163558081Y-116322257D01*
X163558081Y-116322257D02*
X163415224Y-116250828D01*
X163415224Y-116250828D02*
X163129510Y-116250828D01*
X163129510Y-116250828D02*
X162986652Y-116322257D01*
X163629510Y-117179400D02*
X163486652Y-117250828D01*
X163486652Y-117250828D02*
X163129510Y-117250828D01*
X163129510Y-117250828D02*
X162986652Y-117179400D01*
X162986652Y-117179400D02*
X162915224Y-117036542D01*
X162915224Y-117036542D02*
X162915224Y-116893685D01*
X162915224Y-116893685D02*
X162986652Y-116750828D01*
X162986652Y-116750828D02*
X163129510Y-116679400D01*
X163129510Y-116679400D02*
X163486652Y-116679400D01*
X163486652Y-116679400D02*
X163629510Y-116607971D01*
X164343795Y-117250828D02*
X164343795Y-116250828D01*
X164343795Y-115750828D02*
X164272367Y-115822257D01*
X164272367Y-115822257D02*
X164343795Y-115893685D01*
X164343795Y-115893685D02*
X164415224Y-115822257D01*
X164415224Y-115822257D02*
X164343795Y-115750828D01*
X164343795Y-115750828D02*
X164343795Y-115893685D01*
X165058081Y-116250828D02*
X165058081Y-117250828D01*
X165058081Y-116393685D02*
X165129510Y-116322257D01*
X165129510Y-116322257D02*
X165272367Y-116250828D01*
X165272367Y-116250828D02*
X165486653Y-116250828D01*
X165486653Y-116250828D02*
X165629510Y-116322257D01*
X165629510Y-116322257D02*
X165700939Y-116465114D01*
X165700939Y-116465114D02*
X165700939Y-117250828D01*
X166986653Y-117179400D02*
X166843796Y-117250828D01*
X166843796Y-117250828D02*
X166558082Y-117250828D01*
X166558082Y-117250828D02*
X166415224Y-117179400D01*
X166415224Y-117179400D02*
X166343796Y-117036542D01*
X166343796Y-117036542D02*
X166343796Y-116465114D01*
X166343796Y-116465114D02*
X166415224Y-116322257D01*
X166415224Y-116322257D02*
X166558082Y-116250828D01*
X166558082Y-116250828D02*
X166843796Y-116250828D01*
X166843796Y-116250828D02*
X166986653Y-116322257D01*
X166986653Y-116322257D02*
X167058082Y-116465114D01*
X167058082Y-116465114D02*
X167058082Y-116607971D01*
X167058082Y-116607971D02*
X166343796Y-116750828D01*
X167700938Y-117250828D02*
X167700938Y-116250828D01*
X167700938Y-116536542D02*
X167772367Y-116393685D01*
X167772367Y-116393685D02*
X167843796Y-116322257D01*
X167843796Y-116322257D02*
X167986653Y-116250828D01*
X167986653Y-116250828D02*
X168129510Y-116250828D01*
X169629509Y-116250828D02*
X169986652Y-117250828D01*
X169986652Y-117250828D02*
X170343795Y-116250828D01*
X171700938Y-117250828D02*
X170843795Y-117250828D01*
X171272366Y-117250828D02*
X171272366Y-115750828D01*
X171272366Y-115750828D02*
X171129509Y-115965114D01*
X171129509Y-115965114D02*
X170986652Y-116107971D01*
X170986652Y-116107971D02*
X170843795Y-116179400D01*
X172343794Y-117107971D02*
X172415223Y-117179400D01*
X172415223Y-117179400D02*
X172343794Y-117250828D01*
X172343794Y-117250828D02*
X172272366Y-117179400D01*
X172272366Y-117179400D02*
X172343794Y-117107971D01*
X172343794Y-117107971D02*
X172343794Y-117250828D01*
X173343795Y-115750828D02*
X173486652Y-115750828D01*
X173486652Y-115750828D02*
X173629509Y-115822257D01*
X173629509Y-115822257D02*
X173700938Y-115893685D01*
X173700938Y-115893685D02*
X173772366Y-116036542D01*
X173772366Y-116036542D02*
X173843795Y-116322257D01*
X173843795Y-116322257D02*
X173843795Y-116679400D01*
X173843795Y-116679400D02*
X173772366Y-116965114D01*
X173772366Y-116965114D02*
X173700938Y-117107971D01*
X173700938Y-117107971D02*
X173629509Y-117179400D01*
X173629509Y-117179400D02*
X173486652Y-117250828D01*
X173486652Y-117250828D02*
X173343795Y-117250828D01*
X173343795Y-117250828D02*
X173200938Y-117179400D01*
X173200938Y-117179400D02*
X173129509Y-117107971D01*
X173129509Y-117107971D02*
X173058080Y-116965114D01*
X173058080Y-116965114D02*
X172986652Y-116679400D01*
X172986652Y-116679400D02*
X172986652Y-116322257D01*
X172986652Y-116322257D02*
X173058080Y-116036542D01*
X173058080Y-116036542D02*
X173129509Y-115893685D01*
X173129509Y-115893685D02*
X173200938Y-115822257D01*
X173200938Y-115822257D02*
X173343795Y-115750828D01*
X94224171Y-67936653D02*
X94938457Y-67436653D01*
X94224171Y-67079510D02*
X95724171Y-67079510D01*
X95724171Y-67079510D02*
X95724171Y-67650939D01*
X95724171Y-67650939D02*
X95652742Y-67793796D01*
X95652742Y-67793796D02*
X95581314Y-67865225D01*
X95581314Y-67865225D02*
X95438457Y-67936653D01*
X95438457Y-67936653D02*
X95224171Y-67936653D01*
X95224171Y-67936653D02*
X95081314Y-67865225D01*
X95081314Y-67865225D02*
X95009885Y-67793796D01*
X95009885Y-67793796D02*
X94938457Y-67650939D01*
X94938457Y-67650939D02*
X94938457Y-67079510D01*
X94224171Y-68793796D02*
X94295600Y-68650939D01*
X94295600Y-68650939D02*
X94367028Y-68579510D01*
X94367028Y-68579510D02*
X94509885Y-68508082D01*
X94509885Y-68508082D02*
X94938457Y-68508082D01*
X94938457Y-68508082D02*
X95081314Y-68579510D01*
X95081314Y-68579510D02*
X95152742Y-68650939D01*
X95152742Y-68650939D02*
X95224171Y-68793796D01*
X95224171Y-68793796D02*
X95224171Y-69008082D01*
X95224171Y-69008082D02*
X95152742Y-69150939D01*
X95152742Y-69150939D02*
X95081314Y-69222368D01*
X95081314Y-69222368D02*
X94938457Y-69293796D01*
X94938457Y-69293796D02*
X94509885Y-69293796D01*
X94509885Y-69293796D02*
X94367028Y-69222368D01*
X94367028Y-69222368D02*
X94295600Y-69150939D01*
X94295600Y-69150939D02*
X94224171Y-69008082D01*
X94224171Y-69008082D02*
X94224171Y-68793796D01*
X95224171Y-69722368D02*
X95224171Y-70293796D01*
X95724171Y-69936653D02*
X94438457Y-69936653D01*
X94438457Y-69936653D02*
X94295600Y-70008082D01*
X94295600Y-70008082D02*
X94224171Y-70150939D01*
X94224171Y-70150939D02*
X94224171Y-70293796D01*
X94224171Y-71436654D02*
X95009885Y-71436654D01*
X95009885Y-71436654D02*
X95152742Y-71365225D01*
X95152742Y-71365225D02*
X95224171Y-71222368D01*
X95224171Y-71222368D02*
X95224171Y-70936654D01*
X95224171Y-70936654D02*
X95152742Y-70793796D01*
X94295600Y-71436654D02*
X94224171Y-71293796D01*
X94224171Y-71293796D02*
X94224171Y-70936654D01*
X94224171Y-70936654D02*
X94295600Y-70793796D01*
X94295600Y-70793796D02*
X94438457Y-70722368D01*
X94438457Y-70722368D02*
X94581314Y-70722368D01*
X94581314Y-70722368D02*
X94724171Y-70793796D01*
X94724171Y-70793796D02*
X94795600Y-70936654D01*
X94795600Y-70936654D02*
X94795600Y-71293796D01*
X94795600Y-71293796D02*
X94867028Y-71436654D01*
X94224171Y-72150939D02*
X95224171Y-72150939D01*
X94938457Y-72150939D02*
X95081314Y-72222368D01*
X95081314Y-72222368D02*
X95152742Y-72293797D01*
X95152742Y-72293797D02*
X95224171Y-72436654D01*
X95224171Y-72436654D02*
X95224171Y-72579511D01*
X95224171Y-72936653D02*
X94224171Y-73293796D01*
X95224171Y-73650939D02*
X94224171Y-73293796D01*
X94224171Y-73293796D02*
X93867028Y-73150939D01*
X93867028Y-73150939D02*
X93795600Y-73079510D01*
X93795600Y-73079510D02*
X93724171Y-72936653D01*
X94295600Y-75293796D02*
X94224171Y-75508082D01*
X94224171Y-75508082D02*
X94224171Y-75865224D01*
X94224171Y-75865224D02*
X94295600Y-76008082D01*
X94295600Y-76008082D02*
X94367028Y-76079510D01*
X94367028Y-76079510D02*
X94509885Y-76150939D01*
X94509885Y-76150939D02*
X94652742Y-76150939D01*
X94652742Y-76150939D02*
X94795600Y-76079510D01*
X94795600Y-76079510D02*
X94867028Y-76008082D01*
X94867028Y-76008082D02*
X94938457Y-75865224D01*
X94938457Y-75865224D02*
X95009885Y-75579510D01*
X95009885Y-75579510D02*
X95081314Y-75436653D01*
X95081314Y-75436653D02*
X95152742Y-75365224D01*
X95152742Y-75365224D02*
X95295600Y-75293796D01*
X95295600Y-75293796D02*
X95438457Y-75293796D01*
X95438457Y-75293796D02*
X95581314Y-75365224D01*
X95581314Y-75365224D02*
X95652742Y-75436653D01*
X95652742Y-75436653D02*
X95724171Y-75579510D01*
X95724171Y-75579510D02*
X95724171Y-75936653D01*
X95724171Y-75936653D02*
X95652742Y-76150939D01*
X95224171Y-76650938D02*
X94224171Y-76936653D01*
X94224171Y-76936653D02*
X94938457Y-77222367D01*
X94938457Y-77222367D02*
X94224171Y-77508081D01*
X94224171Y-77508081D02*
X95224171Y-77793795D01*
X94224171Y-78365224D02*
X95224171Y-78365224D01*
X95724171Y-78365224D02*
X95652742Y-78293796D01*
X95652742Y-78293796D02*
X95581314Y-78365224D01*
X95581314Y-78365224D02*
X95652742Y-78436653D01*
X95652742Y-78436653D02*
X95724171Y-78365224D01*
X95724171Y-78365224D02*
X95581314Y-78365224D01*
X95224171Y-78865225D02*
X95224171Y-79436653D01*
X95724171Y-79079510D02*
X94438457Y-79079510D01*
X94438457Y-79079510D02*
X94295600Y-79150939D01*
X94295600Y-79150939D02*
X94224171Y-79293796D01*
X94224171Y-79293796D02*
X94224171Y-79436653D01*
X94295600Y-80579511D02*
X94224171Y-80436653D01*
X94224171Y-80436653D02*
X94224171Y-80150939D01*
X94224171Y-80150939D02*
X94295600Y-80008082D01*
X94295600Y-80008082D02*
X94367028Y-79936653D01*
X94367028Y-79936653D02*
X94509885Y-79865225D01*
X94509885Y-79865225D02*
X94938457Y-79865225D01*
X94938457Y-79865225D02*
X95081314Y-79936653D01*
X95081314Y-79936653D02*
X95152742Y-80008082D01*
X95152742Y-80008082D02*
X95224171Y-80150939D01*
X95224171Y-80150939D02*
X95224171Y-80436653D01*
X95224171Y-80436653D02*
X95152742Y-80579511D01*
X94224171Y-81222367D02*
X95724171Y-81222367D01*
X94224171Y-81865225D02*
X95009885Y-81865225D01*
X95009885Y-81865225D02*
X95152742Y-81793796D01*
X95152742Y-81793796D02*
X95224171Y-81650939D01*
X95224171Y-81650939D02*
X95224171Y-81436653D01*
X95224171Y-81436653D02*
X95152742Y-81293796D01*
X95152742Y-81293796D02*
X95081314Y-81222367D01*
X93745600Y-90458082D02*
X93674171Y-90672368D01*
X93674171Y-90672368D02*
X93674171Y-91029510D01*
X93674171Y-91029510D02*
X93745600Y-91172368D01*
X93745600Y-91172368D02*
X93817028Y-91243796D01*
X93817028Y-91243796D02*
X93959885Y-91315225D01*
X93959885Y-91315225D02*
X94102742Y-91315225D01*
X94102742Y-91315225D02*
X94245600Y-91243796D01*
X94245600Y-91243796D02*
X94317028Y-91172368D01*
X94317028Y-91172368D02*
X94388457Y-91029510D01*
X94388457Y-91029510D02*
X94459885Y-90743796D01*
X94459885Y-90743796D02*
X94531314Y-90600939D01*
X94531314Y-90600939D02*
X94602742Y-90529510D01*
X94602742Y-90529510D02*
X94745600Y-90458082D01*
X94745600Y-90458082D02*
X94888457Y-90458082D01*
X94888457Y-90458082D02*
X95031314Y-90529510D01*
X95031314Y-90529510D02*
X95102742Y-90600939D01*
X95102742Y-90600939D02*
X95174171Y-90743796D01*
X95174171Y-90743796D02*
X95174171Y-91100939D01*
X95174171Y-91100939D02*
X95102742Y-91315225D01*
X93674171Y-91958081D02*
X95174171Y-91958081D01*
X95174171Y-91958081D02*
X95174171Y-92315224D01*
X95174171Y-92315224D02*
X95102742Y-92529510D01*
X95102742Y-92529510D02*
X94959885Y-92672367D01*
X94959885Y-92672367D02*
X94817028Y-92743796D01*
X94817028Y-92743796D02*
X94531314Y-92815224D01*
X94531314Y-92815224D02*
X94317028Y-92815224D01*
X94317028Y-92815224D02*
X94031314Y-92743796D01*
X94031314Y-92743796D02*
X93888457Y-92672367D01*
X93888457Y-92672367D02*
X93745600Y-92529510D01*
X93745600Y-92529510D02*
X93674171Y-92315224D01*
X93674171Y-92315224D02*
X93674171Y-91958081D01*
X93817028Y-95458081D02*
X93745600Y-95386653D01*
X93745600Y-95386653D02*
X93674171Y-95172367D01*
X93674171Y-95172367D02*
X93674171Y-95029510D01*
X93674171Y-95029510D02*
X93745600Y-94815224D01*
X93745600Y-94815224D02*
X93888457Y-94672367D01*
X93888457Y-94672367D02*
X94031314Y-94600938D01*
X94031314Y-94600938D02*
X94317028Y-94529510D01*
X94317028Y-94529510D02*
X94531314Y-94529510D01*
X94531314Y-94529510D02*
X94817028Y-94600938D01*
X94817028Y-94600938D02*
X94959885Y-94672367D01*
X94959885Y-94672367D02*
X95102742Y-94815224D01*
X95102742Y-94815224D02*
X95174171Y-95029510D01*
X95174171Y-95029510D02*
X95174171Y-95172367D01*
X95174171Y-95172367D02*
X95102742Y-95386653D01*
X95102742Y-95386653D02*
X95031314Y-95458081D01*
X93674171Y-96743796D02*
X94459885Y-96743796D01*
X94459885Y-96743796D02*
X94602742Y-96672367D01*
X94602742Y-96672367D02*
X94674171Y-96529510D01*
X94674171Y-96529510D02*
X94674171Y-96243796D01*
X94674171Y-96243796D02*
X94602742Y-96100938D01*
X93745600Y-96743796D02*
X93674171Y-96600938D01*
X93674171Y-96600938D02*
X93674171Y-96243796D01*
X93674171Y-96243796D02*
X93745600Y-96100938D01*
X93745600Y-96100938D02*
X93888457Y-96029510D01*
X93888457Y-96029510D02*
X94031314Y-96029510D01*
X94031314Y-96029510D02*
X94174171Y-96100938D01*
X94174171Y-96100938D02*
X94245600Y-96243796D01*
X94245600Y-96243796D02*
X94245600Y-96600938D01*
X94245600Y-96600938D02*
X94317028Y-96743796D01*
X93674171Y-97458081D02*
X94674171Y-97458081D01*
X94388457Y-97458081D02*
X94531314Y-97529510D01*
X94531314Y-97529510D02*
X94602742Y-97600939D01*
X94602742Y-97600939D02*
X94674171Y-97743796D01*
X94674171Y-97743796D02*
X94674171Y-97886653D01*
X93674171Y-99029510D02*
X95174171Y-99029510D01*
X93745600Y-99029510D02*
X93674171Y-98886652D01*
X93674171Y-98886652D02*
X93674171Y-98600938D01*
X93674171Y-98600938D02*
X93745600Y-98458081D01*
X93745600Y-98458081D02*
X93817028Y-98386652D01*
X93817028Y-98386652D02*
X93959885Y-98315224D01*
X93959885Y-98315224D02*
X94388457Y-98315224D01*
X94388457Y-98315224D02*
X94531314Y-98386652D01*
X94531314Y-98386652D02*
X94602742Y-98458081D01*
X94602742Y-98458081D02*
X94674171Y-98600938D01*
X94674171Y-98600938D02*
X94674171Y-98886652D01*
X94674171Y-98886652D02*
X94602742Y-99029510D01*
X93674171Y-100886652D02*
X95174171Y-100886652D01*
X95174171Y-100886652D02*
X94102742Y-101386652D01*
X94102742Y-101386652D02*
X95174171Y-101886652D01*
X95174171Y-101886652D02*
X93674171Y-101886652D01*
X93674171Y-102815224D02*
X93745600Y-102672367D01*
X93745600Y-102672367D02*
X93817028Y-102600938D01*
X93817028Y-102600938D02*
X93959885Y-102529510D01*
X93959885Y-102529510D02*
X94388457Y-102529510D01*
X94388457Y-102529510D02*
X94531314Y-102600938D01*
X94531314Y-102600938D02*
X94602742Y-102672367D01*
X94602742Y-102672367D02*
X94674171Y-102815224D01*
X94674171Y-102815224D02*
X94674171Y-103029510D01*
X94674171Y-103029510D02*
X94602742Y-103172367D01*
X94602742Y-103172367D02*
X94531314Y-103243796D01*
X94531314Y-103243796D02*
X94388457Y-103315224D01*
X94388457Y-103315224D02*
X93959885Y-103315224D01*
X93959885Y-103315224D02*
X93817028Y-103243796D01*
X93817028Y-103243796D02*
X93745600Y-103172367D01*
X93745600Y-103172367D02*
X93674171Y-103029510D01*
X93674171Y-103029510D02*
X93674171Y-102815224D01*
X93674171Y-104600939D02*
X95174171Y-104600939D01*
X93745600Y-104600939D02*
X93674171Y-104458081D01*
X93674171Y-104458081D02*
X93674171Y-104172367D01*
X93674171Y-104172367D02*
X93745600Y-104029510D01*
X93745600Y-104029510D02*
X93817028Y-103958081D01*
X93817028Y-103958081D02*
X93959885Y-103886653D01*
X93959885Y-103886653D02*
X94388457Y-103886653D01*
X94388457Y-103886653D02*
X94531314Y-103958081D01*
X94531314Y-103958081D02*
X94602742Y-104029510D01*
X94602742Y-104029510D02*
X94674171Y-104172367D01*
X94674171Y-104172367D02*
X94674171Y-104458081D01*
X94674171Y-104458081D02*
X94602742Y-104600939D01*
X94674171Y-105958082D02*
X93674171Y-105958082D01*
X94674171Y-105315224D02*
X93888457Y-105315224D01*
X93888457Y-105315224D02*
X93745600Y-105386653D01*
X93745600Y-105386653D02*
X93674171Y-105529510D01*
X93674171Y-105529510D02*
X93674171Y-105743796D01*
X93674171Y-105743796D02*
X93745600Y-105886653D01*
X93745600Y-105886653D02*
X93817028Y-105958082D01*
X93674171Y-106886653D02*
X93745600Y-106743796D01*
X93745600Y-106743796D02*
X93888457Y-106672367D01*
X93888457Y-106672367D02*
X95174171Y-106672367D01*
X93745600Y-108029510D02*
X93674171Y-107886653D01*
X93674171Y-107886653D02*
X93674171Y-107600939D01*
X93674171Y-107600939D02*
X93745600Y-107458081D01*
X93745600Y-107458081D02*
X93888457Y-107386653D01*
X93888457Y-107386653D02*
X94459885Y-107386653D01*
X94459885Y-107386653D02*
X94602742Y-107458081D01*
X94602742Y-107458081D02*
X94674171Y-107600939D01*
X94674171Y-107600939D02*
X94674171Y-107886653D01*
X94674171Y-107886653D02*
X94602742Y-108029510D01*
X94602742Y-108029510D02*
X94459885Y-108100939D01*
X94459885Y-108100939D02*
X94317028Y-108100939D01*
X94317028Y-108100939D02*
X94174171Y-107386653D01*
D11*
X149028884Y-93322419D02*
X149028884Y-94131942D01*
X149028884Y-94131942D02*
X149076503Y-94227180D01*
X149076503Y-94227180D02*
X149124122Y-94274800D01*
X149124122Y-94274800D02*
X149219360Y-94322419D01*
X149219360Y-94322419D02*
X149409836Y-94322419D01*
X149409836Y-94322419D02*
X149505074Y-94274800D01*
X149505074Y-94274800D02*
X149552693Y-94227180D01*
X149552693Y-94227180D02*
X149600312Y-94131942D01*
X149600312Y-94131942D02*
X149600312Y-93322419D01*
X150076503Y-94322419D02*
X150076503Y-93322419D01*
X150076503Y-93322419D02*
X150314598Y-93322419D01*
X150314598Y-93322419D02*
X150457455Y-93370038D01*
X150457455Y-93370038D02*
X150552693Y-93465276D01*
X150552693Y-93465276D02*
X150600312Y-93560514D01*
X150600312Y-93560514D02*
X150647931Y-93750990D01*
X150647931Y-93750990D02*
X150647931Y-93893847D01*
X150647931Y-93893847D02*
X150600312Y-94084323D01*
X150600312Y-94084323D02*
X150552693Y-94179561D01*
X150552693Y-94179561D02*
X150457455Y-94274800D01*
X150457455Y-94274800D02*
X150314598Y-94322419D01*
X150314598Y-94322419D02*
X150076503Y-94322419D01*
X151028884Y-94036704D02*
X151505074Y-94036704D01*
X150933646Y-94322419D02*
X151266979Y-93322419D01*
X151266979Y-93322419D02*
X151600312Y-94322419D01*
X152457455Y-94322419D02*
X151886027Y-94322419D01*
X152171741Y-94322419D02*
X152171741Y-93322419D01*
X152171741Y-93322419D02*
X152076503Y-93465276D01*
X152076503Y-93465276D02*
X151981265Y-93560514D01*
X151981265Y-93560514D02*
X151886027Y-93608133D01*
X152790789Y-93322419D02*
X153409836Y-93322419D01*
X153409836Y-93322419D02*
X153076503Y-93703371D01*
X153076503Y-93703371D02*
X153219360Y-93703371D01*
X153219360Y-93703371D02*
X153314598Y-93750990D01*
X153314598Y-93750990D02*
X153362217Y-93798609D01*
X153362217Y-93798609D02*
X153409836Y-93893847D01*
X153409836Y-93893847D02*
X153409836Y-94131942D01*
X153409836Y-94131942D02*
X153362217Y-94227180D01*
X153362217Y-94227180D02*
X153314598Y-94274800D01*
X153314598Y-94274800D02*
X153219360Y-94322419D01*
X153219360Y-94322419D02*
X152933646Y-94322419D01*
X152933646Y-94322419D02*
X152838408Y-94274800D01*
X152838408Y-94274800D02*
X152790789Y-94227180D01*
X153743170Y-93322419D02*
X154362217Y-93322419D01*
X154362217Y-93322419D02*
X154028884Y-93703371D01*
X154028884Y-93703371D02*
X154171741Y-93703371D01*
X154171741Y-93703371D02*
X154266979Y-93750990D01*
X154266979Y-93750990D02*
X154314598Y-93798609D01*
X154314598Y-93798609D02*
X154362217Y-93893847D01*
X154362217Y-93893847D02*
X154362217Y-94131942D01*
X154362217Y-94131942D02*
X154314598Y-94227180D01*
X154314598Y-94227180D02*
X154266979Y-94274800D01*
X154266979Y-94274800D02*
X154171741Y-94322419D01*
X154171741Y-94322419D02*
X153886027Y-94322419D01*
X153886027Y-94322419D02*
X153790789Y-94274800D01*
X153790789Y-94274800D02*
X153743170Y-94227180D01*
X155219360Y-93655752D02*
X155219360Y-94322419D01*
X154981265Y-93274800D02*
X154743170Y-93989085D01*
X154743170Y-93989085D02*
X155362217Y-93989085D01*
X155695551Y-94036704D02*
X156171741Y-94036704D01*
X155600313Y-94322419D02*
X155933646Y-93322419D01*
X155933646Y-93322419D02*
X156266979Y-94322419D01*
X140700000Y-83225000D02*
X164575000Y-83225000D01*
X164575000Y-107100000D01*
X140700000Y-107100000D01*
X140700000Y-83225000D01*
D12*
X124701274Y-87710265D02*
X124701274Y-88347686D01*
X124701274Y-88347686D02*
X124738770Y-88422676D01*
X124738770Y-88422676D02*
X124776265Y-88460172D01*
X124776265Y-88460172D02*
X124851256Y-88497667D01*
X124851256Y-88497667D02*
X125001237Y-88497667D01*
X125001237Y-88497667D02*
X125076228Y-88460172D01*
X125076228Y-88460172D02*
X125113723Y-88422676D01*
X125113723Y-88422676D02*
X125151218Y-88347686D01*
X125151218Y-88347686D02*
X125151218Y-87710265D01*
X125938620Y-88497667D02*
X125488676Y-88497667D01*
X125713648Y-88497667D02*
X125713648Y-87710265D01*
X125713648Y-87710265D02*
X125638657Y-87822751D01*
X125638657Y-87822751D02*
X125563667Y-87897742D01*
X125563667Y-87897742D02*
X125488676Y-87935237D01*
D11*
X128851274Y-98773619D02*
X128375084Y-98773619D01*
X128375084Y-98773619D02*
X128375084Y-97773619D01*
X129184608Y-98249809D02*
X129517941Y-98249809D01*
X129660798Y-98773619D02*
X129184608Y-98773619D01*
X129184608Y-98773619D02*
X129184608Y-97773619D01*
X129184608Y-97773619D02*
X129660798Y-97773619D01*
X130089370Y-98773619D02*
X130089370Y-97773619D01*
X130089370Y-97773619D02*
X130327465Y-97773619D01*
X130327465Y-97773619D02*
X130470322Y-97821238D01*
X130470322Y-97821238D02*
X130565560Y-97916476D01*
X130565560Y-97916476D02*
X130613179Y-98011714D01*
X130613179Y-98011714D02*
X130660798Y-98202190D01*
X130660798Y-98202190D02*
X130660798Y-98345047D01*
X130660798Y-98345047D02*
X130613179Y-98535523D01*
X130613179Y-98535523D02*
X130565560Y-98630761D01*
X130565560Y-98630761D02*
X130470322Y-98726000D01*
X130470322Y-98726000D02*
X130327465Y-98773619D01*
X130327465Y-98773619D02*
X130089370Y-98773619D01*
X130851275Y-98868857D02*
X131613179Y-98868857D01*
X131803656Y-97868857D02*
X131851275Y-97821238D01*
X131851275Y-97821238D02*
X131946513Y-97773619D01*
X131946513Y-97773619D02*
X132184608Y-97773619D01*
X132184608Y-97773619D02*
X132279846Y-97821238D01*
X132279846Y-97821238D02*
X132327465Y-97868857D01*
X132327465Y-97868857D02*
X132375084Y-97964095D01*
X132375084Y-97964095D02*
X132375084Y-98059333D01*
X132375084Y-98059333D02*
X132327465Y-98202190D01*
X132327465Y-98202190D02*
X131756037Y-98773619D01*
X131756037Y-98773619D02*
X132375084Y-98773619D01*
X118497465Y-98786000D02*
X118640322Y-98833619D01*
X118640322Y-98833619D02*
X118878417Y-98833619D01*
X118878417Y-98833619D02*
X118973655Y-98786000D01*
X118973655Y-98786000D02*
X119021274Y-98738380D01*
X119021274Y-98738380D02*
X119068893Y-98643142D01*
X119068893Y-98643142D02*
X119068893Y-98547904D01*
X119068893Y-98547904D02*
X119021274Y-98452666D01*
X119021274Y-98452666D02*
X118973655Y-98405047D01*
X118973655Y-98405047D02*
X118878417Y-98357428D01*
X118878417Y-98357428D02*
X118687941Y-98309809D01*
X118687941Y-98309809D02*
X118592703Y-98262190D01*
X118592703Y-98262190D02*
X118545084Y-98214571D01*
X118545084Y-98214571D02*
X118497465Y-98119333D01*
X118497465Y-98119333D02*
X118497465Y-98024095D01*
X118497465Y-98024095D02*
X118545084Y-97928857D01*
X118545084Y-97928857D02*
X118592703Y-97881238D01*
X118592703Y-97881238D02*
X118687941Y-97833619D01*
X118687941Y-97833619D02*
X118926036Y-97833619D01*
X118926036Y-97833619D02*
X119068893Y-97881238D01*
X120068893Y-98738380D02*
X120021274Y-98786000D01*
X120021274Y-98786000D02*
X119878417Y-98833619D01*
X119878417Y-98833619D02*
X119783179Y-98833619D01*
X119783179Y-98833619D02*
X119640322Y-98786000D01*
X119640322Y-98786000D02*
X119545084Y-98690761D01*
X119545084Y-98690761D02*
X119497465Y-98595523D01*
X119497465Y-98595523D02*
X119449846Y-98405047D01*
X119449846Y-98405047D02*
X119449846Y-98262190D01*
X119449846Y-98262190D02*
X119497465Y-98071714D01*
X119497465Y-98071714D02*
X119545084Y-97976476D01*
X119545084Y-97976476D02*
X119640322Y-97881238D01*
X119640322Y-97881238D02*
X119783179Y-97833619D01*
X119783179Y-97833619D02*
X119878417Y-97833619D01*
X119878417Y-97833619D02*
X120021274Y-97881238D01*
X120021274Y-97881238D02*
X120068893Y-97928857D01*
X120497465Y-98833619D02*
X120497465Y-97833619D01*
X121068893Y-98833619D02*
X120640322Y-98262190D01*
X121068893Y-97833619D02*
X120497465Y-98405047D01*
X129358417Y-113579809D02*
X129501274Y-113627428D01*
X129501274Y-113627428D02*
X129548893Y-113675047D01*
X129548893Y-113675047D02*
X129596512Y-113770285D01*
X129596512Y-113770285D02*
X129596512Y-113913142D01*
X129596512Y-113913142D02*
X129548893Y-114008380D01*
X129548893Y-114008380D02*
X129501274Y-114056000D01*
X129501274Y-114056000D02*
X129406036Y-114103619D01*
X129406036Y-114103619D02*
X129025084Y-114103619D01*
X129025084Y-114103619D02*
X129025084Y-113103619D01*
X129025084Y-113103619D02*
X129358417Y-113103619D01*
X129358417Y-113103619D02*
X129453655Y-113151238D01*
X129453655Y-113151238D02*
X129501274Y-113198857D01*
X129501274Y-113198857D02*
X129548893Y-113294095D01*
X129548893Y-113294095D02*
X129548893Y-113389333D01*
X129548893Y-113389333D02*
X129501274Y-113484571D01*
X129501274Y-113484571D02*
X129453655Y-113532190D01*
X129453655Y-113532190D02*
X129358417Y-113579809D01*
X129358417Y-113579809D02*
X129025084Y-113579809D01*
X130596512Y-114008380D02*
X130548893Y-114056000D01*
X130548893Y-114056000D02*
X130406036Y-114103619D01*
X130406036Y-114103619D02*
X130310798Y-114103619D01*
X130310798Y-114103619D02*
X130167941Y-114056000D01*
X130167941Y-114056000D02*
X130072703Y-113960761D01*
X130072703Y-113960761D02*
X130025084Y-113865523D01*
X130025084Y-113865523D02*
X129977465Y-113675047D01*
X129977465Y-113675047D02*
X129977465Y-113532190D01*
X129977465Y-113532190D02*
X130025084Y-113341714D01*
X130025084Y-113341714D02*
X130072703Y-113246476D01*
X130072703Y-113246476D02*
X130167941Y-113151238D01*
X130167941Y-113151238D02*
X130310798Y-113103619D01*
X130310798Y-113103619D02*
X130406036Y-113103619D01*
X130406036Y-113103619D02*
X130548893Y-113151238D01*
X130548893Y-113151238D02*
X130596512Y-113198857D01*
X131501274Y-114103619D02*
X131025084Y-114103619D01*
X131025084Y-114103619D02*
X131025084Y-113103619D01*
X131834608Y-114103619D02*
X131834608Y-113103619D01*
X132406036Y-114103619D02*
X131977465Y-113532190D01*
X132406036Y-113103619D02*
X131834608Y-113675047D01*
X119236512Y-106268380D02*
X119188893Y-106316000D01*
X119188893Y-106316000D02*
X119046036Y-106363619D01*
X119046036Y-106363619D02*
X118950798Y-106363619D01*
X118950798Y-106363619D02*
X118807941Y-106316000D01*
X118807941Y-106316000D02*
X118712703Y-106220761D01*
X118712703Y-106220761D02*
X118665084Y-106125523D01*
X118665084Y-106125523D02*
X118617465Y-105935047D01*
X118617465Y-105935047D02*
X118617465Y-105792190D01*
X118617465Y-105792190D02*
X118665084Y-105601714D01*
X118665084Y-105601714D02*
X118712703Y-105506476D01*
X118712703Y-105506476D02*
X118807941Y-105411238D01*
X118807941Y-105411238D02*
X118950798Y-105363619D01*
X118950798Y-105363619D02*
X119046036Y-105363619D01*
X119046036Y-105363619D02*
X119188893Y-105411238D01*
X119188893Y-105411238D02*
X119236512Y-105458857D01*
X119617465Y-106316000D02*
X119760322Y-106363619D01*
X119760322Y-106363619D02*
X119998417Y-106363619D01*
X119998417Y-106363619D02*
X120093655Y-106316000D01*
X120093655Y-106316000D02*
X120141274Y-106268380D01*
X120141274Y-106268380D02*
X120188893Y-106173142D01*
X120188893Y-106173142D02*
X120188893Y-106077904D01*
X120188893Y-106077904D02*
X120141274Y-105982666D01*
X120141274Y-105982666D02*
X120093655Y-105935047D01*
X120093655Y-105935047D02*
X119998417Y-105887428D01*
X119998417Y-105887428D02*
X119807941Y-105839809D01*
X119807941Y-105839809D02*
X119712703Y-105792190D01*
X119712703Y-105792190D02*
X119665084Y-105744571D01*
X119665084Y-105744571D02*
X119617465Y-105649333D01*
X119617465Y-105649333D02*
X119617465Y-105554095D01*
X119617465Y-105554095D02*
X119665084Y-105458857D01*
X119665084Y-105458857D02*
X119712703Y-105411238D01*
X119712703Y-105411238D02*
X119807941Y-105363619D01*
X119807941Y-105363619D02*
X120046036Y-105363619D01*
X120046036Y-105363619D02*
X120188893Y-105411238D01*
X129352227Y-64713619D02*
X129685560Y-65713619D01*
X129685560Y-65713619D02*
X130018893Y-64713619D01*
X130685560Y-65189809D02*
X130828417Y-65237428D01*
X130828417Y-65237428D02*
X130876036Y-65285047D01*
X130876036Y-65285047D02*
X130923655Y-65380285D01*
X130923655Y-65380285D02*
X130923655Y-65523142D01*
X130923655Y-65523142D02*
X130876036Y-65618380D01*
X130876036Y-65618380D02*
X130828417Y-65666000D01*
X130828417Y-65666000D02*
X130733179Y-65713619D01*
X130733179Y-65713619D02*
X130352227Y-65713619D01*
X130352227Y-65713619D02*
X130352227Y-64713619D01*
X130352227Y-64713619D02*
X130685560Y-64713619D01*
X130685560Y-64713619D02*
X130780798Y-64761238D01*
X130780798Y-64761238D02*
X130828417Y-64808857D01*
X130828417Y-64808857D02*
X130876036Y-64904095D01*
X130876036Y-64904095D02*
X130876036Y-64999333D01*
X130876036Y-64999333D02*
X130828417Y-65094571D01*
X130828417Y-65094571D02*
X130780798Y-65142190D01*
X130780798Y-65142190D02*
X130685560Y-65189809D01*
X130685560Y-65189809D02*
X130352227Y-65189809D01*
X131352227Y-64713619D02*
X131352227Y-65523142D01*
X131352227Y-65523142D02*
X131399846Y-65618380D01*
X131399846Y-65618380D02*
X131447465Y-65666000D01*
X131447465Y-65666000D02*
X131542703Y-65713619D01*
X131542703Y-65713619D02*
X131733179Y-65713619D01*
X131733179Y-65713619D02*
X131828417Y-65666000D01*
X131828417Y-65666000D02*
X131876036Y-65618380D01*
X131876036Y-65618380D02*
X131923655Y-65523142D01*
X131923655Y-65523142D02*
X131923655Y-64713619D01*
X132352227Y-65666000D02*
X132495084Y-65713619D01*
X132495084Y-65713619D02*
X132733179Y-65713619D01*
X132733179Y-65713619D02*
X132828417Y-65666000D01*
X132828417Y-65666000D02*
X132876036Y-65618380D01*
X132876036Y-65618380D02*
X132923655Y-65523142D01*
X132923655Y-65523142D02*
X132923655Y-65427904D01*
X132923655Y-65427904D02*
X132876036Y-65332666D01*
X132876036Y-65332666D02*
X132828417Y-65285047D01*
X132828417Y-65285047D02*
X132733179Y-65237428D01*
X132733179Y-65237428D02*
X132542703Y-65189809D01*
X132542703Y-65189809D02*
X132447465Y-65142190D01*
X132447465Y-65142190D02*
X132399846Y-65094571D01*
X132399846Y-65094571D02*
X132352227Y-64999333D01*
X132352227Y-64999333D02*
X132352227Y-64904095D01*
X132352227Y-64904095D02*
X132399846Y-64808857D01*
X132399846Y-64808857D02*
X132447465Y-64761238D01*
X132447465Y-64761238D02*
X132542703Y-64713619D01*
X132542703Y-64713619D02*
X132780798Y-64713619D01*
X132780798Y-64713619D02*
X132923655Y-64761238D01*
X118505084Y-91233619D02*
X118505084Y-90233619D01*
X118505084Y-90233619D02*
X118838417Y-90947904D01*
X118838417Y-90947904D02*
X119171750Y-90233619D01*
X119171750Y-90233619D02*
X119171750Y-91233619D01*
X119838417Y-90233619D02*
X120028893Y-90233619D01*
X120028893Y-90233619D02*
X120124131Y-90281238D01*
X120124131Y-90281238D02*
X120219369Y-90376476D01*
X120219369Y-90376476D02*
X120266988Y-90566952D01*
X120266988Y-90566952D02*
X120266988Y-90900285D01*
X120266988Y-90900285D02*
X120219369Y-91090761D01*
X120219369Y-91090761D02*
X120124131Y-91186000D01*
X120124131Y-91186000D02*
X120028893Y-91233619D01*
X120028893Y-91233619D02*
X119838417Y-91233619D01*
X119838417Y-91233619D02*
X119743179Y-91186000D01*
X119743179Y-91186000D02*
X119647941Y-91090761D01*
X119647941Y-91090761D02*
X119600322Y-90900285D01*
X119600322Y-90900285D02*
X119600322Y-90566952D01*
X119600322Y-90566952D02*
X119647941Y-90376476D01*
X119647941Y-90376476D02*
X119743179Y-90281238D01*
X119743179Y-90281238D02*
X119838417Y-90233619D01*
X120647941Y-91186000D02*
X120790798Y-91233619D01*
X120790798Y-91233619D02*
X121028893Y-91233619D01*
X121028893Y-91233619D02*
X121124131Y-91186000D01*
X121124131Y-91186000D02*
X121171750Y-91138380D01*
X121171750Y-91138380D02*
X121219369Y-91043142D01*
X121219369Y-91043142D02*
X121219369Y-90947904D01*
X121219369Y-90947904D02*
X121171750Y-90852666D01*
X121171750Y-90852666D02*
X121124131Y-90805047D01*
X121124131Y-90805047D02*
X121028893Y-90757428D01*
X121028893Y-90757428D02*
X120838417Y-90709809D01*
X120838417Y-90709809D02*
X120743179Y-90662190D01*
X120743179Y-90662190D02*
X120695560Y-90614571D01*
X120695560Y-90614571D02*
X120647941Y-90519333D01*
X120647941Y-90519333D02*
X120647941Y-90424095D01*
X120647941Y-90424095D02*
X120695560Y-90328857D01*
X120695560Y-90328857D02*
X120743179Y-90281238D01*
X120743179Y-90281238D02*
X120838417Y-90233619D01*
X120838417Y-90233619D02*
X121076512Y-90233619D01*
X121076512Y-90233619D02*
X121219369Y-90281238D01*
X121647941Y-91233619D02*
X121647941Y-90233619D01*
X128941274Y-103893619D02*
X128465084Y-103893619D01*
X128465084Y-103893619D02*
X128465084Y-102893619D01*
X129274608Y-103369809D02*
X129607941Y-103369809D01*
X129750798Y-103893619D02*
X129274608Y-103893619D01*
X129274608Y-103893619D02*
X129274608Y-102893619D01*
X129274608Y-102893619D02*
X129750798Y-102893619D01*
X130179370Y-103893619D02*
X130179370Y-102893619D01*
X130179370Y-102893619D02*
X130417465Y-102893619D01*
X130417465Y-102893619D02*
X130560322Y-102941238D01*
X130560322Y-102941238D02*
X130655560Y-103036476D01*
X130655560Y-103036476D02*
X130703179Y-103131714D01*
X130703179Y-103131714D02*
X130750798Y-103322190D01*
X130750798Y-103322190D02*
X130750798Y-103465047D01*
X130750798Y-103465047D02*
X130703179Y-103655523D01*
X130703179Y-103655523D02*
X130655560Y-103750761D01*
X130655560Y-103750761D02*
X130560322Y-103846000D01*
X130560322Y-103846000D02*
X130417465Y-103893619D01*
X130417465Y-103893619D02*
X130179370Y-103893619D01*
X130941275Y-103988857D02*
X131703179Y-103988857D01*
X132131751Y-102893619D02*
X132226989Y-102893619D01*
X132226989Y-102893619D02*
X132322227Y-102941238D01*
X132322227Y-102941238D02*
X132369846Y-102988857D01*
X132369846Y-102988857D02*
X132417465Y-103084095D01*
X132417465Y-103084095D02*
X132465084Y-103274571D01*
X132465084Y-103274571D02*
X132465084Y-103512666D01*
X132465084Y-103512666D02*
X132417465Y-103703142D01*
X132417465Y-103703142D02*
X132369846Y-103798380D01*
X132369846Y-103798380D02*
X132322227Y-103846000D01*
X132322227Y-103846000D02*
X132226989Y-103893619D01*
X132226989Y-103893619D02*
X132131751Y-103893619D01*
X132131751Y-103893619D02*
X132036513Y-103846000D01*
X132036513Y-103846000D02*
X131988894Y-103798380D01*
X131988894Y-103798380D02*
X131941275Y-103703142D01*
X131941275Y-103703142D02*
X131893656Y-103512666D01*
X131893656Y-103512666D02*
X131893656Y-103274571D01*
X131893656Y-103274571D02*
X131941275Y-103084095D01*
X131941275Y-103084095D02*
X131988894Y-102988857D01*
X131988894Y-102988857D02*
X132036513Y-102941238D01*
X132036513Y-102941238D02*
X132131751Y-102893619D01*
X130105084Y-106563619D02*
X130105084Y-105563619D01*
X130105084Y-105563619D02*
X130343179Y-105563619D01*
X130343179Y-105563619D02*
X130486036Y-105611238D01*
X130486036Y-105611238D02*
X130581274Y-105706476D01*
X130581274Y-105706476D02*
X130628893Y-105801714D01*
X130628893Y-105801714D02*
X130676512Y-105992190D01*
X130676512Y-105992190D02*
X130676512Y-106135047D01*
X130676512Y-106135047D02*
X130628893Y-106325523D01*
X130628893Y-106325523D02*
X130581274Y-106420761D01*
X130581274Y-106420761D02*
X130486036Y-106516000D01*
X130486036Y-106516000D02*
X130343179Y-106563619D01*
X130343179Y-106563619D02*
X130105084Y-106563619D01*
X131105084Y-106563619D02*
X131105084Y-105563619D01*
X131581274Y-106563619D02*
X131581274Y-105563619D01*
X131581274Y-105563619D02*
X132152702Y-106563619D01*
X132152702Y-106563619D02*
X132152702Y-105563619D01*
X118695084Y-101413619D02*
X118695084Y-100413619D01*
X118695084Y-100413619D02*
X119028417Y-101127904D01*
X119028417Y-101127904D02*
X119361750Y-100413619D01*
X119361750Y-100413619D02*
X119361750Y-101413619D01*
X119837941Y-101413619D02*
X119837941Y-100413619D01*
X120266512Y-101366000D02*
X120409369Y-101413619D01*
X120409369Y-101413619D02*
X120647464Y-101413619D01*
X120647464Y-101413619D02*
X120742702Y-101366000D01*
X120742702Y-101366000D02*
X120790321Y-101318380D01*
X120790321Y-101318380D02*
X120837940Y-101223142D01*
X120837940Y-101223142D02*
X120837940Y-101127904D01*
X120837940Y-101127904D02*
X120790321Y-101032666D01*
X120790321Y-101032666D02*
X120742702Y-100985047D01*
X120742702Y-100985047D02*
X120647464Y-100937428D01*
X120647464Y-100937428D02*
X120456988Y-100889809D01*
X120456988Y-100889809D02*
X120361750Y-100842190D01*
X120361750Y-100842190D02*
X120314131Y-100794571D01*
X120314131Y-100794571D02*
X120266512Y-100699333D01*
X120266512Y-100699333D02*
X120266512Y-100604095D01*
X120266512Y-100604095D02*
X120314131Y-100508857D01*
X120314131Y-100508857D02*
X120361750Y-100461238D01*
X120361750Y-100461238D02*
X120456988Y-100413619D01*
X120456988Y-100413619D02*
X120695083Y-100413619D01*
X120695083Y-100413619D02*
X120837940Y-100461238D01*
X121456988Y-100413619D02*
X121647464Y-100413619D01*
X121647464Y-100413619D02*
X121742702Y-100461238D01*
X121742702Y-100461238D02*
X121837940Y-100556476D01*
X121837940Y-100556476D02*
X121885559Y-100746952D01*
X121885559Y-100746952D02*
X121885559Y-101080285D01*
X121885559Y-101080285D02*
X121837940Y-101270761D01*
X121837940Y-101270761D02*
X121742702Y-101366000D01*
X121742702Y-101366000D02*
X121647464Y-101413619D01*
X121647464Y-101413619D02*
X121456988Y-101413619D01*
X121456988Y-101413619D02*
X121361750Y-101366000D01*
X121361750Y-101366000D02*
X121266512Y-101270761D01*
X121266512Y-101270761D02*
X121218893Y-101080285D01*
X121218893Y-101080285D02*
X121218893Y-100746952D01*
X121218893Y-100746952D02*
X121266512Y-100556476D01*
X121266512Y-100556476D02*
X121361750Y-100461238D01*
X121361750Y-100461238D02*
X121456988Y-100413619D01*
X130169846Y-74943619D02*
X130788893Y-74943619D01*
X130788893Y-74943619D02*
X130455560Y-75324571D01*
X130455560Y-75324571D02*
X130598417Y-75324571D01*
X130598417Y-75324571D02*
X130693655Y-75372190D01*
X130693655Y-75372190D02*
X130741274Y-75419809D01*
X130741274Y-75419809D02*
X130788893Y-75515047D01*
X130788893Y-75515047D02*
X130788893Y-75753142D01*
X130788893Y-75753142D02*
X130741274Y-75848380D01*
X130741274Y-75848380D02*
X130693655Y-75896000D01*
X130693655Y-75896000D02*
X130598417Y-75943619D01*
X130598417Y-75943619D02*
X130312703Y-75943619D01*
X130312703Y-75943619D02*
X130217465Y-75896000D01*
X130217465Y-75896000D02*
X130169846Y-75848380D01*
X131074608Y-74943619D02*
X131407941Y-75943619D01*
X131407941Y-75943619D02*
X131741274Y-74943619D01*
X131979370Y-74943619D02*
X132598417Y-74943619D01*
X132598417Y-74943619D02*
X132265084Y-75324571D01*
X132265084Y-75324571D02*
X132407941Y-75324571D01*
X132407941Y-75324571D02*
X132503179Y-75372190D01*
X132503179Y-75372190D02*
X132550798Y-75419809D01*
X132550798Y-75419809D02*
X132598417Y-75515047D01*
X132598417Y-75515047D02*
X132598417Y-75753142D01*
X132598417Y-75753142D02*
X132550798Y-75848380D01*
X132550798Y-75848380D02*
X132503179Y-75896000D01*
X132503179Y-75896000D02*
X132407941Y-75943619D01*
X132407941Y-75943619D02*
X132122227Y-75943619D01*
X132122227Y-75943619D02*
X132026989Y-75896000D01*
X132026989Y-75896000D02*
X131979370Y-75848380D01*
X128891274Y-101343619D02*
X128415084Y-101343619D01*
X128415084Y-101343619D02*
X128415084Y-100343619D01*
X129224608Y-100819809D02*
X129557941Y-100819809D01*
X129700798Y-101343619D02*
X129224608Y-101343619D01*
X129224608Y-101343619D02*
X129224608Y-100343619D01*
X129224608Y-100343619D02*
X129700798Y-100343619D01*
X130129370Y-101343619D02*
X130129370Y-100343619D01*
X130129370Y-100343619D02*
X130367465Y-100343619D01*
X130367465Y-100343619D02*
X130510322Y-100391238D01*
X130510322Y-100391238D02*
X130605560Y-100486476D01*
X130605560Y-100486476D02*
X130653179Y-100581714D01*
X130653179Y-100581714D02*
X130700798Y-100772190D01*
X130700798Y-100772190D02*
X130700798Y-100915047D01*
X130700798Y-100915047D02*
X130653179Y-101105523D01*
X130653179Y-101105523D02*
X130605560Y-101200761D01*
X130605560Y-101200761D02*
X130510322Y-101296000D01*
X130510322Y-101296000D02*
X130367465Y-101343619D01*
X130367465Y-101343619D02*
X130129370Y-101343619D01*
X130891275Y-101438857D02*
X131653179Y-101438857D01*
X132415084Y-101343619D02*
X131843656Y-101343619D01*
X132129370Y-101343619D02*
X132129370Y-100343619D01*
X132129370Y-100343619D02*
X132034132Y-100486476D01*
X132034132Y-100486476D02*
X131938894Y-100581714D01*
X131938894Y-100581714D02*
X131843656Y-100629333D01*
X128959846Y-110573619D02*
X129197941Y-111573619D01*
X129197941Y-111573619D02*
X129388417Y-110859333D01*
X129388417Y-110859333D02*
X129578893Y-111573619D01*
X129578893Y-111573619D02*
X129816989Y-110573619D01*
X130150322Y-111526000D02*
X130293179Y-111573619D01*
X130293179Y-111573619D02*
X130531274Y-111573619D01*
X130531274Y-111573619D02*
X130626512Y-111526000D01*
X130626512Y-111526000D02*
X130674131Y-111478380D01*
X130674131Y-111478380D02*
X130721750Y-111383142D01*
X130721750Y-111383142D02*
X130721750Y-111287904D01*
X130721750Y-111287904D02*
X130674131Y-111192666D01*
X130674131Y-111192666D02*
X130626512Y-111145047D01*
X130626512Y-111145047D02*
X130531274Y-111097428D01*
X130531274Y-111097428D02*
X130340798Y-111049809D01*
X130340798Y-111049809D02*
X130245560Y-111002190D01*
X130245560Y-111002190D02*
X130197941Y-110954571D01*
X130197941Y-110954571D02*
X130150322Y-110859333D01*
X130150322Y-110859333D02*
X130150322Y-110764095D01*
X130150322Y-110764095D02*
X130197941Y-110668857D01*
X130197941Y-110668857D02*
X130245560Y-110621238D01*
X130245560Y-110621238D02*
X130340798Y-110573619D01*
X130340798Y-110573619D02*
X130578893Y-110573619D01*
X130578893Y-110573619D02*
X130721750Y-110621238D01*
X131150322Y-111049809D02*
X131483655Y-111049809D01*
X131626512Y-111573619D02*
X131150322Y-111573619D01*
X131150322Y-111573619D02*
X131150322Y-110573619D01*
X131150322Y-110573619D02*
X131626512Y-110573619D01*
X132531274Y-111573619D02*
X132055084Y-111573619D01*
X132055084Y-111573619D02*
X132055084Y-110573619D01*
X118695084Y-111553619D02*
X118695084Y-110553619D01*
X118695084Y-110553619D02*
X119076036Y-110553619D01*
X119076036Y-110553619D02*
X119171274Y-110601238D01*
X119171274Y-110601238D02*
X119218893Y-110648857D01*
X119218893Y-110648857D02*
X119266512Y-110744095D01*
X119266512Y-110744095D02*
X119266512Y-110886952D01*
X119266512Y-110886952D02*
X119218893Y-110982190D01*
X119218893Y-110982190D02*
X119171274Y-111029809D01*
X119171274Y-111029809D02*
X119076036Y-111077428D01*
X119076036Y-111077428D02*
X118695084Y-111077428D01*
X120171274Y-111553619D02*
X119695084Y-111553619D01*
X119695084Y-111553619D02*
X119695084Y-110553619D01*
X120456989Y-111267904D02*
X120933179Y-111267904D01*
X120361751Y-111553619D02*
X120695084Y-110553619D01*
X120695084Y-110553619D02*
X121028417Y-111553619D01*
X121552227Y-111077428D02*
X121552227Y-111553619D01*
X121218894Y-110553619D02*
X121552227Y-111077428D01*
X121552227Y-111077428D02*
X121885560Y-110553619D01*
X130738893Y-69841238D02*
X130643655Y-69793619D01*
X130643655Y-69793619D02*
X130500798Y-69793619D01*
X130500798Y-69793619D02*
X130357941Y-69841238D01*
X130357941Y-69841238D02*
X130262703Y-69936476D01*
X130262703Y-69936476D02*
X130215084Y-70031714D01*
X130215084Y-70031714D02*
X130167465Y-70222190D01*
X130167465Y-70222190D02*
X130167465Y-70365047D01*
X130167465Y-70365047D02*
X130215084Y-70555523D01*
X130215084Y-70555523D02*
X130262703Y-70650761D01*
X130262703Y-70650761D02*
X130357941Y-70746000D01*
X130357941Y-70746000D02*
X130500798Y-70793619D01*
X130500798Y-70793619D02*
X130596036Y-70793619D01*
X130596036Y-70793619D02*
X130738893Y-70746000D01*
X130738893Y-70746000D02*
X130786512Y-70698380D01*
X130786512Y-70698380D02*
X130786512Y-70365047D01*
X130786512Y-70365047D02*
X130596036Y-70365047D01*
X131215084Y-70793619D02*
X131215084Y-69793619D01*
X131215084Y-69793619D02*
X131786512Y-70793619D01*
X131786512Y-70793619D02*
X131786512Y-69793619D01*
X132262703Y-70793619D02*
X132262703Y-69793619D01*
X132262703Y-69793619D02*
X132500798Y-69793619D01*
X132500798Y-69793619D02*
X132643655Y-69841238D01*
X132643655Y-69841238D02*
X132738893Y-69936476D01*
X132738893Y-69936476D02*
X132786512Y-70031714D01*
X132786512Y-70031714D02*
X132834131Y-70222190D01*
X132834131Y-70222190D02*
X132834131Y-70365047D01*
X132834131Y-70365047D02*
X132786512Y-70555523D01*
X132786512Y-70555523D02*
X132738893Y-70650761D01*
X132738893Y-70650761D02*
X132643655Y-70746000D01*
X132643655Y-70746000D02*
X132500798Y-70793619D01*
X132500798Y-70793619D02*
X132262703Y-70793619D01*
X118655084Y-114153619D02*
X118655084Y-113153619D01*
X118655084Y-113153619D02*
X119036036Y-113153619D01*
X119036036Y-113153619D02*
X119131274Y-113201238D01*
X119131274Y-113201238D02*
X119178893Y-113248857D01*
X119178893Y-113248857D02*
X119226512Y-113344095D01*
X119226512Y-113344095D02*
X119226512Y-113486952D01*
X119226512Y-113486952D02*
X119178893Y-113582190D01*
X119178893Y-113582190D02*
X119131274Y-113629809D01*
X119131274Y-113629809D02*
X119036036Y-113677428D01*
X119036036Y-113677428D02*
X118655084Y-113677428D01*
X119607465Y-113867904D02*
X120083655Y-113867904D01*
X119512227Y-114153619D02*
X119845560Y-113153619D01*
X119845560Y-113153619D02*
X120178893Y-114153619D01*
X120512227Y-113153619D02*
X120512227Y-113963142D01*
X120512227Y-113963142D02*
X120559846Y-114058380D01*
X120559846Y-114058380D02*
X120607465Y-114106000D01*
X120607465Y-114106000D02*
X120702703Y-114153619D01*
X120702703Y-114153619D02*
X120893179Y-114153619D01*
X120893179Y-114153619D02*
X120988417Y-114106000D01*
X120988417Y-114106000D02*
X121036036Y-114058380D01*
X121036036Y-114058380D02*
X121083655Y-113963142D01*
X121083655Y-113963142D02*
X121083655Y-113153619D01*
X121512227Y-114106000D02*
X121655084Y-114153619D01*
X121655084Y-114153619D02*
X121893179Y-114153619D01*
X121893179Y-114153619D02*
X121988417Y-114106000D01*
X121988417Y-114106000D02*
X122036036Y-114058380D01*
X122036036Y-114058380D02*
X122083655Y-113963142D01*
X122083655Y-113963142D02*
X122083655Y-113867904D01*
X122083655Y-113867904D02*
X122036036Y-113772666D01*
X122036036Y-113772666D02*
X121988417Y-113725047D01*
X121988417Y-113725047D02*
X121893179Y-113677428D01*
X121893179Y-113677428D02*
X121702703Y-113629809D01*
X121702703Y-113629809D02*
X121607465Y-113582190D01*
X121607465Y-113582190D02*
X121559846Y-113534571D01*
X121559846Y-113534571D02*
X121512227Y-113439333D01*
X121512227Y-113439333D02*
X121512227Y-113344095D01*
X121512227Y-113344095D02*
X121559846Y-113248857D01*
X121559846Y-113248857D02*
X121607465Y-113201238D01*
X121607465Y-113201238D02*
X121702703Y-113153619D01*
X121702703Y-113153619D02*
X121940798Y-113153619D01*
X121940798Y-113153619D02*
X122083655Y-113201238D01*
X122512227Y-113629809D02*
X122845560Y-113629809D01*
X122988417Y-114153619D02*
X122512227Y-114153619D01*
X122512227Y-114153619D02*
X122512227Y-113153619D01*
X122512227Y-113153619D02*
X122988417Y-113153619D01*
D12*
X158983333Y-76634819D02*
X158650000Y-76158628D01*
X158411905Y-76634819D02*
X158411905Y-75634819D01*
X158411905Y-75634819D02*
X158792857Y-75634819D01*
X158792857Y-75634819D02*
X158888095Y-75682438D01*
X158888095Y-75682438D02*
X158935714Y-75730057D01*
X158935714Y-75730057D02*
X158983333Y-75825295D01*
X158983333Y-75825295D02*
X158983333Y-75968152D01*
X158983333Y-75968152D02*
X158935714Y-76063390D01*
X158935714Y-76063390D02*
X158888095Y-76111009D01*
X158888095Y-76111009D02*
X158792857Y-76158628D01*
X158792857Y-76158628D02*
X158411905Y-76158628D01*
X159316667Y-75634819D02*
X159935714Y-75634819D01*
X159935714Y-75634819D02*
X159602381Y-76015771D01*
X159602381Y-76015771D02*
X159745238Y-76015771D01*
X159745238Y-76015771D02*
X159840476Y-76063390D01*
X159840476Y-76063390D02*
X159888095Y-76111009D01*
X159888095Y-76111009D02*
X159935714Y-76206247D01*
X159935714Y-76206247D02*
X159935714Y-76444342D01*
X159935714Y-76444342D02*
X159888095Y-76539580D01*
X159888095Y-76539580D02*
X159840476Y-76587200D01*
X159840476Y-76587200D02*
X159745238Y-76634819D01*
X159745238Y-76634819D02*
X159459524Y-76634819D01*
X159459524Y-76634819D02*
X159364286Y-76587200D01*
X159364286Y-76587200D02*
X159316667Y-76539580D01*
X158908333Y-69334819D02*
X158575000Y-68858628D01*
X158336905Y-69334819D02*
X158336905Y-68334819D01*
X158336905Y-68334819D02*
X158717857Y-68334819D01*
X158717857Y-68334819D02*
X158813095Y-68382438D01*
X158813095Y-68382438D02*
X158860714Y-68430057D01*
X158860714Y-68430057D02*
X158908333Y-68525295D01*
X158908333Y-68525295D02*
X158908333Y-68668152D01*
X158908333Y-68668152D02*
X158860714Y-68763390D01*
X158860714Y-68763390D02*
X158813095Y-68811009D01*
X158813095Y-68811009D02*
X158717857Y-68858628D01*
X158717857Y-68858628D02*
X158336905Y-68858628D01*
X159289286Y-68430057D02*
X159336905Y-68382438D01*
X159336905Y-68382438D02*
X159432143Y-68334819D01*
X159432143Y-68334819D02*
X159670238Y-68334819D01*
X159670238Y-68334819D02*
X159765476Y-68382438D01*
X159765476Y-68382438D02*
X159813095Y-68430057D01*
X159813095Y-68430057D02*
X159860714Y-68525295D01*
X159860714Y-68525295D02*
X159860714Y-68620533D01*
X159860714Y-68620533D02*
X159813095Y-68763390D01*
X159813095Y-68763390D02*
X159241667Y-69334819D01*
X159241667Y-69334819D02*
X159860714Y-69334819D01*
X158883333Y-62409819D02*
X158550000Y-61933628D01*
X158311905Y-62409819D02*
X158311905Y-61409819D01*
X158311905Y-61409819D02*
X158692857Y-61409819D01*
X158692857Y-61409819D02*
X158788095Y-61457438D01*
X158788095Y-61457438D02*
X158835714Y-61505057D01*
X158835714Y-61505057D02*
X158883333Y-61600295D01*
X158883333Y-61600295D02*
X158883333Y-61743152D01*
X158883333Y-61743152D02*
X158835714Y-61838390D01*
X158835714Y-61838390D02*
X158788095Y-61886009D01*
X158788095Y-61886009D02*
X158692857Y-61933628D01*
X158692857Y-61933628D02*
X158311905Y-61933628D01*
X159835714Y-62409819D02*
X159264286Y-62409819D01*
X159550000Y-62409819D02*
X159550000Y-61409819D01*
X159550000Y-61409819D02*
X159454762Y-61552676D01*
X159454762Y-61552676D02*
X159359524Y-61647914D01*
X159359524Y-61647914D02*
X159264286Y-61695533D01*
X162491666Y-81809819D02*
X162491666Y-82524104D01*
X162491666Y-82524104D02*
X162444047Y-82666961D01*
X162444047Y-82666961D02*
X162348809Y-82762200D01*
X162348809Y-82762200D02*
X162205952Y-82809819D01*
X162205952Y-82809819D02*
X162110714Y-82809819D01*
X163396428Y-82143152D02*
X163396428Y-82809819D01*
X163158333Y-81762200D02*
X162920238Y-82476485D01*
X162920238Y-82476485D02*
X163539285Y-82476485D01*
X142166666Y-81764819D02*
X142166666Y-82479104D01*
X142166666Y-82479104D02*
X142119047Y-82621961D01*
X142119047Y-82621961D02*
X142023809Y-82717200D01*
X142023809Y-82717200D02*
X141880952Y-82764819D01*
X141880952Y-82764819D02*
X141785714Y-82764819D01*
X142547619Y-81764819D02*
X143166666Y-81764819D01*
X143166666Y-81764819D02*
X142833333Y-82145771D01*
X142833333Y-82145771D02*
X142976190Y-82145771D01*
X142976190Y-82145771D02*
X143071428Y-82193390D01*
X143071428Y-82193390D02*
X143119047Y-82241009D01*
X143119047Y-82241009D02*
X143166666Y-82336247D01*
X143166666Y-82336247D02*
X143166666Y-82574342D01*
X143166666Y-82574342D02*
X143119047Y-82669580D01*
X143119047Y-82669580D02*
X143071428Y-82717200D01*
X143071428Y-82717200D02*
X142976190Y-82764819D01*
X142976190Y-82764819D02*
X142690476Y-82764819D01*
X142690476Y-82764819D02*
X142595238Y-82717200D01*
X142595238Y-82717200D02*
X142547619Y-82669580D01*
X108329819Y-73608333D02*
X109044104Y-73608333D01*
X109044104Y-73608333D02*
X109186961Y-73655952D01*
X109186961Y-73655952D02*
X109282200Y-73751190D01*
X109282200Y-73751190D02*
X109329819Y-73894047D01*
X109329819Y-73894047D02*
X109329819Y-73989285D01*
X108425057Y-73179761D02*
X108377438Y-73132142D01*
X108377438Y-73132142D02*
X108329819Y-73036904D01*
X108329819Y-73036904D02*
X108329819Y-72798809D01*
X108329819Y-72798809D02*
X108377438Y-72703571D01*
X108377438Y-72703571D02*
X108425057Y-72655952D01*
X108425057Y-72655952D02*
X108520295Y-72608333D01*
X108520295Y-72608333D02*
X108615533Y-72608333D01*
X108615533Y-72608333D02*
X108758390Y-72655952D01*
X108758390Y-72655952D02*
X109329819Y-73227380D01*
X109329819Y-73227380D02*
X109329819Y-72608333D01*
X104261666Y-88334819D02*
X104261666Y-89049104D01*
X104261666Y-89049104D02*
X104214047Y-89191961D01*
X104214047Y-89191961D02*
X104118809Y-89287200D01*
X104118809Y-89287200D02*
X103975952Y-89334819D01*
X103975952Y-89334819D02*
X103880714Y-89334819D01*
X105261666Y-89334819D02*
X104690238Y-89334819D01*
X104975952Y-89334819D02*
X104975952Y-88334819D01*
X104975952Y-88334819D02*
X104880714Y-88477676D01*
X104880714Y-88477676D02*
X104785476Y-88572914D01*
X104785476Y-88572914D02*
X104690238Y-88620533D01*
D13*
%TO.C,U1*%
X113871200Y-62741200D02*
X113871200Y-116081200D01*
X113871200Y-116081200D02*
X136731200Y-116081200D01*
D11*
X117141200Y-113561200D02*
X118351200Y-113561200D01*
X117191200Y-72891200D02*
X118091200Y-72891200D01*
X117191200Y-100841200D02*
X118281200Y-100841200D01*
X117201200Y-90671200D02*
X118211200Y-90671200D01*
X117201200Y-98311200D02*
X118211200Y-98311200D01*
X117221200Y-110981200D02*
X118301200Y-110981200D01*
X117271200Y-75541200D02*
X117271200Y-77981200D01*
X117271200Y-77981200D02*
X118091200Y-77981200D01*
X117271200Y-105961200D02*
X118251200Y-105961200D01*
X117321200Y-85701200D02*
X117321200Y-88191200D01*
X117321200Y-88191200D02*
X118131200Y-88191200D01*
X117361200Y-80601200D02*
X117361200Y-83131200D01*
X117361200Y-83131200D02*
X118081200Y-83131200D01*
X118081200Y-83131200D02*
X118081200Y-85701200D01*
X118081200Y-85701200D02*
X117321200Y-85701200D01*
X118091200Y-72891200D02*
X118091200Y-75541200D01*
X118091200Y-75541200D02*
X117271200Y-75541200D01*
X118091200Y-77981200D02*
X118091200Y-80601200D01*
X118091200Y-80601200D02*
X117361200Y-80601200D01*
D13*
X121407890Y-60201200D02*
X121407890Y-65281200D01*
X121407890Y-65281200D02*
X129111200Y-65281200D01*
X129111200Y-60201200D02*
X121407890Y-60201200D01*
X129111200Y-65281200D02*
X129111200Y-60201200D01*
D11*
X132761200Y-113691200D02*
X133381200Y-113691200D01*
X133231200Y-100911200D02*
X132611200Y-100911200D01*
X133311200Y-106021200D02*
X132541200Y-106021200D01*
X133341200Y-103331200D02*
X132741200Y-103331200D01*
X133351200Y-75431200D02*
X132841200Y-75431200D01*
X133361200Y-65291200D02*
X133081200Y-65291200D01*
X133361200Y-70311200D02*
X133031200Y-70311200D01*
X133361200Y-98261200D02*
X132711200Y-98261200D01*
X133371200Y-111001200D02*
X132811200Y-111001200D01*
D13*
X136731200Y-62741200D02*
X113871200Y-62741200D01*
X136731200Y-116081200D02*
X136731200Y-62741200D01*
D14*
%TO.C,R3*%
X152570000Y-78900000D02*
X154530000Y-78900000D01*
X154530000Y-77180000D02*
X154530000Y-80620000D01*
X154530000Y-80620000D02*
X163770000Y-80620000D01*
X163770000Y-77180000D02*
X154530000Y-77180000D01*
X163770000Y-80620000D02*
X163770000Y-77180000D01*
X165730000Y-78900000D02*
X163770000Y-78900000D01*
%TO.C,R2*%
X152495000Y-71600000D02*
X154455000Y-71600000D01*
X154455000Y-69880000D02*
X154455000Y-73320000D01*
X154455000Y-73320000D02*
X163695000Y-73320000D01*
X163695000Y-69880000D02*
X154455000Y-69880000D01*
X163695000Y-73320000D02*
X163695000Y-69880000D01*
X165655000Y-71600000D02*
X163695000Y-71600000D01*
%TO.C,R1*%
X152470000Y-64675000D02*
X154430000Y-64675000D01*
X154430000Y-62955000D02*
X154430000Y-66395000D01*
X154430000Y-66395000D02*
X163670000Y-66395000D01*
X163670000Y-62955000D02*
X154430000Y-62955000D01*
X163670000Y-66395000D02*
X163670000Y-62955000D01*
X165630000Y-64675000D02*
X163670000Y-64675000D01*
%TO.C,J4*%
X161495000Y-86395000D02*
X161495000Y-99155000D01*
X161495000Y-86395000D02*
X164155000Y-86395000D01*
X161495000Y-99155000D02*
X164155000Y-99155000D01*
X162825000Y-83795000D02*
X164155000Y-83795000D01*
X164155000Y-83795000D02*
X164155000Y-85125000D01*
X164155000Y-86395000D02*
X164155000Y-99155000D01*
%TO.C,J3*%
X141170000Y-86350000D02*
X141170000Y-106730000D01*
X141170000Y-86350000D02*
X143830000Y-86350000D01*
X141170000Y-106730000D02*
X143830000Y-106730000D01*
X142500000Y-83750000D02*
X143830000Y-83750000D01*
X143830000Y-83750000D02*
X143830000Y-85080000D01*
X143830000Y-86350000D02*
X143830000Y-106730000D01*
%TO.C,J2*%
X108075000Y-62925000D02*
X106825000Y-62925000D01*
X107785000Y-63215000D02*
X101815000Y-63215000D01*
X101815000Y-63215000D02*
X101815000Y-83335000D01*
X107775000Y-63225000D02*
X107025000Y-63225000D01*
X107025000Y-63225000D02*
X107025000Y-65025000D01*
X105525000Y-63225000D02*
X105525000Y-63975000D01*
X105525000Y-63975000D02*
X102575000Y-63975000D01*
X102575000Y-63975000D02*
X102575000Y-73275000D01*
X108075000Y-64175000D02*
X108075000Y-62925000D01*
X107775000Y-65025000D02*
X107775000Y-63225000D01*
X107025000Y-65025000D02*
X107775000Y-65025000D01*
X107775000Y-66525000D02*
X107025000Y-66525000D01*
X107025000Y-66525000D02*
X107025000Y-80025000D01*
X107775000Y-80025000D02*
X107775000Y-66525000D01*
X107025000Y-80025000D02*
X107775000Y-80025000D01*
X107775000Y-81525000D02*
X107025000Y-81525000D01*
X107025000Y-81525000D02*
X107025000Y-83325000D01*
X105525000Y-82575000D02*
X102575000Y-82575000D01*
X102575000Y-82575000D02*
X102575000Y-73275000D01*
X107775000Y-83325000D02*
X107775000Y-81525000D01*
X107025000Y-83325000D02*
X107775000Y-83325000D01*
X105525000Y-83325000D02*
X105525000Y-82575000D01*
X107785000Y-83335000D02*
X107785000Y-63215000D01*
X101815000Y-83335000D02*
X107785000Y-83335000D01*
%TO.C,J1*%
X98885000Y-90320000D02*
X98885000Y-105680000D01*
X98885000Y-90320000D02*
X107515000Y-90320000D01*
X98885000Y-90440000D02*
X107515000Y-90440000D01*
X98885000Y-90558095D02*
X107515000Y-90558095D01*
X98885000Y-90676190D02*
X107515000Y-90676190D01*
X98885000Y-90794285D02*
X107515000Y-90794285D01*
X98885000Y-90912380D02*
X107515000Y-90912380D01*
X98885000Y-91030475D02*
X107515000Y-91030475D01*
X98885000Y-91148570D02*
X107515000Y-91148570D01*
X98885000Y-91266665D02*
X107515000Y-91266665D01*
X98885000Y-91384760D02*
X107515000Y-91384760D01*
X98885000Y-91502855D02*
X107515000Y-91502855D01*
X98885000Y-91620950D02*
X107515000Y-91620950D01*
X98885000Y-91739045D02*
X107515000Y-91739045D01*
X98885000Y-91857140D02*
X107515000Y-91857140D01*
X98885000Y-91975235D02*
X107515000Y-91975235D01*
X98885000Y-92093330D02*
X107515000Y-92093330D01*
X98885000Y-92211425D02*
X107515000Y-92211425D01*
X98885000Y-92329520D02*
X107515000Y-92329520D01*
X98885000Y-92447615D02*
X107515000Y-92447615D01*
X98885000Y-92565710D02*
X107515000Y-92565710D01*
X98885000Y-92683805D02*
X107515000Y-92683805D01*
X98885000Y-92801900D02*
X107515000Y-92801900D01*
X98885000Y-92920000D02*
X107515000Y-92920000D01*
X98885000Y-95460000D02*
X107515000Y-95460000D01*
X98885000Y-98000000D02*
X107515000Y-98000000D01*
X98885000Y-100540000D02*
X107515000Y-100540000D01*
X98885000Y-103080000D02*
X107515000Y-103080000D01*
X98885000Y-105680000D02*
X107515000Y-105680000D01*
X107515000Y-90320000D02*
X107515000Y-105680000D01*
X107515000Y-91290000D02*
X107865000Y-91290000D01*
X107515000Y-92010000D02*
X107865000Y-92010000D01*
X107515000Y-93830000D02*
X107925000Y-93830000D01*
X107515000Y-94550000D02*
X107925000Y-94550000D01*
X107515000Y-96370000D02*
X107925000Y-96370000D01*
X107515000Y-97090000D02*
X107925000Y-97090000D01*
X107515000Y-98910000D02*
X107925000Y-98910000D01*
X107515000Y-99630000D02*
X107925000Y-99630000D01*
X107515000Y-101450000D02*
X107925000Y-101450000D01*
X107515000Y-102170000D02*
X107925000Y-102170000D01*
X107515000Y-103990000D02*
X107925000Y-103990000D01*
X107515000Y-104710000D02*
X107925000Y-104710000D01*
X108975000Y-90320000D02*
X110085000Y-90320000D01*
X110085000Y-90320000D02*
X110085000Y-91650000D01*
%TD*%
M02*
