M48
; DRILL file {KiCad 8.0.9-unknown-202502181922~c4009544a9~ubuntu24.04.1} date 2025-03-05T23:49:00+0530
; FORMAT={-:-/ absolute / metric / decimal}
; #@! TF.CreationDate,2025-03-05T23:49:00+05:30
; #@! TF.GenerationSoftware,Kicad,Pcbnew,8.0.9-unknown-202502181922~c4009544a9~ubuntu24.04.1
; #@! TF.FileFunction,Plated,1,2,PTH
FMAT,2
METRIC
; #@! TA.AperFunction,Plated,PTH,ViaDrill
T1C0.300
; #@! TA.AperFunction,Plated,PTH,ViaDrill
T2C0.600
; #@! TA.AperFunction,Plated,PTH,ComponentDrill
T3C0.800
; #@! TA.AperFunction,Plated,PTH,ComponentDrill
T4C0.813
; #@! TA.AperFunction,Plated,PTH,ComponentDrill
T5C0.900
; #@! TA.AperFunction,Plated,PTH,ComponentDrill
T6C0.950
; #@! TA.AperFunction,Plated,PTH,ComponentDrill
T7C1.000
%
G90
G05
T1
X111.425Y-86.05
X111.975Y-98.275
X112.025Y-99.675
X137.275Y-85.2
X138.8Y-79.775
X139.85Y-99.025
X140.925Y-76.1
T2
X97.425Y-86.925
X106.075Y-113.375
X109.05Y-67.275
X109.075Y-72.15
X109.1Y-69.75
X109.525Y-79.95
X111.175Y-61.075
X112.25Y-102.95
X112.9Y-75.75
X112.975Y-73.15
X113.05Y-70.675
X124.65Y-78.5
X142.95Y-65.775
X146.2Y-111.175
X153.575Y-90.925
X159.8Y-110.4
X166.875Y-83.475
X168.15Y-112.5
T3
X151.43Y-64.675
X151.455Y-71.6
X151.53Y-78.9
X166.67Y-64.675
X166.695Y-71.6
X166.77Y-78.9
T4
X169.465Y-87.71
X169.465Y-92.79
X169.59Y-100.21
X169.59Y-105.29
X177.085Y-87.71
X177.085Y-92.79
X177.21Y-100.21
X177.21Y-105.29
T5
X171.63Y-78.75
X171.685Y-64.35
X171.76Y-71.105
X174.17Y-78.75
X174.225Y-64.35
X174.3Y-71.105
T6
X105.325Y-65.775
X105.325Y-68.275
X105.325Y-70.775
X105.325Y-73.275
X105.325Y-75.775
X105.325Y-78.275
X105.325Y-80.775
T7
X108.975Y-91.65
X108.975Y-94.19
X108.975Y-96.73
X108.975Y-99.27
X108.975Y-101.81
X108.975Y-104.35
X116.411Y-65.281
X116.411Y-67.821
X116.411Y-70.361
X116.411Y-72.901
X116.411Y-75.441
X116.411Y-77.981
X116.411Y-80.521
X116.411Y-83.061
X116.411Y-85.601
X116.411Y-88.141
X116.411Y-90.681
X116.411Y-93.221
X116.411Y-95.761
X116.411Y-98.301
X116.411Y-100.841
X116.411Y-103.381
X116.411Y-105.921
X116.411Y-108.461
X116.411Y-111.001
X116.411Y-113.541
X134.191Y-65.281
X134.191Y-67.821
X134.191Y-70.361
X134.191Y-72.901
X134.191Y-75.441
X134.191Y-77.981
X134.191Y-80.521
X134.191Y-83.061
X134.191Y-85.601
X134.191Y-88.141
X134.191Y-90.681
X134.191Y-93.221
X134.191Y-95.761
X134.191Y-98.301
X134.191Y-100.841
X134.191Y-103.381
X134.191Y-105.921
X134.191Y-108.461
X134.191Y-111.001
X134.191Y-113.541
X142.5Y-85.08
X142.5Y-87.62
X142.5Y-90.16
X142.5Y-92.7
X142.5Y-95.24
X142.5Y-97.78
X142.5Y-100.32
X142.5Y-102.86
X142.5Y-105.4
X162.825Y-85.125
X162.825Y-87.665
X162.825Y-90.205
X162.825Y-92.745
X162.825Y-95.285
X162.825Y-97.825
M30
