%TF.GenerationSoftware,KiCad,Pcbnew,8.0.9-unknown-202502181922~c4009544a9~ubuntu24.04.1*%
%TF.CreationDate,2025-03-05T23:49:28+05:30*%
%TF.ProjectId,CircuitDesign_AEDTrainer,43697263-7569-4744-9465-7369676e5f41,rev?*%
%TF.SameCoordinates,Original*%
%TF.FileFunction,Copper,L1,Top*%
%TF.FilePolarity,Positive*%
%FSLAX46Y46*%
G04 Gerber Fmt 4.6, Leading zero omitted, Abs format (unit mm)*
G04 Created by KiCad (PCBNEW 8.0.9-unknown-202502181922~c4009544a9~ubuntu24.04.1) date 2025-03-05 23:49:28*
%MOMM*%
%LPD*%
G01*
G04 APERTURE LIST*
G04 Aperture macros list*
%AMRoundRect*
0 Rectangle with rounded corners*
0 $1 Rounding radius*
0 $2 $3 $4 $5 $6 $7 $8 $9 X,Y pos of 4 corners*
0 Add a 4 corners polygon primitive as box body*
4,1,4,$2,$3,$4,$5,$6,$7,$8,$9,$2,$3,0*
0 Add four circle primitives for the rounded corners*
1,1,$1+$1,$2,$3*
1,1,$1+$1,$4,$5*
1,1,$1+$1,$6,$7*
1,1,$1+$1,$8,$9*
0 Add four rect primitives between the rounded corners*
20,1,$1+$1,$2,$3,$4,$5,0*
20,1,$1+$1,$4,$5,$6,$7,0*
20,1,$1+$1,$6,$7,$8,$9,0*
20,1,$1+$1,$8,$9,$2,$3,0*%
G04 Aperture macros list end*
%TA.AperFunction,ComponentPad*%
%ADD10R,1.508000X1.508000*%
%TD*%
%TA.AperFunction,ComponentPad*%
%ADD11C,1.397000*%
%TD*%
%TA.AperFunction,ComponentPad*%
%ADD12C,1.600000*%
%TD*%
%TA.AperFunction,ComponentPad*%
%ADD13O,1.600000X1.600000*%
%TD*%
%TA.AperFunction,ComponentPad*%
%ADD14R,1.700000X1.700000*%
%TD*%
%TA.AperFunction,ComponentPad*%
%ADD15O,1.700000X1.700000*%
%TD*%
%TA.AperFunction,ComponentPad*%
%ADD16RoundRect,0.250000X-0.725000X0.600000X-0.725000X-0.600000X0.725000X-0.600000X0.725000X0.600000X0*%
%TD*%
%TA.AperFunction,ComponentPad*%
%ADD17O,1.950000X1.700000*%
%TD*%
%TA.AperFunction,ComponentPad*%
%ADD18R,1.800000X1.800000*%
%TD*%
%TA.AperFunction,ComponentPad*%
%ADD19C,1.800000*%
%TD*%
%TA.AperFunction,ViaPad*%
%ADD20C,1.200000*%
%TD*%
%TA.AperFunction,ViaPad*%
%ADD21C,0.600000*%
%TD*%
%TA.AperFunction,Conductor*%
%ADD22C,0.400000*%
%TD*%
%TA.AperFunction,Conductor*%
%ADD23C,0.200000*%
%TD*%
G04 APERTURE END LIST*
D10*
%TO.P,U1,3V3,3V3*%
%TO.N,/3V3*%
X134191200Y-75441200D03*
%TO.P,U1,3V3_EN,3V3_EN*%
%TO.N,unconnected-(U1-Pad3V3_EN)*%
X134191200Y-72901200D03*
%TO.P,U1,ADC_VREF,ADC_VREF*%
%TO.N,unconnected-(U1-PadADC_VREF)*%
X134191200Y-77981200D03*
%TO.P,U1,AGND,AGND*%
%TO.N,unconnected-(U1-PadAGND)*%
X134191200Y-83061200D03*
%TO.P,U1,GND,GND*%
%TO.N,GND*%
X134191200Y-70361200D03*
%TO.P,U1,GND2,GND2*%
X134191200Y-95761200D03*
%TO.P,U1,GND3,GND3*%
X134191200Y-108461200D03*
%TO.P,U1,GND4,GND4*%
X116411200Y-70361200D03*
%TO.P,U1,GND5,GND5*%
X116411200Y-83061200D03*
%TO.P,U1,GND6,GND6*%
X116411200Y-95761200D03*
%TO.P,U1,GND7,GND7*%
X116411200Y-108461200D03*
%TO.P,U1,GP0,GP0*%
%TO.N,unconnected-(U1-PadGP0)*%
X116411200Y-65281200D03*
%TO.P,U1,GP1,GP1*%
%TO.N,unconnected-(U1-PadGP1)*%
X116411200Y-67821200D03*
%TO.P,U1,GP2,GP2*%
%TO.N,/GPIO_2*%
X116411200Y-72901200D03*
%TO.P,U1,GP3,GP3*%
%TO.N,/GPIO_3*%
X116411200Y-75441200D03*
%TO.P,U1,GP4,GP4*%
%TO.N,/GPIO_4*%
X116411200Y-77981200D03*
%TO.P,U1,GP5,GP5*%
%TO.N,/GPIO_5*%
X116411200Y-80521200D03*
%TO.P,U1,GP6,GP6*%
%TO.N,/GPIO_6*%
X116411200Y-85601200D03*
%TO.P,U1,GP7,GP7*%
%TO.N,/GPIO_7*%
X116411200Y-88141200D03*
%TO.P,U1,GP8,GP8*%
%TO.N,/MOSI*%
X116411200Y-90681200D03*
%TO.P,U1,GP9,GP9*%
%TO.N,unconnected-(U1-PadGP9)*%
X116411200Y-93221200D03*
%TO.P,U1,GP10,GP10*%
%TO.N,/SCK*%
X116411200Y-98301200D03*
%TO.P,U1,GP11,GP11*%
%TO.N,/MISO*%
X116411200Y-100841200D03*
%TO.P,U1,GP12,GP12*%
%TO.N,unconnected-(U1-PadGP12)*%
X116411200Y-103381200D03*
%TO.P,U1,GP13,GP13*%
%TO.N,/CS*%
X116411200Y-105921200D03*
%TO.P,U1,GP14,GP14*%
%TO.N,/PLAY*%
X116411200Y-111001200D03*
%TO.P,U1,GP15,GP15*%
%TO.N,/PAUSE*%
X116411200Y-113541200D03*
%TO.P,U1,GP16,GP16*%
%TO.N,/BCLK*%
X134191200Y-113541200D03*
%TO.P,U1,GP17,GP17*%
%TO.N,/WSEL*%
X134191200Y-111001200D03*
%TO.P,U1,GP18,GP18*%
%TO.N,/DIN*%
X134191200Y-105921200D03*
%TO.P,U1,GP19,GP19*%
%TO.N,/LED_0*%
X134191200Y-103381200D03*
%TO.P,U1,GP20,GP20*%
%TO.N,/LED_1*%
X134191200Y-100841200D03*
%TO.P,U1,GP21,GP21*%
%TO.N,/LED_2*%
X134191200Y-98301200D03*
%TO.P,U1,GP22,GP22*%
%TO.N,unconnected-(U1-PadGP22)*%
X134191200Y-93221200D03*
%TO.P,U1,GP26_A0,GP26_A0*%
%TO.N,unconnected-(U1-PadGP26_A0)*%
X134191200Y-88141200D03*
%TO.P,U1,GP27_A1,GP27_A1*%
%TO.N,unconnected-(U1-PadGP27_A1)*%
X134191200Y-85601200D03*
%TO.P,U1,GP28_A2,GP28_A2*%
%TO.N,unconnected-(U1-PadGP28_A2)*%
X134191200Y-80521200D03*
%TO.P,U1,RUN,RUN*%
%TO.N,unconnected-(U1-PadRUN)*%
X134191200Y-90681200D03*
%TO.P,U1,VBUS,VBUS*%
%TO.N,/VBUS*%
X134191200Y-65281200D03*
%TO.P,U1,VSYS,VSYS*%
%TO.N,unconnected-(U1-PadVSYS)*%
X134191200Y-67821200D03*
%TD*%
D11*
%TO.P,SW3,1,1*%
%TO.N,/PLAY*%
X169590000Y-105290000D03*
X177210000Y-105290000D03*
%TO.P,SW3,2,2*%
%TO.N,GND*%
X169590000Y-100210000D03*
X177210000Y-100210000D03*
%TD*%
%TO.P,SW2,1,1*%
%TO.N,/PAUSE*%
X169465000Y-92790000D03*
X177085000Y-92790000D03*
%TO.P,SW2,2,2*%
%TO.N,GND*%
X169465000Y-87710000D03*
X177085000Y-87710000D03*
%TD*%
D12*
%TO.P,R3,1*%
%TO.N,/LED_2*%
X151530000Y-78900000D03*
D13*
%TO.P,R3,2*%
%TO.N,Net-(D3-A)*%
X166770000Y-78900000D03*
%TD*%
D12*
%TO.P,R2,1*%
%TO.N,/LED_1*%
X151455000Y-71600000D03*
D13*
%TO.P,R2,2*%
%TO.N,Net-(D2-A)*%
X166695000Y-71600000D03*
%TD*%
D12*
%TO.P,R1,1*%
%TO.N,/LED_0*%
X151430000Y-64675000D03*
D13*
%TO.P,R1,2*%
%TO.N,Net-(D1-A)*%
X166670000Y-64675000D03*
%TD*%
D14*
%TO.P,J4,1,Pin_1*%
%TO.N,unconnected-(J4-Pin_1-Pad1)*%
X162825000Y-85125000D03*
D15*
%TO.P,J4,2,Pin_2*%
%TO.N,unconnected-(J4-Pin_2-Pad2)*%
X162825000Y-87665000D03*
%TO.P,J4,3,Pin_3*%
%TO.N,unconnected-(J4-Pin_3-Pad3)*%
X162825000Y-90205000D03*
%TO.P,J4,4,Pin_4*%
%TO.N,unconnected-(J4-Pin_4-Pad4)*%
X162825000Y-92745000D03*
%TO.P,J4,5,Pin_5*%
%TO.N,unconnected-(J4-Pin_5-Pad5)*%
X162825000Y-95285000D03*
%TO.P,J4,6,Pin_6*%
%TO.N,unconnected-(J4-Pin_6-Pad6)*%
X162825000Y-97825000D03*
%TD*%
D14*
%TO.P,J3,1,Pin_1*%
%TO.N,unconnected-(J3-Pin_1-Pad1)*%
X142500000Y-85080000D03*
D15*
%TO.P,J3,2,Pin_2*%
%TO.N,/3V3*%
X142500000Y-87620000D03*
%TO.P,J3,3,Pin_3*%
%TO.N,GND*%
X142500000Y-90160000D03*
%TO.P,J3,4,Pin_4*%
%TO.N,/WSEL*%
X142500000Y-92700000D03*
%TO.P,J3,5,Pin_5*%
%TO.N,/DIN*%
X142500000Y-95240000D03*
%TO.P,J3,6,Pin_6*%
%TO.N,/BCLK*%
X142500000Y-97780000D03*
%TO.P,J3,7,Pin_7*%
%TO.N,unconnected-(J3-Pin_7-Pad7)*%
X142500000Y-100320000D03*
%TO.P,J3,8,Pin_8*%
%TO.N,unconnected-(J3-Pin_8-Pad8)*%
X142500000Y-102860000D03*
%TO.P,J3,9,Pin_9*%
%TO.N,unconnected-(J3-Pin_9-Pad9)*%
X142500000Y-105400000D03*
%TD*%
D16*
%TO.P,J2,1,Pin_1*%
%TO.N,/GPIO_2*%
X105325000Y-65775000D03*
D17*
%TO.P,J2,2,Pin_2*%
%TO.N,/GPIO_3*%
X105325000Y-68275000D03*
%TO.P,J2,3,Pin_3*%
%TO.N,/GPIO_4*%
X105325000Y-70775000D03*
%TO.P,J2,4,Pin_4*%
%TO.N,/GPIO_5*%
X105325000Y-73275000D03*
%TO.P,J2,5,Pin_5*%
%TO.N,/GPIO_6*%
X105325000Y-75775000D03*
%TO.P,J2,6,Pin_6*%
%TO.N,/GPIO_7*%
X105325000Y-78275000D03*
%TO.P,J2,7,Pin_7*%
%TO.N,GND*%
X105325000Y-80775000D03*
%TD*%
D14*
%TO.P,J1,1,Pin_1*%
%TO.N,GND*%
X108975000Y-91650000D03*
D15*
%TO.P,J1,2,Pin_2*%
%TO.N,/VBUS*%
X108975000Y-94190000D03*
%TO.P,J1,3,Pin_3*%
%TO.N,/MISO*%
X108975000Y-96730000D03*
%TO.P,J1,4,Pin_4*%
%TO.N,/MOSI*%
X108975000Y-99270000D03*
%TO.P,J1,5,Pin_5*%
%TO.N,/SCK*%
X108975000Y-101810000D03*
%TO.P,J1,6,Pin_6*%
%TO.N,/CS*%
X108975000Y-104350000D03*
%TD*%
D18*
%TO.P,D3,1,K*%
%TO.N,GND*%
X174170000Y-78750000D03*
D19*
%TO.P,D3,2,A*%
%TO.N,Net-(D3-A)*%
X171630000Y-78750000D03*
%TD*%
D18*
%TO.P,D2,1,K*%
%TO.N,GND*%
X174300000Y-71105000D03*
D19*
%TO.P,D2,2,A*%
%TO.N,Net-(D2-A)*%
X171760000Y-71105000D03*
%TD*%
D18*
%TO.P,D1,1,K*%
%TO.N,GND*%
X174225000Y-64350000D03*
D19*
%TO.P,D1,2,A*%
%TO.N,Net-(D1-A)*%
X171685000Y-64350000D03*
%TD*%
D20*
%TO.N,GND*%
X112250000Y-102950000D03*
X109525000Y-79950000D03*
X113050000Y-70675000D03*
X112900000Y-75750000D03*
X112975000Y-73150000D03*
X109075000Y-72150000D03*
X109100000Y-69750000D03*
X109050000Y-67275000D03*
X166875000Y-83475000D03*
X159800000Y-110400000D03*
X111175000Y-61075000D03*
X106075000Y-113375000D03*
X146200000Y-111175000D03*
X168150000Y-112500000D03*
X153575000Y-90925000D03*
X142950000Y-65775000D03*
X124650000Y-78500000D03*
X97425000Y-86925000D03*
D21*
%TO.N,/VBUS*%
X111425000Y-86050000D03*
%TO.N,/3V3*%
X140925000Y-76100000D03*
%TO.N,/WSEL*%
X139850000Y-99025000D03*
%TO.N,/LED_0*%
X138800000Y-79775000D03*
%TO.N,/LED_1*%
X137275000Y-85200000D03*
%TO.N,/SCK*%
X112025000Y-99675000D03*
%TO.N,/MOSI*%
X111975000Y-98275000D03*
%TD*%
D22*
%TO.N,/VBUS*%
X111425000Y-92942081D02*
X111425000Y-86050000D01*
X110177081Y-94190000D02*
X111425000Y-92942081D01*
X108975000Y-94190000D02*
X110177081Y-94190000D01*
%TO.N,/3V3*%
X140266200Y-75441200D02*
X140925000Y-76100000D01*
X134191200Y-75441200D02*
X140266200Y-75441200D01*
D23*
%TO.N,/WSEL*%
X139850000Y-95350000D02*
X139850000Y-99025000D01*
X142500000Y-92700000D02*
X139850000Y-95350000D01*
%TO.N,/DIN*%
X142500000Y-95240000D02*
X141250000Y-96490000D01*
X141250000Y-96490000D02*
X141250000Y-98862400D01*
X141250000Y-98862400D02*
X134191200Y-105921200D01*
%TO.N,/BCLK*%
X142500000Y-97780000D02*
X143750000Y-99030000D01*
X143750000Y-99030000D02*
X143750000Y-105975000D01*
X143750000Y-105975000D02*
X136183800Y-113541200D01*
X136183800Y-113541200D02*
X134191200Y-113541200D01*
%TO.N,/PLAY*%
X169590000Y-105290000D02*
X159684800Y-115195200D01*
X115257200Y-112155200D02*
X116411200Y-111001200D01*
X159684800Y-115195200D02*
X115757200Y-115195200D01*
X115757200Y-115195200D02*
X115257200Y-114695200D01*
X115257200Y-114695200D02*
X115257200Y-112155200D01*
%TO.N,/PAUSE*%
X169465000Y-92790000D02*
X169465000Y-93777828D01*
X169465000Y-93777828D02*
X148547628Y-114695200D01*
X117565200Y-114695200D02*
X116411200Y-113541200D01*
X148547628Y-114695200D02*
X117565200Y-114695200D01*
%TO.N,Net-(D3-A)*%
X171630000Y-78750000D02*
X166920000Y-78750000D01*
X166920000Y-78750000D02*
X166770000Y-78900000D01*
%TO.N,Net-(D2-A)*%
X171760000Y-71105000D02*
X167190000Y-71105000D01*
X167190000Y-71105000D02*
X166695000Y-71600000D01*
%TO.N,Net-(D1-A)*%
X171685000Y-64350000D02*
X166995000Y-64350000D01*
X166995000Y-64350000D02*
X166670000Y-64675000D01*
%TO.N,/LED_0*%
X151430000Y-67145000D02*
X138800000Y-79775000D01*
X151430000Y-64675000D02*
X151430000Y-67145000D01*
%TO.N,/LED_1*%
X137855000Y-85200000D02*
X137275000Y-85200000D01*
X151455000Y-71600000D02*
X137855000Y-85200000D01*
%TO.N,/LED_2*%
X151530000Y-78900000D02*
X146180000Y-78900000D01*
X146180000Y-78900000D02*
X135445200Y-89634800D01*
X135445200Y-89634800D02*
X135445200Y-97047200D01*
X135445200Y-97047200D02*
X134191200Y-98301200D01*
%TO.N,/CS*%
X108975000Y-104350000D02*
X110546200Y-105921200D01*
X110546200Y-105921200D02*
X116411200Y-105921200D01*
%TO.N,/SCK*%
X109890000Y-101810000D02*
X112025000Y-99675000D01*
X108975000Y-101810000D02*
X109890000Y-101810000D01*
%TO.N,/MOSI*%
X110980000Y-99270000D02*
X111975000Y-98275000D01*
X108975000Y-99270000D02*
X110980000Y-99270000D01*
%TO.N,/MISO*%
X108975000Y-96730000D02*
X112300000Y-96730000D01*
X112300000Y-96730000D02*
X116411200Y-100841200D01*
%TO.N,/GPIO_7*%
X105325000Y-78275000D02*
X106545000Y-78275000D01*
X106545000Y-78275000D02*
X116411200Y-88141200D01*
%TO.N,/GPIO_6*%
X105325000Y-75775000D02*
X106585000Y-75775000D01*
X106585000Y-75775000D02*
X116411200Y-85601200D01*
%TO.N,/GPIO_5*%
X105325000Y-73275000D02*
X109165000Y-73275000D01*
X109165000Y-73275000D02*
X116411200Y-80521200D01*
%TO.N,/GPIO_4*%
X105325000Y-70775000D02*
X109205000Y-70775000D01*
X109205000Y-70775000D02*
X116411200Y-77981200D01*
%TO.N,/GPIO_3*%
X105325000Y-68275000D02*
X109245000Y-68275000D01*
X109245000Y-68275000D02*
X116411200Y-75441200D01*
%TO.N,/GPIO_2*%
X105325000Y-65775000D02*
X109285000Y-65775000D01*
X109285000Y-65775000D02*
X116411200Y-72901200D01*
%TD*%
%TA.AperFunction,Conductor*%
%TO.N,GND*%
G36*
X141082652Y-99981496D02*
G01*
X141138585Y-100023368D01*
X141163002Y-100088832D01*
X141162846Y-100108485D01*
X141144341Y-100319998D01*
X141144341Y-100320000D01*
X141164936Y-100555403D01*
X141164938Y-100555413D01*
X141226094Y-100783655D01*
X141226096Y-100783659D01*
X141226097Y-100783663D01*
X141274720Y-100887934D01*
X141325965Y-100997830D01*
X141325967Y-100997834D01*
X141461501Y-101191395D01*
X141461506Y-101191402D01*
X141628597Y-101358493D01*
X141628603Y-101358498D01*
X141814158Y-101488425D01*
X141857783Y-101543002D01*
X141864977Y-101612500D01*
X141833454Y-101674855D01*
X141814158Y-101691575D01*
X141628597Y-101821505D01*
X141461505Y-101988597D01*
X141325965Y-102182169D01*
X141325964Y-102182171D01*
X141226098Y-102396335D01*
X141226094Y-102396344D01*
X141164938Y-102624586D01*
X141164936Y-102624596D01*
X141144341Y-102859999D01*
X141144341Y-102860000D01*
X141164936Y-103095403D01*
X141164938Y-103095413D01*
X141226094Y-103323655D01*
X141226096Y-103323659D01*
X141226097Y-103323663D01*
X141298344Y-103478597D01*
X141325965Y-103537830D01*
X141325967Y-103537834D01*
X141461501Y-103731395D01*
X141461506Y-103731402D01*
X141628597Y-103898493D01*
X141628603Y-103898498D01*
X141814158Y-104028425D01*
X141857783Y-104083002D01*
X141864977Y-104152500D01*
X141833454Y-104214855D01*
X141814158Y-104231575D01*
X141628597Y-104361505D01*
X141461505Y-104528597D01*
X141325965Y-104722169D01*
X141325964Y-104722171D01*
X141226098Y-104936335D01*
X141226094Y-104936344D01*
X141164938Y-105164586D01*
X141164936Y-105164596D01*
X141144341Y-105399999D01*
X141144341Y-105400000D01*
X141164936Y-105635403D01*
X141164938Y-105635413D01*
X141226094Y-105863655D01*
X141226096Y-105863659D01*
X141226097Y-105863663D01*
X141314879Y-106054055D01*
X141325965Y-106077830D01*
X141325967Y-106077834D01*
X141416260Y-106206784D01*
X141461505Y-106271401D01*
X141628599Y-106438495D01*
X141725384Y-106506265D01*
X141822165Y-106574032D01*
X141822167Y-106574033D01*
X141822170Y-106574035D01*
X141988725Y-106651701D01*
X142041163Y-106697872D01*
X142060315Y-106765066D01*
X142040099Y-106831947D01*
X142024000Y-106851763D01*
X135971384Y-112904381D01*
X135910061Y-112937866D01*
X135883703Y-112940700D01*
X135569699Y-112940700D01*
X135502660Y-112921015D01*
X135456905Y-112868211D01*
X135445699Y-112816700D01*
X135445699Y-112739329D01*
X135445698Y-112739323D01*
X135445697Y-112739316D01*
X135439291Y-112679717D01*
X135388996Y-112544869D01*
X135388995Y-112544868D01*
X135388993Y-112544864D01*
X135302747Y-112429655D01*
X135302744Y-112429652D01*
X135223682Y-112370466D01*
X135181811Y-112314533D01*
X135176827Y-112244841D01*
X135210313Y-112183518D01*
X135223682Y-112171934D01*
X135268615Y-112138296D01*
X135302746Y-112112746D01*
X135388996Y-111997531D01*
X135439291Y-111862683D01*
X135445700Y-111803073D01*
X135445699Y-110199328D01*
X135439291Y-110139717D01*
X135388996Y-110004869D01*
X135388995Y-110004868D01*
X135388993Y-110004864D01*
X135302747Y-109889655D01*
X135223264Y-109830153D01*
X135181394Y-109774219D01*
X135176410Y-109704527D01*
X135209896Y-109643204D01*
X135223265Y-109631620D01*
X135302391Y-109572386D01*
X135388550Y-109457293D01*
X135388554Y-109457286D01*
X135438796Y-109322579D01*
X135438798Y-109322572D01*
X135445199Y-109263044D01*
X135445200Y-109263027D01*
X135445200Y-108711200D01*
X134624212Y-108711200D01*
X134657125Y-108654193D01*
X134691200Y-108527026D01*
X134691200Y-108395374D01*
X134657125Y-108268207D01*
X134624212Y-108211200D01*
X135445200Y-108211200D01*
X135445200Y-107659372D01*
X135445199Y-107659355D01*
X135438798Y-107599827D01*
X135438796Y-107599820D01*
X135388554Y-107465113D01*
X135388550Y-107465106D01*
X135302390Y-107350012D01*
X135302387Y-107350009D01*
X135223265Y-107290778D01*
X135181394Y-107234844D01*
X135176410Y-107165153D01*
X135209896Y-107103830D01*
X135223264Y-107092246D01*
X135302746Y-107032746D01*
X135388996Y-106917531D01*
X135439291Y-106782683D01*
X135445700Y-106723073D01*
X135445699Y-105567295D01*
X135465384Y-105500257D01*
X135482013Y-105479620D01*
X140951639Y-100009995D01*
X141012960Y-99976512D01*
X141082652Y-99981496D01*
G37*
%TD.AperFunction*%
%TA.AperFunction,Conductor*%
G36*
X112984427Y-98263662D02*
G01*
X114090174Y-99369410D01*
X115120381Y-100399617D01*
X115153866Y-100460940D01*
X115156700Y-100487298D01*
X115156700Y-101643070D01*
X115156701Y-101643076D01*
X115163108Y-101702683D01*
X115213402Y-101837528D01*
X115213406Y-101837535D01*
X115299652Y-101952744D01*
X115299653Y-101952744D01*
X115299654Y-101952746D01*
X115333999Y-101978457D01*
X115378718Y-102011934D01*
X115420588Y-102067868D01*
X115425572Y-102137560D01*
X115392086Y-102198883D01*
X115378718Y-102210466D01*
X115299652Y-102269655D01*
X115213406Y-102384864D01*
X115213402Y-102384871D01*
X115163108Y-102519717D01*
X115156701Y-102579316D01*
X115156701Y-102579323D01*
X115156700Y-102579335D01*
X115156700Y-104183070D01*
X115156701Y-104183076D01*
X115163108Y-104242683D01*
X115213402Y-104377528D01*
X115213406Y-104377535D01*
X115299652Y-104492744D01*
X115299653Y-104492744D01*
X115299654Y-104492746D01*
X115333999Y-104518457D01*
X115378718Y-104551934D01*
X115420588Y-104607868D01*
X115425572Y-104677560D01*
X115392086Y-104738883D01*
X115378718Y-104750466D01*
X115299652Y-104809655D01*
X115213406Y-104924864D01*
X115213402Y-104924871D01*
X115163108Y-105059717D01*
X115156701Y-105119316D01*
X115156701Y-105119323D01*
X115156700Y-105119335D01*
X115156700Y-105196700D01*
X115137015Y-105263739D01*
X115084211Y-105309494D01*
X115032700Y-105320700D01*
X110846297Y-105320700D01*
X110779258Y-105301015D01*
X110758616Y-105284381D01*
X110307766Y-104833531D01*
X110274281Y-104772208D01*
X110275672Y-104713757D01*
X110285371Y-104677560D01*
X110310063Y-104585408D01*
X110330659Y-104350000D01*
X110310063Y-104114592D01*
X110263626Y-103941285D01*
X110248905Y-103886344D01*
X110248904Y-103886343D01*
X110248903Y-103886337D01*
X110149035Y-103672171D01*
X110125997Y-103639268D01*
X110013494Y-103478597D01*
X109846402Y-103311506D01*
X109846396Y-103311501D01*
X109660842Y-103181575D01*
X109617217Y-103126998D01*
X109610023Y-103057500D01*
X109641546Y-102995145D01*
X109660842Y-102978425D01*
X109829970Y-102860000D01*
X109846401Y-102848495D01*
X110013495Y-102681401D01*
X110149035Y-102487830D01*
X110218373Y-102339132D01*
X110255273Y-102293160D01*
X110258703Y-102290527D01*
X110258716Y-102290520D01*
X110370520Y-102178716D01*
X110370520Y-102178714D01*
X110380724Y-102168511D01*
X110380728Y-102168506D01*
X112043535Y-100505698D01*
X112104856Y-100472215D01*
X112117311Y-100470163D01*
X112204255Y-100460368D01*
X112374522Y-100400789D01*
X112527262Y-100304816D01*
X112654816Y-100177262D01*
X112750789Y-100024522D01*
X112810368Y-99854255D01*
X112810369Y-99854249D01*
X112830565Y-99675003D01*
X112830565Y-99674996D01*
X112810369Y-99495750D01*
X112810368Y-99495745D01*
X112771395Y-99384366D01*
X112750789Y-99325478D01*
X112654816Y-99172738D01*
X112527262Y-99045184D01*
X112522338Y-99040260D01*
X112523865Y-99038732D01*
X112489694Y-98990042D01*
X112486848Y-98920231D01*
X112519465Y-98862612D01*
X112604816Y-98777262D01*
X112700789Y-98624522D01*
X112760368Y-98454255D01*
X112773527Y-98337461D01*
X112800593Y-98273047D01*
X112858187Y-98233492D01*
X112928024Y-98231353D01*
X112984427Y-98263662D01*
G37*
%TD.AperFunction*%
%TA.AperFunction,Conductor*%
G36*
X141068834Y-84962914D02*
G01*
X141124767Y-85004786D01*
X141149184Y-85070250D01*
X141149500Y-85079096D01*
X141149500Y-85977870D01*
X141149501Y-85977876D01*
X141155908Y-86037483D01*
X141206202Y-86172328D01*
X141206206Y-86172335D01*
X141292452Y-86287544D01*
X141292455Y-86287547D01*
X141407664Y-86373793D01*
X141407671Y-86373797D01*
X141539081Y-86422810D01*
X141595015Y-86464681D01*
X141619432Y-86530145D01*
X141604580Y-86598418D01*
X141583430Y-86626673D01*
X141461503Y-86748600D01*
X141325965Y-86942169D01*
X141325964Y-86942171D01*
X141226098Y-87156335D01*
X141226094Y-87156344D01*
X141164938Y-87384586D01*
X141164936Y-87384596D01*
X141144341Y-87619999D01*
X141144341Y-87620000D01*
X141164936Y-87855403D01*
X141164938Y-87855413D01*
X141226094Y-88083655D01*
X141226096Y-88083659D01*
X141226097Y-88083663D01*
X141254605Y-88144798D01*
X141325965Y-88297830D01*
X141325967Y-88297834D01*
X141358037Y-88343634D01*
X141461505Y-88491401D01*
X141628599Y-88658495D01*
X141812764Y-88787449D01*
X141814594Y-88788730D01*
X141858219Y-88843307D01*
X141865413Y-88912805D01*
X141833890Y-88975160D01*
X141814595Y-88991880D01*
X141628922Y-89121890D01*
X141628920Y-89121891D01*
X141461891Y-89288920D01*
X141461886Y-89288926D01*
X141326400Y-89482420D01*
X141326399Y-89482422D01*
X141226570Y-89696507D01*
X141226567Y-89696513D01*
X141169364Y-89909999D01*
X141169364Y-89910000D01*
X142066988Y-89910000D01*
X142034075Y-89967007D01*
X142000000Y-90094174D01*
X142000000Y-90225826D01*
X142034075Y-90352993D01*
X142066988Y-90410000D01*
X141169364Y-90410000D01*
X141226567Y-90623486D01*
X141226570Y-90623492D01*
X141326399Y-90837578D01*
X141461894Y-91031082D01*
X141628917Y-91198105D01*
X141814595Y-91328119D01*
X141858219Y-91382696D01*
X141865412Y-91452195D01*
X141833890Y-91514549D01*
X141814595Y-91531269D01*
X141628594Y-91661508D01*
X141461505Y-91828597D01*
X141325965Y-92022169D01*
X141325964Y-92022171D01*
X141226098Y-92236335D01*
X141226094Y-92236344D01*
X141164938Y-92464586D01*
X141164936Y-92464596D01*
X141144341Y-92699999D01*
X141144341Y-92700000D01*
X141164936Y-92935403D01*
X141164938Y-92935413D01*
X141199327Y-93063756D01*
X141197664Y-93133606D01*
X141167233Y-93183530D01*
X140315707Y-94035057D01*
X139481286Y-94869478D01*
X139481284Y-94869480D01*
X139451012Y-94899752D01*
X139369481Y-94981282D01*
X139369480Y-94981284D01*
X139353932Y-95008215D01*
X139290423Y-95118215D01*
X139249499Y-95270943D01*
X139249499Y-95270945D01*
X139249499Y-95439046D01*
X139249500Y-95439059D01*
X139249500Y-98442587D01*
X139229815Y-98509626D01*
X139222450Y-98519896D01*
X139220186Y-98522734D01*
X139124211Y-98675476D01*
X139064631Y-98845745D01*
X139064630Y-98845750D01*
X139044435Y-99024996D01*
X139044435Y-99025003D01*
X139064630Y-99204249D01*
X139064631Y-99204254D01*
X139124211Y-99374523D01*
X139220184Y-99527262D01*
X139347737Y-99654815D01*
X139347740Y-99654817D01*
X139376126Y-99672654D01*
X139422417Y-99724989D01*
X139433064Y-99794043D01*
X139404688Y-99857891D01*
X139397834Y-99865328D01*
X135657380Y-103605783D01*
X135596057Y-103639268D01*
X135526365Y-103634284D01*
X135470432Y-103592412D01*
X135446015Y-103526948D01*
X135445699Y-103518102D01*
X135445699Y-102579329D01*
X135445698Y-102579323D01*
X135445697Y-102579316D01*
X135439291Y-102519717D01*
X135427399Y-102487834D01*
X135388997Y-102384871D01*
X135388993Y-102384864D01*
X135302747Y-102269655D01*
X135302744Y-102269652D01*
X135223682Y-102210466D01*
X135181811Y-102154533D01*
X135176827Y-102084841D01*
X135210313Y-102023518D01*
X135223682Y-102011934D01*
X135268615Y-101978296D01*
X135302746Y-101952746D01*
X135388996Y-101837531D01*
X135439291Y-101702683D01*
X135445700Y-101643073D01*
X135445699Y-100039328D01*
X135439291Y-99979717D01*
X135427399Y-99947834D01*
X135388997Y-99844871D01*
X135388993Y-99844864D01*
X135302747Y-99729655D01*
X135302744Y-99729652D01*
X135223682Y-99670466D01*
X135181811Y-99614533D01*
X135176827Y-99544841D01*
X135210313Y-99483518D01*
X135223682Y-99471934D01*
X135268615Y-99438296D01*
X135302746Y-99412746D01*
X135388996Y-99297531D01*
X135439291Y-99162683D01*
X135445700Y-99103073D01*
X135445699Y-97947295D01*
X135465384Y-97880257D01*
X135482013Y-97859620D01*
X135813913Y-97527721D01*
X135813916Y-97527720D01*
X135925720Y-97415916D01*
X135975839Y-97329104D01*
X136004777Y-97278985D01*
X136045701Y-97126257D01*
X136045701Y-96968142D01*
X136045701Y-96960547D01*
X136045700Y-96960529D01*
X136045700Y-89934897D01*
X136065385Y-89867858D01*
X136082019Y-89847216D01*
X138499649Y-87429586D01*
X140937821Y-84991413D01*
X140999142Y-84957930D01*
X141068834Y-84962914D01*
G37*
%TD.AperFunction*%
%TA.AperFunction,Conductor*%
G36*
X106591163Y-76646245D02*
G01*
X106635511Y-76674746D01*
X115120381Y-85159616D01*
X115153866Y-85220939D01*
X115156700Y-85247297D01*
X115156700Y-85738103D01*
X115137015Y-85805142D01*
X115084211Y-85850897D01*
X115015053Y-85860841D01*
X114951497Y-85831816D01*
X114945019Y-85825784D01*
X107032590Y-77913355D01*
X107032588Y-77913352D01*
X106913717Y-77794481D01*
X106913716Y-77794480D01*
X106826904Y-77744360D01*
X106826904Y-77744359D01*
X106826900Y-77744358D01*
X106776785Y-77715423D01*
X106776784Y-77715422D01*
X106776783Y-77715422D01*
X106776782Y-77715421D01*
X106718697Y-77699857D01*
X106659037Y-77663492D01*
X106640307Y-77636378D01*
X106605048Y-77567179D01*
X106480109Y-77395213D01*
X106329792Y-77244896D01*
X106239554Y-77179335D01*
X106165204Y-77125316D01*
X106122540Y-77069989D01*
X106116561Y-77000376D01*
X106149166Y-76938580D01*
X106165199Y-76924686D01*
X106329792Y-76805104D01*
X106460152Y-76674743D01*
X106521471Y-76641261D01*
X106591163Y-76646245D01*
G37*
%TD.AperFunction*%
%TA.AperFunction,Conductor*%
G36*
X108931942Y-73895185D02*
G01*
X108952584Y-73911819D01*
X115120381Y-80079616D01*
X115153866Y-80140939D01*
X115156700Y-80167297D01*
X115156700Y-81323070D01*
X115156701Y-81323076D01*
X115163108Y-81382683D01*
X115213402Y-81517528D01*
X115213406Y-81517535D01*
X115299652Y-81632744D01*
X115299653Y-81632744D01*
X115299654Y-81632746D01*
X115339978Y-81662932D01*
X115379135Y-81692246D01*
X115421005Y-81748180D01*
X115425989Y-81817872D01*
X115392503Y-81879194D01*
X115379135Y-81890778D01*
X115300009Y-81950012D01*
X115213849Y-82065106D01*
X115213845Y-82065113D01*
X115163603Y-82199820D01*
X115163601Y-82199827D01*
X115157200Y-82259355D01*
X115157200Y-82811200D01*
X115978188Y-82811200D01*
X115945275Y-82868207D01*
X115911200Y-82995374D01*
X115911200Y-83127026D01*
X115945275Y-83254193D01*
X115978188Y-83311200D01*
X115157199Y-83311200D01*
X115151497Y-83316902D01*
X115090174Y-83350387D01*
X115020482Y-83345401D01*
X114976136Y-83316901D01*
X107072590Y-75413355D01*
X107072588Y-75413352D01*
X106953717Y-75294481D01*
X106953716Y-75294480D01*
X106853935Y-75236872D01*
X106853934Y-75236871D01*
X106816783Y-75215422D01*
X106752647Y-75198237D01*
X106712373Y-75187445D01*
X106652714Y-75151081D01*
X106633983Y-75123966D01*
X106615299Y-75087297D01*
X106605051Y-75067184D01*
X106597023Y-75056134D01*
X106480109Y-74895213D01*
X106329792Y-74744896D01*
X106224243Y-74668211D01*
X106165204Y-74625316D01*
X106122540Y-74569989D01*
X106116561Y-74500376D01*
X106149166Y-74438580D01*
X106165199Y-74424686D01*
X106329792Y-74305104D01*
X106480104Y-74154792D01*
X106480106Y-74154788D01*
X106480109Y-74154786D01*
X106583305Y-74012747D01*
X106605051Y-73982816D01*
X106605349Y-73982230D01*
X106625235Y-73943205D01*
X106673209Y-73892409D01*
X106735719Y-73875500D01*
X108864903Y-73875500D01*
X108931942Y-73895185D01*
G37*
%TD.AperFunction*%
%TA.AperFunction,Conductor*%
G36*
X108971942Y-71395185D02*
G01*
X108992583Y-71411818D01*
X115120382Y-77539618D01*
X115153866Y-77600939D01*
X115156700Y-77627297D01*
X115156700Y-78118103D01*
X115137015Y-78185142D01*
X115084211Y-78230897D01*
X115015053Y-78240841D01*
X114951497Y-78211816D01*
X114945019Y-78205784D01*
X109652590Y-72913355D01*
X109652588Y-72913352D01*
X109533717Y-72794481D01*
X109533716Y-72794480D01*
X109446904Y-72744360D01*
X109446904Y-72744359D01*
X109446900Y-72744358D01*
X109396785Y-72715423D01*
X109244057Y-72674499D01*
X109085943Y-72674499D01*
X109078347Y-72674499D01*
X109078331Y-72674500D01*
X106735719Y-72674500D01*
X106668680Y-72654815D01*
X106625235Y-72606795D01*
X106605052Y-72567185D01*
X106605051Y-72567184D01*
X106480109Y-72395213D01*
X106329792Y-72244896D01*
X106329784Y-72244890D01*
X106165204Y-72125316D01*
X106122540Y-72069989D01*
X106116561Y-72000376D01*
X106149166Y-71938580D01*
X106165199Y-71924686D01*
X106329792Y-71805104D01*
X106480104Y-71654792D01*
X106480106Y-71654788D01*
X106480109Y-71654786D01*
X106548029Y-71561300D01*
X106605051Y-71482816D01*
X106605349Y-71482230D01*
X106625235Y-71443205D01*
X106673209Y-71392409D01*
X106735719Y-71375500D01*
X108904903Y-71375500D01*
X108971942Y-71395185D01*
G37*
%TD.AperFunction*%
%TA.AperFunction,Conductor*%
G36*
X109011942Y-68895185D02*
G01*
X109032584Y-68911819D01*
X115120381Y-74999616D01*
X115153866Y-75060939D01*
X115156700Y-75087297D01*
X115156700Y-75578103D01*
X115137015Y-75645142D01*
X115084211Y-75690897D01*
X115015053Y-75700841D01*
X114951497Y-75671816D01*
X114945019Y-75665784D01*
X109692590Y-70413355D01*
X109692588Y-70413352D01*
X109573717Y-70294481D01*
X109573716Y-70294480D01*
X109482552Y-70241847D01*
X109436785Y-70215423D01*
X109284057Y-70174499D01*
X109125943Y-70174499D01*
X109118347Y-70174499D01*
X109118331Y-70174500D01*
X106735719Y-70174500D01*
X106668680Y-70154815D01*
X106625235Y-70106795D01*
X106605052Y-70067185D01*
X106605051Y-70067184D01*
X106480109Y-69895213D01*
X106329792Y-69744896D01*
X106326772Y-69742702D01*
X106165204Y-69625316D01*
X106122540Y-69569989D01*
X106116561Y-69500376D01*
X106149166Y-69438580D01*
X106165199Y-69424686D01*
X106329792Y-69305104D01*
X106480104Y-69154792D01*
X106480106Y-69154788D01*
X106480109Y-69154786D01*
X106545230Y-69065153D01*
X106605051Y-68982816D01*
X106605349Y-68982230D01*
X106625235Y-68943205D01*
X106673209Y-68892409D01*
X106735719Y-68875500D01*
X108944903Y-68875500D01*
X109011942Y-68895185D01*
G37*
%TD.AperFunction*%
%TA.AperFunction,Conductor*%
G36*
X109051942Y-66395185D02*
G01*
X109072583Y-66411818D01*
X115120382Y-72459618D01*
X115153866Y-72520939D01*
X115156700Y-72547297D01*
X115156700Y-73038103D01*
X115137015Y-73105142D01*
X115084211Y-73150897D01*
X115015053Y-73160841D01*
X114951497Y-73131816D01*
X114945019Y-73125784D01*
X109732590Y-67913355D01*
X109732588Y-67913352D01*
X109613717Y-67794481D01*
X109613716Y-67794480D01*
X109526904Y-67744360D01*
X109526904Y-67744359D01*
X109526900Y-67744358D01*
X109476785Y-67715423D01*
X109324057Y-67674499D01*
X109165943Y-67674499D01*
X109158347Y-67674499D01*
X109158331Y-67674500D01*
X106735719Y-67674500D01*
X106668680Y-67654815D01*
X106625235Y-67606795D01*
X106605052Y-67567185D01*
X106605051Y-67567184D01*
X106480107Y-67395211D01*
X106341294Y-67256398D01*
X106307809Y-67195075D01*
X106312793Y-67125383D01*
X106354665Y-67069450D01*
X106363879Y-67063178D01*
X106369331Y-67059814D01*
X106369334Y-67059814D01*
X106518656Y-66967712D01*
X106642712Y-66843656D01*
X106734814Y-66694334D01*
X106789999Y-66527797D01*
X106794177Y-66486896D01*
X106820573Y-66422207D01*
X106877753Y-66382055D01*
X106917535Y-66375500D01*
X108984903Y-66375500D01*
X109051942Y-66395185D01*
G37*
%TD.AperFunction*%
%TA.AperFunction,Conductor*%
G36*
X109155197Y-58175682D02*
G01*
X109416450Y-58189908D01*
X109429847Y-58191372D01*
X109444134Y-58193724D01*
X109684677Y-58233323D01*
X109697813Y-58236227D01*
X109946589Y-58305596D01*
X109959350Y-58309915D01*
X110199114Y-58405873D01*
X110211330Y-58411551D01*
X110439264Y-58532972D01*
X110450799Y-58539946D01*
X110664200Y-58685386D01*
X110674910Y-58693573D01*
X110871258Y-58861316D01*
X110881010Y-58870609D01*
X111024818Y-59023426D01*
X111058000Y-59058687D01*
X111066691Y-59068992D01*
X111223658Y-59277079D01*
X111227570Y-59282570D01*
X111234539Y-59292936D01*
X111234543Y-59292941D01*
X112473184Y-61135550D01*
X112510370Y-61190867D01*
X112510676Y-61191264D01*
X112564758Y-61271756D01*
X112564769Y-61271771D01*
X112782708Y-61536053D01*
X112782717Y-61536063D01*
X112782719Y-61536065D01*
X113025440Y-61777824D01*
X113192104Y-61914155D01*
X113290607Y-61994731D01*
X113575677Y-62184707D01*
X113575683Y-62184710D01*
X113877946Y-62345949D01*
X113877951Y-62345951D01*
X114194492Y-62476900D01*
X114194502Y-62476903D01*
X114194508Y-62476906D01*
X114522344Y-62576329D01*
X114858320Y-62643269D01*
X115199227Y-62677085D01*
X115366543Y-62677234D01*
X115367960Y-62677235D01*
X115370517Y-62677238D01*
X115370517Y-62677239D01*
X115389320Y-62677258D01*
X115389321Y-62677259D01*
X115389322Y-62677259D01*
X135174327Y-62698810D01*
X135174338Y-62698811D01*
X135184293Y-62698821D01*
X135184294Y-62698822D01*
X135250186Y-62698894D01*
X135255469Y-62698898D01*
X135255507Y-62698910D01*
X135255508Y-62698899D01*
X135316078Y-62698965D01*
X135316081Y-62698963D01*
X135324535Y-62698973D01*
X135324676Y-62698964D01*
X135405138Y-62699040D01*
X135410179Y-62699045D01*
X135410179Y-62699044D01*
X135410186Y-62699045D01*
X135728883Y-62670200D01*
X136043620Y-62612401D01*
X136351772Y-62526132D01*
X136650770Y-62412111D01*
X136938118Y-62271290D01*
X137211422Y-62104842D01*
X137468403Y-61914155D01*
X137706916Y-61700821D01*
X137924973Y-61466618D01*
X137977130Y-61399204D01*
X137977241Y-61399081D01*
X137982566Y-61392195D01*
X137982569Y-61392194D01*
X138067878Y-61281902D01*
X176224500Y-61281902D01*
X176224500Y-61518097D01*
X176261446Y-61751368D01*
X176334433Y-61975996D01*
X176400085Y-62104844D01*
X176441657Y-62186433D01*
X176580483Y-62377510D01*
X176747490Y-62544517D01*
X176938567Y-62683343D01*
X177037991Y-62734002D01*
X177149003Y-62790566D01*
X177149005Y-62790566D01*
X177149008Y-62790568D01*
X177269412Y-62829689D01*
X177373631Y-62863553D01*
X177606903Y-62900500D01*
X177606908Y-62900500D01*
X177843097Y-62900500D01*
X178076368Y-62863553D01*
X178300992Y-62790568D01*
X178511433Y-62683343D01*
X178702510Y-62544517D01*
X178869517Y-62377510D01*
X179008343Y-62186433D01*
X179115568Y-61975992D01*
X179188553Y-61751368D01*
X179196559Y-61700821D01*
X179225500Y-61518097D01*
X179225500Y-61281902D01*
X179188553Y-61048631D01*
X179115566Y-60824003D01*
X179041555Y-60678750D01*
X179008343Y-60613567D01*
X178869517Y-60422490D01*
X178702510Y-60255483D01*
X178511433Y-60116657D01*
X178462368Y-60091657D01*
X178300996Y-60009433D01*
X178076368Y-59936446D01*
X177843097Y-59899500D01*
X177843092Y-59899500D01*
X177606908Y-59899500D01*
X177606903Y-59899500D01*
X177373631Y-59936446D01*
X177149003Y-60009433D01*
X176938566Y-60116657D01*
X176877878Y-60160750D01*
X176747490Y-60255483D01*
X176747488Y-60255485D01*
X176747487Y-60255485D01*
X176580485Y-60422487D01*
X176580485Y-60422488D01*
X176580483Y-60422490D01*
X176521966Y-60503031D01*
X176441657Y-60613566D01*
X176334433Y-60824003D01*
X176261446Y-61048631D01*
X176224500Y-61281902D01*
X138067878Y-61281902D01*
X139718000Y-59148528D01*
X139722449Y-59143104D01*
X139902396Y-58936021D01*
X139912243Y-58925915D01*
X140111970Y-58743053D01*
X140122898Y-58734137D01*
X140342138Y-58575193D01*
X140354022Y-58567572D01*
X140589915Y-58434615D01*
X140602595Y-58428393D01*
X140852094Y-58323142D01*
X140865376Y-58318412D01*
X141125238Y-58242238D01*
X141138991Y-58239045D01*
X141405824Y-58192941D01*
X141419842Y-58191335D01*
X141693592Y-58175702D01*
X141700662Y-58175500D01*
X179459108Y-58175500D01*
X179521249Y-58175500D01*
X179528736Y-58175726D01*
X179818796Y-58193271D01*
X179833659Y-58195076D01*
X180115798Y-58246780D01*
X180130335Y-58250363D01*
X180404172Y-58335695D01*
X180418163Y-58341000D01*
X180679743Y-58458727D01*
X180692989Y-58465680D01*
X180938465Y-58614075D01*
X180950776Y-58622573D01*
X181104576Y-58743067D01*
X181176573Y-58799473D01*
X181187781Y-58809403D01*
X181390596Y-59012218D01*
X181400526Y-59023426D01*
X181520481Y-59176538D01*
X181577422Y-59249217D01*
X181585926Y-59261537D01*
X181726633Y-59494295D01*
X181734316Y-59507004D01*
X181741275Y-59520263D01*
X181858997Y-59781831D01*
X181864306Y-59795832D01*
X181949635Y-60069663D01*
X181953219Y-60084201D01*
X182004923Y-60366340D01*
X182006728Y-60381205D01*
X182024274Y-60671263D01*
X182024500Y-60678750D01*
X182024500Y-115746249D01*
X182024274Y-115753736D01*
X182006728Y-116043794D01*
X182004923Y-116058659D01*
X181953219Y-116340798D01*
X181949635Y-116355336D01*
X181864306Y-116629167D01*
X181858997Y-116643168D01*
X181741275Y-116904736D01*
X181734316Y-116917995D01*
X181585928Y-117163459D01*
X181577422Y-117175782D01*
X181400526Y-117401573D01*
X181390596Y-117412781D01*
X181187781Y-117615596D01*
X181176573Y-117625526D01*
X180950782Y-117802422D01*
X180938459Y-117810928D01*
X180692995Y-117959316D01*
X180679736Y-117966275D01*
X180418168Y-118083997D01*
X180404167Y-118089306D01*
X180130336Y-118174635D01*
X180115798Y-118178219D01*
X179833659Y-118229923D01*
X179818794Y-118231728D01*
X179528736Y-118249274D01*
X179521249Y-118249500D01*
X93028751Y-118249500D01*
X93021264Y-118249274D01*
X92731205Y-118231728D01*
X92716340Y-118229923D01*
X92434201Y-118178219D01*
X92419663Y-118174635D01*
X92145832Y-118089306D01*
X92131831Y-118083997D01*
X91870263Y-117966275D01*
X91857004Y-117959316D01*
X91611540Y-117810928D01*
X91599217Y-117802422D01*
X91373426Y-117625526D01*
X91362218Y-117615596D01*
X91159403Y-117412781D01*
X91149473Y-117401573D01*
X90972573Y-117175776D01*
X90964075Y-117163465D01*
X90815680Y-116917989D01*
X90808727Y-116904743D01*
X90691000Y-116643163D01*
X90685693Y-116629167D01*
X90600364Y-116355336D01*
X90596780Y-116340798D01*
X90545076Y-116058659D01*
X90543271Y-116043794D01*
X90525726Y-115753736D01*
X90525500Y-115746249D01*
X90525500Y-114681902D01*
X92174500Y-114681902D01*
X92174500Y-114918097D01*
X92211446Y-115151368D01*
X92284433Y-115375996D01*
X92374979Y-115553701D01*
X92391657Y-115586433D01*
X92530483Y-115777510D01*
X92697490Y-115944517D01*
X92888567Y-116083343D01*
X92987991Y-116134002D01*
X93099003Y-116190566D01*
X93099005Y-116190566D01*
X93099008Y-116190568D01*
X93175944Y-116215566D01*
X93323631Y-116263553D01*
X93556903Y-116300500D01*
X93556908Y-116300500D01*
X93793097Y-116300500D01*
X94026368Y-116263553D01*
X94250992Y-116190568D01*
X94461433Y-116083343D01*
X94652510Y-115944517D01*
X94819517Y-115777510D01*
X94958343Y-115586433D01*
X95065568Y-115375992D01*
X95138553Y-115151368D01*
X95152405Y-115063909D01*
X95175500Y-114918097D01*
X95175500Y-114681902D01*
X95138553Y-114448631D01*
X95065566Y-114224003D01*
X94998238Y-114091866D01*
X94958343Y-114013567D01*
X94819517Y-113822490D01*
X94652510Y-113655483D01*
X94461433Y-113516657D01*
X94250996Y-113409433D01*
X94026368Y-113336446D01*
X93793097Y-113299500D01*
X93793092Y-113299500D01*
X93556908Y-113299500D01*
X93556903Y-113299500D01*
X93323631Y-113336446D01*
X93099003Y-113409433D01*
X92888566Y-113516657D01*
X92779550Y-113595862D01*
X92697490Y-113655483D01*
X92697488Y-113655485D01*
X92697487Y-113655485D01*
X92530485Y-113822487D01*
X92530485Y-113822488D01*
X92530483Y-113822490D01*
X92477727Y-113895102D01*
X92391657Y-114013566D01*
X92284433Y-114224003D01*
X92211446Y-114448631D01*
X92174500Y-114681902D01*
X90525500Y-114681902D01*
X90525500Y-65124983D01*
X103849500Y-65124983D01*
X103849500Y-66425001D01*
X103849501Y-66425018D01*
X103860000Y-66527796D01*
X103860001Y-66527799D01*
X103915185Y-66694331D01*
X103915186Y-66694334D01*
X103995701Y-66824871D01*
X104007289Y-66843657D01*
X104131344Y-66967712D01*
X104286120Y-67063178D01*
X104332845Y-67115126D01*
X104344068Y-67184088D01*
X104316224Y-67248171D01*
X104308706Y-67256398D01*
X104169889Y-67395215D01*
X104044951Y-67567179D01*
X103948444Y-67756585D01*
X103882753Y-67958760D01*
X103849500Y-68168713D01*
X103849500Y-68381287D01*
X103882754Y-68591243D01*
X103912464Y-68682682D01*
X103948444Y-68793414D01*
X104044951Y-68982820D01*
X104169890Y-69154786D01*
X104320209Y-69305105D01*
X104320214Y-69305109D01*
X104484793Y-69424682D01*
X104527459Y-69480011D01*
X104533438Y-69549625D01*
X104500833Y-69611420D01*
X104484793Y-69625318D01*
X104320214Y-69744890D01*
X104320209Y-69744894D01*
X104169890Y-69895213D01*
X104044951Y-70067179D01*
X103948444Y-70256585D01*
X103882753Y-70458760D01*
X103849500Y-70668713D01*
X103849500Y-70881286D01*
X103875549Y-71045756D01*
X103882754Y-71091243D01*
X103902986Y-71153511D01*
X103948444Y-71293414D01*
X104044951Y-71482820D01*
X104169890Y-71654786D01*
X104320209Y-71805105D01*
X104320214Y-71805109D01*
X104484793Y-71924682D01*
X104527459Y-71980011D01*
X104533438Y-72049625D01*
X104500833Y-72111420D01*
X104484793Y-72125318D01*
X104320214Y-72244890D01*
X104320209Y-72244894D01*
X104169890Y-72395213D01*
X104044951Y-72567179D01*
X103948444Y-72756585D01*
X103882753Y-72958760D01*
X103859569Y-73105142D01*
X103849500Y-73168713D01*
X103849500Y-73381287D01*
X103882754Y-73591243D01*
X103938458Y-73762683D01*
X103948444Y-73793414D01*
X104044951Y-73982820D01*
X104169890Y-74154786D01*
X104320209Y-74305105D01*
X104320214Y-74305109D01*
X104484793Y-74424682D01*
X104527459Y-74480011D01*
X104533438Y-74549625D01*
X104500833Y-74611420D01*
X104484793Y-74625318D01*
X104320214Y-74744890D01*
X104320209Y-74744894D01*
X104169890Y-74895213D01*
X104044951Y-75067179D01*
X103948444Y-75256585D01*
X103882753Y-75458760D01*
X103860741Y-75597738D01*
X103849500Y-75668713D01*
X103849500Y-75881287D01*
X103882754Y-76091243D01*
X103935132Y-76252446D01*
X103948444Y-76293414D01*
X104044951Y-76482820D01*
X104169890Y-76654786D01*
X104320209Y-76805105D01*
X104320214Y-76805109D01*
X104484793Y-76924682D01*
X104527459Y-76980011D01*
X104533438Y-77049625D01*
X104500833Y-77111420D01*
X104484793Y-77125318D01*
X104320214Y-77244890D01*
X104320209Y-77244894D01*
X104169890Y-77395213D01*
X104044951Y-77567179D01*
X103948444Y-77756585D01*
X103882753Y-77958760D01*
X103862835Y-78084519D01*
X103849500Y-78168713D01*
X103849500Y-78381287D01*
X103882754Y-78591243D01*
X103945083Y-78783072D01*
X103948444Y-78793414D01*
X104044951Y-78982820D01*
X104169890Y-79154786D01*
X104320209Y-79305105D01*
X104320214Y-79305109D01*
X104485218Y-79424991D01*
X104527884Y-79480320D01*
X104533863Y-79549934D01*
X104501258Y-79611729D01*
X104485218Y-79625627D01*
X104320540Y-79745272D01*
X104320535Y-79745276D01*
X104170276Y-79895535D01*
X104170272Y-79895540D01*
X104045379Y-80067442D01*
X103948904Y-80256782D01*
X103883242Y-80458870D01*
X103883242Y-80458873D01*
X103872769Y-80525000D01*
X104920854Y-80525000D01*
X104882370Y-80591657D01*
X104850000Y-80712465D01*
X104850000Y-80837535D01*
X104882370Y-80958343D01*
X104920854Y-81025000D01*
X103872769Y-81025000D01*
X103883242Y-81091126D01*
X103883242Y-81091129D01*
X103948904Y-81293217D01*
X104045379Y-81482557D01*
X104170272Y-81654459D01*
X104170276Y-81654464D01*
X104320535Y-81804723D01*
X104320540Y-81804727D01*
X104492442Y-81929620D01*
X104681782Y-82026095D01*
X104883872Y-82091757D01*
X105075000Y-82122029D01*
X105075000Y-81179145D01*
X105141657Y-81217630D01*
X105262465Y-81250000D01*
X105387535Y-81250000D01*
X105508343Y-81217630D01*
X105575000Y-81179145D01*
X105575000Y-82122028D01*
X105766127Y-82091757D01*
X105968217Y-82026095D01*
X106157557Y-81929620D01*
X106329459Y-81804727D01*
X106329464Y-81804723D01*
X106479723Y-81654464D01*
X106479727Y-81654459D01*
X106604620Y-81482557D01*
X106701095Y-81293217D01*
X106766757Y-81091129D01*
X106766757Y-81091126D01*
X106777231Y-81025000D01*
X105729146Y-81025000D01*
X105767630Y-80958343D01*
X105800000Y-80837535D01*
X105800000Y-80712465D01*
X105767630Y-80591657D01*
X105729146Y-80525000D01*
X106777231Y-80525000D01*
X106766757Y-80458873D01*
X106766757Y-80458870D01*
X106701095Y-80256782D01*
X106604620Y-80067442D01*
X106479727Y-79895540D01*
X106479723Y-79895535D01*
X106329464Y-79745276D01*
X106329459Y-79745272D01*
X106164781Y-79625627D01*
X106122115Y-79570297D01*
X106116136Y-79500684D01*
X106148741Y-79438889D01*
X106164776Y-79424994D01*
X106329792Y-79305104D01*
X106440152Y-79194743D01*
X106501471Y-79161261D01*
X106571163Y-79166245D01*
X106615511Y-79194746D01*
X115120381Y-87699616D01*
X115153866Y-87760939D01*
X115156700Y-87787297D01*
X115156700Y-88943070D01*
X115156701Y-88943076D01*
X115163108Y-89002683D01*
X115213402Y-89137528D01*
X115213406Y-89137535D01*
X115299652Y-89252744D01*
X115299653Y-89252744D01*
X115299654Y-89252746D01*
X115333999Y-89278457D01*
X115378718Y-89311934D01*
X115420588Y-89367868D01*
X115425572Y-89437560D01*
X115392086Y-89498883D01*
X115378718Y-89510466D01*
X115299652Y-89569655D01*
X115213406Y-89684864D01*
X115213402Y-89684871D01*
X115163108Y-89819717D01*
X115160152Y-89847216D01*
X115156701Y-89879323D01*
X115156700Y-89879335D01*
X115156700Y-91483070D01*
X115156701Y-91483076D01*
X115163108Y-91542683D01*
X115213402Y-91677528D01*
X115213406Y-91677535D01*
X115299652Y-91792744D01*
X115299653Y-91792744D01*
X115299654Y-91792746D01*
X115333999Y-91818457D01*
X115378718Y-91851934D01*
X115420588Y-91907868D01*
X115425572Y-91977560D01*
X115392086Y-92038883D01*
X115378718Y-92050466D01*
X115299652Y-92109655D01*
X115213406Y-92224864D01*
X115213402Y-92224871D01*
X115163108Y-92359717D01*
X115156701Y-92419316D01*
X115156701Y-92419323D01*
X115156700Y-92419335D01*
X115156700Y-94023070D01*
X115156701Y-94023076D01*
X115163108Y-94082683D01*
X115213402Y-94217528D01*
X115213406Y-94217535D01*
X115299652Y-94332744D01*
X115299653Y-94332744D01*
X115299654Y-94332746D01*
X115339978Y-94362932D01*
X115379135Y-94392246D01*
X115421005Y-94448180D01*
X115425989Y-94517872D01*
X115392503Y-94579194D01*
X115379135Y-94590778D01*
X115300009Y-94650012D01*
X115213849Y-94765106D01*
X115213845Y-94765113D01*
X115163603Y-94899820D01*
X115163601Y-94899827D01*
X115157200Y-94959355D01*
X115157200Y-95511200D01*
X115978188Y-95511200D01*
X115945275Y-95568207D01*
X115911200Y-95695374D01*
X115911200Y-95827026D01*
X115945275Y-95954193D01*
X115978188Y-96011200D01*
X115157200Y-96011200D01*
X115157200Y-96563044D01*
X115163601Y-96622572D01*
X115163603Y-96622579D01*
X115213845Y-96757286D01*
X115213849Y-96757293D01*
X115300009Y-96872386D01*
X115379134Y-96931620D01*
X115421005Y-96987554D01*
X115425989Y-97057246D01*
X115392504Y-97118569D01*
X115379135Y-97130153D01*
X115299652Y-97189655D01*
X115213406Y-97304864D01*
X115213402Y-97304871D01*
X115163108Y-97439717D01*
X115159622Y-97472147D01*
X115156701Y-97499323D01*
X115156700Y-97499335D01*
X115156700Y-98438103D01*
X115137015Y-98505142D01*
X115084211Y-98550897D01*
X115015053Y-98560841D01*
X114951497Y-98531816D01*
X114945019Y-98525784D01*
X112787590Y-96368355D01*
X112787588Y-96368352D01*
X112668717Y-96249481D01*
X112668716Y-96249480D01*
X112581904Y-96199360D01*
X112581904Y-96199359D01*
X112581900Y-96199358D01*
X112531785Y-96170423D01*
X112379057Y-96129499D01*
X112220943Y-96129499D01*
X112213347Y-96129499D01*
X112213331Y-96129500D01*
X110264091Y-96129500D01*
X110197052Y-96109815D01*
X110151711Y-96057909D01*
X110149037Y-96052175D01*
X110149034Y-96052170D01*
X110149033Y-96052169D01*
X110013495Y-95858599D01*
X110013494Y-95858597D01*
X109846402Y-95691506D01*
X109846396Y-95691501D01*
X109660842Y-95561575D01*
X109617217Y-95506998D01*
X109610023Y-95437500D01*
X109641546Y-95375145D01*
X109660842Y-95358425D01*
X109751029Y-95295275D01*
X109846401Y-95228495D01*
X110013495Y-95061401D01*
X110096136Y-94943376D01*
X110150713Y-94899752D01*
X110197711Y-94890500D01*
X110246077Y-94890500D01*
X110360043Y-94867830D01*
X110381409Y-94863580D01*
X110445150Y-94837177D01*
X110508888Y-94810777D01*
X110508889Y-94810776D01*
X110508892Y-94810775D01*
X110623624Y-94734114D01*
X111969114Y-93388624D01*
X112045775Y-93273892D01*
X112098580Y-93146409D01*
X112120882Y-93034292D01*
X112125500Y-93011077D01*
X112125500Y-86475493D01*
X112144508Y-86409519D01*
X112150787Y-86399525D01*
X112150786Y-86399525D01*
X112150789Y-86399522D01*
X112210368Y-86229255D01*
X112211711Y-86217335D01*
X112230565Y-86050003D01*
X112230565Y-86049996D01*
X112210369Y-85870750D01*
X112210368Y-85870745D01*
X112203423Y-85850897D01*
X112150789Y-85700478D01*
X112143535Y-85688934D01*
X112067995Y-85568713D01*
X112054816Y-85547738D01*
X111927262Y-85420184D01*
X111862124Y-85379255D01*
X111774523Y-85324211D01*
X111604254Y-85264631D01*
X111604249Y-85264630D01*
X111425004Y-85244435D01*
X111424996Y-85244435D01*
X111245750Y-85264630D01*
X111245745Y-85264631D01*
X111075476Y-85324211D01*
X110922737Y-85420184D01*
X110795184Y-85547737D01*
X110699211Y-85700476D01*
X110639631Y-85870745D01*
X110639630Y-85870750D01*
X110619435Y-86049996D01*
X110619435Y-86050003D01*
X110639630Y-86229249D01*
X110639631Y-86229254D01*
X110699212Y-86399525D01*
X110705492Y-86409519D01*
X110724500Y-86475493D01*
X110724500Y-92600561D01*
X110704815Y-92667600D01*
X110688181Y-92688242D01*
X110404553Y-92971869D01*
X110343230Y-93005354D01*
X110273538Y-93000370D01*
X110217605Y-92958498D01*
X110193188Y-92893034D01*
X110208040Y-92824761D01*
X110217607Y-92809875D01*
X110268352Y-92742090D01*
X110268354Y-92742086D01*
X110318596Y-92607379D01*
X110318598Y-92607372D01*
X110324999Y-92547844D01*
X110325000Y-92547827D01*
X110325000Y-91900000D01*
X109408012Y-91900000D01*
X109440925Y-91842993D01*
X109475000Y-91715826D01*
X109475000Y-91584174D01*
X109440925Y-91457007D01*
X109408012Y-91400000D01*
X110325000Y-91400000D01*
X110325000Y-90752172D01*
X110324999Y-90752155D01*
X110318598Y-90692627D01*
X110318596Y-90692620D01*
X110268354Y-90557913D01*
X110268350Y-90557906D01*
X110182190Y-90442812D01*
X110182187Y-90442809D01*
X110067093Y-90356649D01*
X110067086Y-90356645D01*
X109932379Y-90306403D01*
X109932372Y-90306401D01*
X109872844Y-90300000D01*
X109225000Y-90300000D01*
X109225000Y-91216988D01*
X109167993Y-91184075D01*
X109040826Y-91150000D01*
X108909174Y-91150000D01*
X108782007Y-91184075D01*
X108725000Y-91216988D01*
X108725000Y-90300000D01*
X108077155Y-90300000D01*
X108017627Y-90306401D01*
X108017620Y-90306403D01*
X107882913Y-90356645D01*
X107882906Y-90356649D01*
X107767812Y-90442809D01*
X107767809Y-90442812D01*
X107681649Y-90557906D01*
X107681645Y-90557913D01*
X107631403Y-90692620D01*
X107631401Y-90692627D01*
X107625000Y-90752155D01*
X107625000Y-91400000D01*
X108541988Y-91400000D01*
X108509075Y-91457007D01*
X108475000Y-91584174D01*
X108475000Y-91715826D01*
X108509075Y-91842993D01*
X108541988Y-91900000D01*
X107625000Y-91900000D01*
X107625000Y-92547844D01*
X107631401Y-92607372D01*
X107631403Y-92607379D01*
X107681645Y-92742086D01*
X107681649Y-92742093D01*
X107767809Y-92857187D01*
X107767812Y-92857190D01*
X107882906Y-92943350D01*
X107882913Y-92943354D01*
X108014470Y-92992421D01*
X108070403Y-93034292D01*
X108094821Y-93099756D01*
X108079970Y-93168029D01*
X108058819Y-93196284D01*
X107936503Y-93318600D01*
X107800965Y-93512169D01*
X107800964Y-93512171D01*
X107701098Y-93726335D01*
X107701094Y-93726344D01*
X107639938Y-93954586D01*
X107639936Y-93954596D01*
X107619341Y-94189999D01*
X107619341Y-94190000D01*
X107639936Y-94425403D01*
X107639938Y-94425413D01*
X107701094Y-94653655D01*
X107701096Y-94653659D01*
X107701097Y-94653663D01*
X107738611Y-94734112D01*
X107800965Y-94867830D01*
X107800967Y-94867834D01*
X107936501Y-95061395D01*
X107936506Y-95061402D01*
X108103597Y-95228493D01*
X108103603Y-95228498D01*
X108289158Y-95358425D01*
X108332783Y-95413002D01*
X108339977Y-95482500D01*
X108308454Y-95544855D01*
X108289158Y-95561575D01*
X108103597Y-95691505D01*
X107936505Y-95858597D01*
X107800965Y-96052169D01*
X107800964Y-96052171D01*
X107701098Y-96266335D01*
X107701094Y-96266344D01*
X107639938Y-96494586D01*
X107639936Y-96494596D01*
X107619341Y-96729999D01*
X107619341Y-96730000D01*
X107639936Y-96965403D01*
X107639938Y-96965413D01*
X107701094Y-97193655D01*
X107701096Y-97193659D01*
X107701097Y-97193663D01*
X107773839Y-97349658D01*
X107800965Y-97407830D01*
X107800967Y-97407834D01*
X107936501Y-97601395D01*
X107936506Y-97601402D01*
X108103597Y-97768493D01*
X108103603Y-97768498D01*
X108289158Y-97898425D01*
X108332783Y-97953002D01*
X108339977Y-98022500D01*
X108308454Y-98084855D01*
X108289158Y-98101575D01*
X108103597Y-98231505D01*
X107936505Y-98398597D01*
X107800965Y-98592169D01*
X107800964Y-98592171D01*
X107701098Y-98806335D01*
X107701094Y-98806344D01*
X107639938Y-99034586D01*
X107639936Y-99034596D01*
X107619341Y-99269999D01*
X107619341Y-99270000D01*
X107639936Y-99505403D01*
X107639938Y-99505413D01*
X107701094Y-99733655D01*
X107701096Y-99733659D01*
X107701097Y-99733663D01*
X107764906Y-99870501D01*
X107800965Y-99947830D01*
X107800967Y-99947834D01*
X107936501Y-100141395D01*
X107936506Y-100141402D01*
X108103597Y-100308493D01*
X108103603Y-100308498D01*
X108289158Y-100438425D01*
X108332783Y-100493002D01*
X108339977Y-100562500D01*
X108308454Y-100624855D01*
X108289158Y-100641575D01*
X108103597Y-100771505D01*
X107936505Y-100938597D01*
X107800965Y-101132169D01*
X107800964Y-101132171D01*
X107701098Y-101346335D01*
X107701094Y-101346344D01*
X107639938Y-101574586D01*
X107639936Y-101574596D01*
X107619341Y-101809999D01*
X107619341Y-101810000D01*
X107639936Y-102045403D01*
X107639938Y-102045413D01*
X107701094Y-102273655D01*
X107701096Y-102273659D01*
X107701097Y-102273663D01*
X107758300Y-102396335D01*
X107800965Y-102487830D01*
X107800967Y-102487834D01*
X107936501Y-102681395D01*
X107936506Y-102681402D01*
X108103597Y-102848493D01*
X108103603Y-102848498D01*
X108289158Y-102978425D01*
X108332783Y-103033002D01*
X108339977Y-103102500D01*
X108308454Y-103164855D01*
X108289158Y-103181575D01*
X108103597Y-103311505D01*
X107936505Y-103478597D01*
X107800965Y-103672169D01*
X107800964Y-103672171D01*
X107701098Y-103886335D01*
X107701094Y-103886344D01*
X107639938Y-104114586D01*
X107639936Y-104114596D01*
X107619341Y-104349999D01*
X107619341Y-104350000D01*
X107639936Y-104585403D01*
X107639938Y-104585413D01*
X107701094Y-104813655D01*
X107701096Y-104813659D01*
X107701097Y-104813663D01*
X107758300Y-104936335D01*
X107800965Y-105027830D01*
X107800967Y-105027834D01*
X107896723Y-105164586D01*
X107936505Y-105221401D01*
X108103599Y-105388495D01*
X108120030Y-105400000D01*
X108297165Y-105524032D01*
X108297167Y-105524033D01*
X108297170Y-105524035D01*
X108511337Y-105623903D01*
X108739592Y-105685063D01*
X108927918Y-105701539D01*
X108974999Y-105705659D01*
X108975000Y-105705659D01*
X108975001Y-105705659D01*
X109014234Y-105702226D01*
X109210408Y-105685063D01*
X109338757Y-105650672D01*
X109408606Y-105652335D01*
X109458531Y-105682766D01*
X110061339Y-106285574D01*
X110061349Y-106285585D01*
X110065679Y-106289915D01*
X110065680Y-106289916D01*
X110177484Y-106401720D01*
X110177486Y-106401721D01*
X110177490Y-106401724D01*
X110284356Y-106463422D01*
X110314416Y-106480777D01*
X110426219Y-106510734D01*
X110467142Y-106521700D01*
X110467143Y-106521700D01*
X115032701Y-106521700D01*
X115099740Y-106541385D01*
X115145495Y-106594189D01*
X115156701Y-106645700D01*
X115156701Y-106723076D01*
X115163108Y-106782683D01*
X115213402Y-106917528D01*
X115213406Y-106917535D01*
X115299652Y-107032744D01*
X115299653Y-107032744D01*
X115299654Y-107032746D01*
X115339978Y-107062932D01*
X115379135Y-107092246D01*
X115421005Y-107148180D01*
X115425989Y-107217872D01*
X115392503Y-107279194D01*
X115379135Y-107290778D01*
X115300009Y-107350012D01*
X115213849Y-107465106D01*
X115213845Y-107465113D01*
X115163603Y-107599820D01*
X115163601Y-107599827D01*
X115157200Y-107659355D01*
X115157200Y-108211200D01*
X115978188Y-108211200D01*
X115945275Y-108268207D01*
X115911200Y-108395374D01*
X115911200Y-108527026D01*
X115945275Y-108654193D01*
X115978188Y-108711200D01*
X115157200Y-108711200D01*
X115157200Y-109263044D01*
X115163601Y-109322572D01*
X115163603Y-109322579D01*
X115213845Y-109457286D01*
X115213849Y-109457293D01*
X115300009Y-109572386D01*
X115379134Y-109631620D01*
X115421005Y-109687554D01*
X115425989Y-109757246D01*
X115392504Y-109818569D01*
X115379135Y-109830153D01*
X115299652Y-109889655D01*
X115213406Y-110004864D01*
X115213402Y-110004871D01*
X115163108Y-110139717D01*
X115156701Y-110199316D01*
X115156701Y-110199323D01*
X115156700Y-110199335D01*
X115156700Y-111355102D01*
X115137015Y-111422141D01*
X115120381Y-111442783D01*
X114776681Y-111786482D01*
X114776679Y-111786485D01*
X114732688Y-111862682D01*
X114732686Y-111862684D01*
X114697625Y-111923409D01*
X114697623Y-111923412D01*
X114677764Y-111997528D01*
X114656699Y-112076143D01*
X114656699Y-112076145D01*
X114656699Y-112244246D01*
X114656700Y-112244259D01*
X114656700Y-114608530D01*
X114656699Y-114608548D01*
X114656699Y-114774254D01*
X114656698Y-114774254D01*
X114697624Y-114926989D01*
X114697625Y-114926990D01*
X114718655Y-114963414D01*
X114718656Y-114963416D01*
X114776675Y-115063909D01*
X114776679Y-115063914D01*
X114776680Y-115063916D01*
X114888484Y-115175720D01*
X114888485Y-115175721D01*
X115388484Y-115675720D01*
X115388486Y-115675721D01*
X115388490Y-115675724D01*
X115510645Y-115746249D01*
X115525416Y-115754777D01*
X115678143Y-115795701D01*
X115678145Y-115795701D01*
X115843854Y-115795701D01*
X115843870Y-115795700D01*
X159598131Y-115795700D01*
X159598147Y-115795701D01*
X159605743Y-115795701D01*
X159763854Y-115795701D01*
X159763857Y-115795701D01*
X159916585Y-115754777D01*
X159966704Y-115725839D01*
X160053516Y-115675720D01*
X160165320Y-115563916D01*
X160165320Y-115563914D01*
X160175528Y-115553707D01*
X160175530Y-115553704D01*
X161022332Y-114706902D01*
X176224500Y-114706902D01*
X176224500Y-114943097D01*
X176261446Y-115176368D01*
X176334433Y-115400996D01*
X176412241Y-115553701D01*
X176441657Y-115611433D01*
X176580483Y-115802510D01*
X176747490Y-115969517D01*
X176938567Y-116108343D01*
X177037991Y-116159002D01*
X177149003Y-116215566D01*
X177149005Y-116215566D01*
X177149008Y-116215568D01*
X177269412Y-116254689D01*
X177373631Y-116288553D01*
X177606903Y-116325500D01*
X177606908Y-116325500D01*
X177843097Y-116325500D01*
X178076368Y-116288553D01*
X178300992Y-116215568D01*
X178511433Y-116108343D01*
X178702510Y-115969517D01*
X178869517Y-115802510D01*
X179008343Y-115611433D01*
X179115568Y-115400992D01*
X179188553Y-115176368D01*
X179192513Y-115151368D01*
X179225500Y-114943097D01*
X179225500Y-114706902D01*
X179188553Y-114473631D01*
X179115566Y-114249003D01*
X179025296Y-114071839D01*
X179008343Y-114038567D01*
X178869517Y-113847490D01*
X178702510Y-113680483D01*
X178511433Y-113541657D01*
X178462368Y-113516657D01*
X178300996Y-113434433D01*
X178076368Y-113361446D01*
X177843097Y-113324500D01*
X177843092Y-113324500D01*
X177606908Y-113324500D01*
X177606903Y-113324500D01*
X177373631Y-113361446D01*
X177149003Y-113434433D01*
X176938566Y-113541657D01*
X176829550Y-113620862D01*
X176747490Y-113680483D01*
X176747488Y-113680485D01*
X176747487Y-113680485D01*
X176580485Y-113847487D01*
X176580485Y-113847488D01*
X176580483Y-113847490D01*
X176520862Y-113929550D01*
X176441657Y-114038566D01*
X176334433Y-114249003D01*
X176261446Y-114473631D01*
X176224500Y-114706902D01*
X161022332Y-114706902D01*
X169231605Y-106497628D01*
X169292926Y-106464145D01*
X169342064Y-106463422D01*
X169478896Y-106489000D01*
X169478899Y-106489000D01*
X169701101Y-106489000D01*
X169701104Y-106489000D01*
X169919528Y-106448170D01*
X170126730Y-106367899D01*
X170315655Y-106250922D01*
X170479868Y-106101222D01*
X170613778Y-105923896D01*
X170712824Y-105724984D01*
X170773634Y-105511260D01*
X170794137Y-105290000D01*
X170794137Y-105289999D01*
X176005863Y-105289999D01*
X176005863Y-105290000D01*
X176026365Y-105511259D01*
X176026366Y-105511261D01*
X176087174Y-105724979D01*
X176087180Y-105724994D01*
X176186222Y-105923896D01*
X176320133Y-106101224D01*
X176484344Y-106250921D01*
X176484346Y-106250923D01*
X176673266Y-106367897D01*
X176673272Y-106367900D01*
X176702206Y-106379109D01*
X176880472Y-106448170D01*
X177098896Y-106489000D01*
X177098899Y-106489000D01*
X177321101Y-106489000D01*
X177321104Y-106489000D01*
X177539528Y-106448170D01*
X177746730Y-106367899D01*
X177935655Y-106250922D01*
X178099868Y-106101222D01*
X178233778Y-105923896D01*
X178332824Y-105724984D01*
X178393634Y-105511260D01*
X178414137Y-105290000D01*
X178402516Y-105164596D01*
X178393634Y-105068740D01*
X178393633Y-105068738D01*
X178391066Y-105059717D01*
X178332824Y-104855016D01*
X178312233Y-104813664D01*
X178266674Y-104722169D01*
X178233778Y-104656104D01*
X178169530Y-104571026D01*
X178099866Y-104478775D01*
X177935655Y-104329078D01*
X177935653Y-104329076D01*
X177746733Y-104212102D01*
X177746727Y-104212099D01*
X177639080Y-104170397D01*
X177539528Y-104131830D01*
X177321104Y-104091000D01*
X177098896Y-104091000D01*
X176880472Y-104131830D01*
X176830695Y-104151113D01*
X176673272Y-104212099D01*
X176673266Y-104212102D01*
X176484346Y-104329076D01*
X176484344Y-104329078D01*
X176320133Y-104478775D01*
X176186222Y-104656103D01*
X176087180Y-104855005D01*
X176087174Y-104855020D01*
X176026366Y-105068738D01*
X176026365Y-105068740D01*
X176005863Y-105289999D01*
X170794137Y-105289999D01*
X170782516Y-105164596D01*
X170773634Y-105068740D01*
X170773633Y-105068738D01*
X170771066Y-105059717D01*
X170712824Y-104855016D01*
X170692233Y-104813664D01*
X170646674Y-104722169D01*
X170613778Y-104656104D01*
X170549530Y-104571026D01*
X170479866Y-104478775D01*
X170315655Y-104329078D01*
X170315653Y-104329076D01*
X170126733Y-104212102D01*
X170126727Y-104212099D01*
X170019080Y-104170397D01*
X169919528Y-104131830D01*
X169701104Y-104091000D01*
X169478896Y-104091000D01*
X169260472Y-104131830D01*
X169210695Y-104151113D01*
X169053272Y-104212099D01*
X169053266Y-104212102D01*
X168864346Y-104329076D01*
X168864344Y-104329078D01*
X168700133Y-104478775D01*
X168566222Y-104656103D01*
X168467180Y-104855005D01*
X168467174Y-104855020D01*
X168406366Y-105068738D01*
X168406365Y-105068740D01*
X168385863Y-105289999D01*
X168385863Y-105290000D01*
X168406365Y-105511257D01*
X168406366Y-105511259D01*
X168406366Y-105511260D01*
X168410000Y-105524034D01*
X168411485Y-105529250D01*
X168410897Y-105599117D01*
X168379899Y-105650864D01*
X159472384Y-114558381D01*
X159411061Y-114591866D01*
X159384703Y-114594700D01*
X149796725Y-114594700D01*
X149729686Y-114575015D01*
X149683931Y-114522211D01*
X149673987Y-114453053D01*
X149703012Y-114389497D01*
X149709044Y-114383019D01*
X154634777Y-109457286D01*
X163882063Y-100209999D01*
X168386366Y-100209999D01*
X168386366Y-100210000D01*
X168406859Y-100431166D01*
X168406860Y-100431168D01*
X168467643Y-100644798D01*
X168467649Y-100644813D01*
X168566646Y-100843626D01*
X168566651Y-100843634D01*
X168582209Y-100864235D01*
X169183600Y-100262845D01*
X169183600Y-100263504D01*
X169211295Y-100366865D01*
X169264799Y-100459536D01*
X169340464Y-100535201D01*
X169433135Y-100588705D01*
X169536496Y-100616400D01*
X169537153Y-100616400D01*
X168937761Y-101215790D01*
X168937762Y-101215791D01*
X169053490Y-101287447D01*
X169053496Y-101287450D01*
X169260607Y-101367684D01*
X169478945Y-101408500D01*
X169701055Y-101408500D01*
X169919392Y-101367684D01*
X170126505Y-101287449D01*
X170126506Y-101287448D01*
X170242237Y-101215790D01*
X169642848Y-100616400D01*
X169643504Y-100616400D01*
X169746865Y-100588705D01*
X169839536Y-100535201D01*
X169915201Y-100459536D01*
X169968705Y-100366865D01*
X169996400Y-100263504D01*
X169996400Y-100262847D01*
X170597788Y-100864235D01*
X170597789Y-100864235D01*
X170613349Y-100843632D01*
X170613350Y-100843629D01*
X170712350Y-100644813D01*
X170712356Y-100644798D01*
X170773139Y-100431168D01*
X170773140Y-100431166D01*
X170793634Y-100210000D01*
X170793634Y-100209999D01*
X176006366Y-100209999D01*
X176006366Y-100210000D01*
X176026859Y-100431166D01*
X176026860Y-100431168D01*
X176087643Y-100644798D01*
X176087649Y-100644813D01*
X176186646Y-100843626D01*
X176186651Y-100843634D01*
X176202209Y-100864235D01*
X176803600Y-100262845D01*
X176803600Y-100263504D01*
X176831295Y-100366865D01*
X176884799Y-100459536D01*
X176960464Y-100535201D01*
X177053135Y-100588705D01*
X177156496Y-100616400D01*
X177157153Y-100616400D01*
X176557761Y-101215790D01*
X176557762Y-101215791D01*
X176673490Y-101287447D01*
X176673496Y-101287450D01*
X176880607Y-101367684D01*
X177098945Y-101408500D01*
X177321055Y-101408500D01*
X177539392Y-101367684D01*
X177746505Y-101287449D01*
X177746506Y-101287448D01*
X177862237Y-101215790D01*
X177262848Y-100616400D01*
X177263504Y-100616400D01*
X177366865Y-100588705D01*
X177459536Y-100535201D01*
X177535201Y-100459536D01*
X177588705Y-100366865D01*
X177616400Y-100263504D01*
X177616400Y-100262847D01*
X178217788Y-100864235D01*
X178217789Y-100864235D01*
X178233349Y-100843632D01*
X178233350Y-100843629D01*
X178332350Y-100644813D01*
X178332356Y-100644798D01*
X178393139Y-100431168D01*
X178393140Y-100431166D01*
X178413634Y-100210000D01*
X178413634Y-100209999D01*
X178393140Y-99988833D01*
X178393139Y-99988831D01*
X178332356Y-99775201D01*
X178332350Y-99775186D01*
X178233351Y-99576370D01*
X178233349Y-99576367D01*
X178217788Y-99555762D01*
X177616400Y-100157151D01*
X177616400Y-100156496D01*
X177588705Y-100053135D01*
X177535201Y-99960464D01*
X177459536Y-99884799D01*
X177366865Y-99831295D01*
X177263504Y-99803600D01*
X177262847Y-99803600D01*
X177862237Y-99204208D01*
X177862236Y-99204207D01*
X177746509Y-99132552D01*
X177746503Y-99132549D01*
X177539392Y-99052315D01*
X177321055Y-99011500D01*
X177098945Y-99011500D01*
X176880607Y-99052315D01*
X176673495Y-99132550D01*
X176557761Y-99204208D01*
X177157154Y-99803600D01*
X177156496Y-99803600D01*
X177053135Y-99831295D01*
X176960464Y-99884799D01*
X176884799Y-99960464D01*
X176831295Y-100053135D01*
X176803600Y-100156496D01*
X176803600Y-100157152D01*
X176202210Y-99555762D01*
X176186651Y-99576367D01*
X176186646Y-99576374D01*
X176087649Y-99775186D01*
X176087643Y-99775201D01*
X176026860Y-99988831D01*
X176026859Y-99988833D01*
X176006366Y-100209999D01*
X170793634Y-100209999D01*
X170773140Y-99988833D01*
X170773139Y-99988831D01*
X170712356Y-99775201D01*
X170712350Y-99775186D01*
X170613351Y-99576370D01*
X170613349Y-99576367D01*
X170597788Y-99555762D01*
X169996400Y-100157151D01*
X169996400Y-100156496D01*
X169968705Y-100053135D01*
X169915201Y-99960464D01*
X169839536Y-99884799D01*
X169746865Y-99831295D01*
X169643504Y-99803600D01*
X169642847Y-99803600D01*
X170242237Y-99204208D01*
X170242236Y-99204207D01*
X170126509Y-99132552D01*
X170126503Y-99132549D01*
X169919392Y-99052315D01*
X169701055Y-99011500D01*
X169478945Y-99011500D01*
X169260607Y-99052315D01*
X169053495Y-99132550D01*
X168937761Y-99204208D01*
X169537154Y-99803600D01*
X169536496Y-99803600D01*
X169433135Y-99831295D01*
X169340464Y-99884799D01*
X169264799Y-99960464D01*
X169211295Y-100053135D01*
X169183600Y-100156496D01*
X169183600Y-100157152D01*
X168582210Y-99555762D01*
X168566651Y-99576367D01*
X168566646Y-99576374D01*
X168467649Y-99775186D01*
X168467643Y-99775201D01*
X168406860Y-99988831D01*
X168406859Y-99988833D01*
X168386366Y-100209999D01*
X163882063Y-100209999D01*
X169823506Y-94268555D01*
X169823511Y-94268552D01*
X169833714Y-94258348D01*
X169833716Y-94258348D01*
X169945520Y-94146544D01*
X170009883Y-94035063D01*
X170024577Y-94009613D01*
X170061928Y-93870213D01*
X170098292Y-93810556D01*
X170116411Y-93796891D01*
X170190655Y-93750922D01*
X170338216Y-93616402D01*
X170354866Y-93601224D01*
X170354868Y-93601222D01*
X170488778Y-93423896D01*
X170587824Y-93224984D01*
X170648634Y-93011260D01*
X170669137Y-92790000D01*
X170669137Y-92789999D01*
X175880863Y-92789999D01*
X175880863Y-92790000D01*
X175901365Y-93011259D01*
X175901366Y-93011261D01*
X175962174Y-93224979D01*
X175962180Y-93224994D01*
X176061222Y-93423896D01*
X176195133Y-93601224D01*
X176359344Y-93750921D01*
X176359346Y-93750923D01*
X176548266Y-93867897D01*
X176548272Y-93867900D01*
X176577206Y-93879109D01*
X176755472Y-93948170D01*
X176973896Y-93989000D01*
X176973899Y-93989000D01*
X177196101Y-93989000D01*
X177196104Y-93989000D01*
X177414528Y-93948170D01*
X177621730Y-93867899D01*
X177810655Y-93750922D01*
X177958216Y-93616402D01*
X177974866Y-93601224D01*
X177974868Y-93601222D01*
X178108778Y-93423896D01*
X178207824Y-93224984D01*
X178268634Y-93011260D01*
X178289137Y-92790000D01*
X178284697Y-92742090D01*
X178268634Y-92568740D01*
X178268633Y-92568738D01*
X178262688Y-92547844D01*
X178207824Y-92355016D01*
X178108778Y-92156104D01*
X177974868Y-91978778D01*
X177974866Y-91978775D01*
X177810655Y-91829078D01*
X177810653Y-91829076D01*
X177621733Y-91712102D01*
X177621727Y-91712099D01*
X177491130Y-91661506D01*
X177414528Y-91631830D01*
X177196104Y-91591000D01*
X176973896Y-91591000D01*
X176755472Y-91631830D01*
X176705695Y-91651113D01*
X176548272Y-91712099D01*
X176548266Y-91712102D01*
X176359346Y-91829076D01*
X176359344Y-91829078D01*
X176195133Y-91978775D01*
X176061222Y-92156103D01*
X175962180Y-92355005D01*
X175962174Y-92355020D01*
X175901366Y-92568738D01*
X175901365Y-92568740D01*
X175880863Y-92789999D01*
X170669137Y-92789999D01*
X170664697Y-92742090D01*
X170648634Y-92568740D01*
X170648633Y-92568738D01*
X170642688Y-92547844D01*
X170587824Y-92355016D01*
X170488778Y-92156104D01*
X170354868Y-91978778D01*
X170354866Y-91978775D01*
X170190655Y-91829078D01*
X170190653Y-91829076D01*
X170001733Y-91712102D01*
X170001727Y-91712099D01*
X169871130Y-91661506D01*
X169794528Y-91631830D01*
X169576104Y-91591000D01*
X169353896Y-91591000D01*
X169135472Y-91631830D01*
X169085695Y-91651113D01*
X168928272Y-91712099D01*
X168928266Y-91712102D01*
X168739346Y-91829076D01*
X168739344Y-91829078D01*
X168575133Y-91978775D01*
X168441222Y-92156103D01*
X168342180Y-92355005D01*
X168342174Y-92355020D01*
X168281366Y-92568738D01*
X168281365Y-92568740D01*
X168260863Y-92789999D01*
X168260863Y-92790000D01*
X168281365Y-93011259D01*
X168281366Y-93011261D01*
X168342174Y-93224979D01*
X168342180Y-93224994D01*
X168388791Y-93318600D01*
X168441222Y-93423896D01*
X168575132Y-93601222D01*
X168592799Y-93617328D01*
X168629082Y-93677037D01*
X168627323Y-93746885D01*
X168596944Y-93796647D01*
X164384366Y-98009225D01*
X164323043Y-98042710D01*
X164253351Y-98037726D01*
X164197418Y-97995854D01*
X164173001Y-97930390D01*
X164173156Y-97910747D01*
X164180659Y-97825000D01*
X164160063Y-97589592D01*
X164111361Y-97407830D01*
X164098905Y-97361344D01*
X164098904Y-97361343D01*
X164098903Y-97361337D01*
X163999035Y-97147171D01*
X163968390Y-97103404D01*
X163863494Y-96953597D01*
X163696402Y-96786506D01*
X163696396Y-96786501D01*
X163510842Y-96656575D01*
X163467217Y-96601998D01*
X163460023Y-96532500D01*
X163491546Y-96470145D01*
X163510842Y-96453425D01*
X163551230Y-96425145D01*
X163696401Y-96323495D01*
X163863495Y-96156401D01*
X163999035Y-95962830D01*
X164098903Y-95748663D01*
X164160063Y-95520408D01*
X164180659Y-95285000D01*
X164160063Y-95049592D01*
X164110221Y-94863578D01*
X164098905Y-94821344D01*
X164098904Y-94821343D01*
X164098903Y-94821337D01*
X163999035Y-94607171D01*
X163979446Y-94579194D01*
X163863494Y-94413597D01*
X163696402Y-94246506D01*
X163696396Y-94246501D01*
X163510842Y-94116575D01*
X163467217Y-94061998D01*
X163460023Y-93992500D01*
X163491546Y-93930145D01*
X163510842Y-93913425D01*
X163551230Y-93885145D01*
X163696401Y-93783495D01*
X163863495Y-93616401D01*
X163999035Y-93422830D01*
X164098903Y-93208663D01*
X164160063Y-92980408D01*
X164180659Y-92745000D01*
X164160063Y-92509592D01*
X164098903Y-92281337D01*
X163999035Y-92067171D01*
X163987082Y-92050099D01*
X163863494Y-91873597D01*
X163696402Y-91706506D01*
X163696396Y-91706501D01*
X163510842Y-91576575D01*
X163467217Y-91521998D01*
X163460023Y-91452500D01*
X163491546Y-91390145D01*
X163510842Y-91373425D01*
X163554303Y-91342993D01*
X163696401Y-91243495D01*
X163863495Y-91076401D01*
X163999035Y-90882830D01*
X164098903Y-90668663D01*
X164160063Y-90440408D01*
X164180659Y-90205000D01*
X164160063Y-89969592D01*
X164098903Y-89741337D01*
X163999035Y-89527171D01*
X163968390Y-89483404D01*
X163863494Y-89333597D01*
X163696402Y-89166506D01*
X163696396Y-89166501D01*
X163510842Y-89036575D01*
X163467217Y-88981998D01*
X163460023Y-88912500D01*
X163491546Y-88850145D01*
X163510842Y-88833425D01*
X163550796Y-88805449D01*
X163696401Y-88703495D01*
X163863495Y-88536401D01*
X163999035Y-88342830D01*
X164098903Y-88128663D01*
X164160063Y-87900408D01*
X164176722Y-87709999D01*
X168261366Y-87709999D01*
X168261366Y-87710000D01*
X168281859Y-87931166D01*
X168281860Y-87931168D01*
X168342643Y-88144798D01*
X168342649Y-88144813D01*
X168441646Y-88343626D01*
X168441651Y-88343634D01*
X168457209Y-88364235D01*
X169058600Y-87762845D01*
X169058600Y-87763504D01*
X169086295Y-87866865D01*
X169139799Y-87959536D01*
X169215464Y-88035201D01*
X169308135Y-88088705D01*
X169411496Y-88116400D01*
X169412153Y-88116400D01*
X168812761Y-88715790D01*
X168812762Y-88715791D01*
X168928490Y-88787447D01*
X168928496Y-88787450D01*
X169135607Y-88867684D01*
X169353945Y-88908500D01*
X169576055Y-88908500D01*
X169794392Y-88867684D01*
X170001505Y-88787449D01*
X170001506Y-88787448D01*
X170117237Y-88715790D01*
X169517848Y-88116400D01*
X169518504Y-88116400D01*
X169621865Y-88088705D01*
X169714536Y-88035201D01*
X169790201Y-87959536D01*
X169843705Y-87866865D01*
X169871400Y-87763504D01*
X169871400Y-87762847D01*
X170472788Y-88364235D01*
X170472789Y-88364235D01*
X170488349Y-88343632D01*
X170488350Y-88343629D01*
X170587350Y-88144813D01*
X170587356Y-88144798D01*
X170648139Y-87931168D01*
X170648140Y-87931166D01*
X170668634Y-87710000D01*
X170668634Y-87709999D01*
X175881366Y-87709999D01*
X175881366Y-87710000D01*
X175901859Y-87931166D01*
X175901860Y-87931168D01*
X175962643Y-88144798D01*
X175962649Y-88144813D01*
X176061646Y-88343626D01*
X176061651Y-88343634D01*
X176077209Y-88364235D01*
X176678600Y-87762845D01*
X176678600Y-87763504D01*
X176706295Y-87866865D01*
X176759799Y-87959536D01*
X176835464Y-88035201D01*
X176928135Y-88088705D01*
X177031496Y-88116400D01*
X177032153Y-88116400D01*
X176432761Y-88715790D01*
X176432762Y-88715791D01*
X176548490Y-88787447D01*
X176548496Y-88787450D01*
X176755607Y-88867684D01*
X176973945Y-88908500D01*
X177196055Y-88908500D01*
X177414392Y-88867684D01*
X177621505Y-88787449D01*
X177621506Y-88787448D01*
X177737237Y-88715790D01*
X177137848Y-88116400D01*
X177138504Y-88116400D01*
X177241865Y-88088705D01*
X177334536Y-88035201D01*
X177410201Y-87959536D01*
X177463705Y-87866865D01*
X177491400Y-87763504D01*
X177491400Y-87762847D01*
X178092788Y-88364235D01*
X178092789Y-88364235D01*
X178108349Y-88343632D01*
X178108350Y-88343629D01*
X178207350Y-88144813D01*
X178207356Y-88144798D01*
X178268139Y-87931168D01*
X178268140Y-87931166D01*
X178288634Y-87710000D01*
X178288634Y-87709999D01*
X178268140Y-87488833D01*
X178268139Y-87488831D01*
X178207356Y-87275201D01*
X178207350Y-87275186D01*
X178108351Y-87076370D01*
X178108349Y-87076367D01*
X178092788Y-87055762D01*
X177491400Y-87657151D01*
X177491400Y-87656496D01*
X177463705Y-87553135D01*
X177410201Y-87460464D01*
X177334536Y-87384799D01*
X177241865Y-87331295D01*
X177138504Y-87303600D01*
X177137847Y-87303600D01*
X177737237Y-86704208D01*
X177737236Y-86704207D01*
X177621509Y-86632552D01*
X177621503Y-86632549D01*
X177414392Y-86552315D01*
X177196055Y-86511500D01*
X176973945Y-86511500D01*
X176755607Y-86552315D01*
X176548495Y-86632550D01*
X176432761Y-86704208D01*
X177032154Y-87303600D01*
X177031496Y-87303600D01*
X176928135Y-87331295D01*
X176835464Y-87384799D01*
X176759799Y-87460464D01*
X176706295Y-87553135D01*
X176678600Y-87656496D01*
X176678600Y-87657152D01*
X176077210Y-87055762D01*
X176061651Y-87076367D01*
X176061646Y-87076374D01*
X175962649Y-87275186D01*
X175962643Y-87275201D01*
X175901860Y-87488831D01*
X175901859Y-87488833D01*
X175881366Y-87709999D01*
X170668634Y-87709999D01*
X170648140Y-87488833D01*
X170648139Y-87488831D01*
X170587356Y-87275201D01*
X170587350Y-87275186D01*
X170488351Y-87076370D01*
X170488349Y-87076367D01*
X170472788Y-87055762D01*
X169871400Y-87657151D01*
X169871400Y-87656496D01*
X169843705Y-87553135D01*
X169790201Y-87460464D01*
X169714536Y-87384799D01*
X169621865Y-87331295D01*
X169518504Y-87303600D01*
X169517847Y-87303600D01*
X170117237Y-86704208D01*
X170117236Y-86704207D01*
X170001509Y-86632552D01*
X170001503Y-86632549D01*
X169794392Y-86552315D01*
X169576055Y-86511500D01*
X169353945Y-86511500D01*
X169135607Y-86552315D01*
X168928495Y-86632550D01*
X168812761Y-86704208D01*
X169412154Y-87303600D01*
X169411496Y-87303600D01*
X169308135Y-87331295D01*
X169215464Y-87384799D01*
X169139799Y-87460464D01*
X169086295Y-87553135D01*
X169058600Y-87656496D01*
X169058600Y-87657152D01*
X168457210Y-87055762D01*
X168441651Y-87076367D01*
X168441646Y-87076374D01*
X168342649Y-87275186D01*
X168342643Y-87275201D01*
X168281860Y-87488831D01*
X168281859Y-87488833D01*
X168261366Y-87709999D01*
X164176722Y-87709999D01*
X164180659Y-87665000D01*
X164160063Y-87429592D01*
X164098903Y-87201337D01*
X163999035Y-86987171D01*
X163968389Y-86943404D01*
X163863496Y-86793600D01*
X163818495Y-86748599D01*
X163741567Y-86671671D01*
X163708084Y-86610351D01*
X163713068Y-86540659D01*
X163754939Y-86484725D01*
X163785915Y-86467810D01*
X163917331Y-86418796D01*
X164032546Y-86332546D01*
X164118796Y-86217331D01*
X164169091Y-86082483D01*
X164175500Y-86022873D01*
X164175499Y-84227128D01*
X164169091Y-84167517D01*
X164128070Y-84057535D01*
X164118797Y-84032671D01*
X164118793Y-84032664D01*
X164032547Y-83917455D01*
X164032544Y-83917452D01*
X163917335Y-83831206D01*
X163917328Y-83831202D01*
X163782482Y-83780908D01*
X163782483Y-83780908D01*
X163722883Y-83774501D01*
X163722881Y-83774500D01*
X163722873Y-83774500D01*
X163722864Y-83774500D01*
X161927129Y-83774500D01*
X161927123Y-83774501D01*
X161867516Y-83780908D01*
X161732671Y-83831202D01*
X161732664Y-83831206D01*
X161617455Y-83917452D01*
X161617452Y-83917455D01*
X161531206Y-84032664D01*
X161531202Y-84032671D01*
X161480908Y-84167517D01*
X161474501Y-84227116D01*
X161474501Y-84227123D01*
X161474500Y-84227135D01*
X161474500Y-86022870D01*
X161474501Y-86022876D01*
X161480908Y-86082483D01*
X161531202Y-86217328D01*
X161531206Y-86217335D01*
X161617452Y-86332544D01*
X161617455Y-86332547D01*
X161732664Y-86418793D01*
X161732671Y-86418797D01*
X161864081Y-86467810D01*
X161920015Y-86509681D01*
X161944432Y-86575145D01*
X161929580Y-86643418D01*
X161908430Y-86671673D01*
X161786503Y-86793600D01*
X161650965Y-86987169D01*
X161650964Y-86987171D01*
X161551098Y-87201335D01*
X161551094Y-87201344D01*
X161489938Y-87429586D01*
X161489936Y-87429596D01*
X161469341Y-87664999D01*
X161469341Y-87665000D01*
X161489936Y-87900403D01*
X161489938Y-87900413D01*
X161551094Y-88128655D01*
X161551096Y-88128659D01*
X161551097Y-88128663D01*
X161558621Y-88144798D01*
X161650965Y-88342830D01*
X161650967Y-88342834D01*
X161786501Y-88536395D01*
X161786506Y-88536402D01*
X161953597Y-88703493D01*
X161953603Y-88703498D01*
X162139158Y-88833425D01*
X162182783Y-88888002D01*
X162189977Y-88957500D01*
X162158454Y-89019855D01*
X162139158Y-89036575D01*
X161953597Y-89166505D01*
X161786505Y-89333597D01*
X161650965Y-89527169D01*
X161650964Y-89527171D01*
X161551098Y-89741335D01*
X161551094Y-89741344D01*
X161489938Y-89969586D01*
X161489936Y-89969596D01*
X161469341Y-90204999D01*
X161469341Y-90205000D01*
X161489936Y-90440403D01*
X161489938Y-90440413D01*
X161551094Y-90668655D01*
X161551096Y-90668659D01*
X161551097Y-90668663D01*
X161562272Y-90692627D01*
X161650965Y-90882830D01*
X161650967Y-90882834D01*
X161786501Y-91076395D01*
X161786506Y-91076402D01*
X161953597Y-91243493D01*
X161953603Y-91243498D01*
X162139158Y-91373425D01*
X162182783Y-91428002D01*
X162189977Y-91497500D01*
X162158454Y-91559855D01*
X162139158Y-91576575D01*
X161953597Y-91706505D01*
X161786505Y-91873597D01*
X161650965Y-92067169D01*
X161650964Y-92067171D01*
X161551098Y-92281335D01*
X161551094Y-92281344D01*
X161489938Y-92509586D01*
X161489936Y-92509596D01*
X161469341Y-92744999D01*
X161469341Y-92745000D01*
X161489936Y-92980403D01*
X161489938Y-92980413D01*
X161551094Y-93208655D01*
X161551096Y-93208659D01*
X161551097Y-93208663D01*
X161635015Y-93388626D01*
X161650965Y-93422830D01*
X161650967Y-93422834D01*
X161786501Y-93616395D01*
X161786506Y-93616402D01*
X161953597Y-93783493D01*
X161953603Y-93783498D01*
X162139158Y-93913425D01*
X162182783Y-93968002D01*
X162189977Y-94037500D01*
X162158454Y-94099855D01*
X162139158Y-94116575D01*
X161953597Y-94246505D01*
X161786505Y-94413597D01*
X161650965Y-94607169D01*
X161650964Y-94607171D01*
X161551098Y-94821335D01*
X161551094Y-94821344D01*
X161489938Y-95049586D01*
X161489936Y-95049596D01*
X161469341Y-95284999D01*
X161469341Y-95285000D01*
X161489936Y-95520403D01*
X161489938Y-95520413D01*
X161551094Y-95748655D01*
X161551096Y-95748659D01*
X161551097Y-95748663D01*
X161646959Y-95954239D01*
X161650965Y-95962830D01*
X161650967Y-95962834D01*
X161786501Y-96156395D01*
X161786506Y-96156402D01*
X161953597Y-96323493D01*
X161953603Y-96323498D01*
X162139158Y-96453425D01*
X162182783Y-96508002D01*
X162189977Y-96577500D01*
X162158454Y-96639855D01*
X162139158Y-96656575D01*
X161953597Y-96786505D01*
X161786505Y-96953597D01*
X161650965Y-97147169D01*
X161650964Y-97147171D01*
X161551098Y-97361335D01*
X161551094Y-97361344D01*
X161489938Y-97589586D01*
X161489936Y-97589596D01*
X161469341Y-97824999D01*
X161469341Y-97825000D01*
X161489936Y-98060403D01*
X161489938Y-98060413D01*
X161551094Y-98288655D01*
X161551096Y-98288659D01*
X161551097Y-98288663D01*
X161602360Y-98398597D01*
X161650965Y-98502830D01*
X161650967Y-98502834D01*
X161713522Y-98592171D01*
X161786505Y-98696401D01*
X161953599Y-98863495D01*
X162034626Y-98920231D01*
X162147165Y-98999032D01*
X162147167Y-98999033D01*
X162147170Y-98999035D01*
X162361337Y-99098903D01*
X162361343Y-99098904D01*
X162361344Y-99098905D01*
X162376896Y-99103072D01*
X162589592Y-99160063D01*
X162777918Y-99176539D01*
X162824999Y-99180659D01*
X162824999Y-99180658D01*
X162825000Y-99180659D01*
X162910738Y-99173157D01*
X162979235Y-99186923D01*
X163029419Y-99235538D01*
X163045353Y-99303566D01*
X163021979Y-99369410D01*
X163009225Y-99384366D01*
X148335212Y-114058381D01*
X148273889Y-114091866D01*
X148247531Y-114094700D01*
X136778896Y-114094700D01*
X136711857Y-114075015D01*
X136666102Y-114022211D01*
X136656158Y-113953053D01*
X136685183Y-113889497D01*
X136691215Y-113883019D01*
X138498091Y-112076143D01*
X144230520Y-106343716D01*
X144309577Y-106206784D01*
X144350501Y-106054057D01*
X144350501Y-105895942D01*
X144350501Y-105888347D01*
X144350500Y-105888329D01*
X144350500Y-99119059D01*
X144350501Y-99119046D01*
X144350501Y-98950945D01*
X144350501Y-98950943D01*
X144309577Y-98798215D01*
X144295871Y-98774477D01*
X144277150Y-98742050D01*
X144277149Y-98742049D01*
X144230521Y-98661286D01*
X144230520Y-98661284D01*
X144118716Y-98549480D01*
X144118715Y-98549479D01*
X144114385Y-98545149D01*
X144114374Y-98545139D01*
X143832766Y-98263531D01*
X143799281Y-98202208D01*
X143800672Y-98143757D01*
X143801863Y-98139309D01*
X143835063Y-98015408D01*
X143855659Y-97780000D01*
X143835063Y-97544592D01*
X143777324Y-97329104D01*
X143773905Y-97316344D01*
X143773904Y-97316343D01*
X143773903Y-97316337D01*
X143674035Y-97102171D01*
X143642579Y-97057246D01*
X143538494Y-96908597D01*
X143371402Y-96741506D01*
X143371396Y-96741501D01*
X143185842Y-96611575D01*
X143142217Y-96556998D01*
X143135023Y-96487500D01*
X143166546Y-96425145D01*
X143185842Y-96408425D01*
X143253166Y-96361284D01*
X143371401Y-96278495D01*
X143538495Y-96111401D01*
X143674035Y-95917830D01*
X143773903Y-95703663D01*
X143835063Y-95475408D01*
X143855659Y-95240000D01*
X143835063Y-95004592D01*
X143773903Y-94776337D01*
X143674035Y-94562171D01*
X143578277Y-94425413D01*
X143538494Y-94368597D01*
X143371402Y-94201506D01*
X143371396Y-94201501D01*
X143185842Y-94071575D01*
X143142217Y-94016998D01*
X143135023Y-93947500D01*
X143166546Y-93885145D01*
X143185842Y-93868425D01*
X143307137Y-93783493D01*
X143371401Y-93738495D01*
X143538495Y-93571401D01*
X143674035Y-93377830D01*
X143773903Y-93163663D01*
X143835063Y-92935408D01*
X143855659Y-92700000D01*
X143835063Y-92464592D01*
X143773903Y-92236337D01*
X143674035Y-92022171D01*
X143642799Y-91977560D01*
X143538494Y-91828597D01*
X143371402Y-91661506D01*
X143371401Y-91661505D01*
X143185405Y-91531269D01*
X143141781Y-91476692D01*
X143134588Y-91407193D01*
X143166110Y-91344839D01*
X143185405Y-91328119D01*
X143371082Y-91198105D01*
X143538105Y-91031082D01*
X143673600Y-90837578D01*
X143773429Y-90623492D01*
X143773432Y-90623486D01*
X143830636Y-90410000D01*
X142933012Y-90410000D01*
X142965925Y-90352993D01*
X143000000Y-90225826D01*
X143000000Y-90094174D01*
X142965925Y-89967007D01*
X142933012Y-89910000D01*
X143830636Y-89910000D01*
X143830635Y-89909999D01*
X143773432Y-89696513D01*
X143773429Y-89696507D01*
X143673600Y-89482422D01*
X143673599Y-89482420D01*
X143538113Y-89288926D01*
X143538108Y-89288920D01*
X143371078Y-89121890D01*
X143185405Y-88991879D01*
X143141780Y-88937302D01*
X143134588Y-88867804D01*
X143166110Y-88805449D01*
X143185406Y-88788730D01*
X143187234Y-88787450D01*
X143371401Y-88658495D01*
X143538495Y-88491401D01*
X143674035Y-88297830D01*
X143773903Y-88083663D01*
X143835063Y-87855408D01*
X143855659Y-87620000D01*
X143835063Y-87384592D01*
X143773903Y-87156337D01*
X143674035Y-86942171D01*
X143642798Y-86897560D01*
X143538496Y-86748600D01*
X143494103Y-86704207D01*
X143416567Y-86626671D01*
X143383084Y-86565351D01*
X143388068Y-86495659D01*
X143429939Y-86439725D01*
X143460915Y-86422810D01*
X143592331Y-86373796D01*
X143707546Y-86287546D01*
X143793796Y-86172331D01*
X143844091Y-86037483D01*
X143850500Y-85977873D01*
X143850499Y-84182128D01*
X143844091Y-84122517D01*
X143819854Y-84057535D01*
X143793797Y-83987671D01*
X143793793Y-83987664D01*
X143707547Y-83872455D01*
X143707544Y-83872452D01*
X143592335Y-83786206D01*
X143592328Y-83786202D01*
X143457482Y-83735908D01*
X143457483Y-83735908D01*
X143397883Y-83729501D01*
X143397881Y-83729500D01*
X143397873Y-83729500D01*
X143397865Y-83729500D01*
X142499096Y-83729500D01*
X142432057Y-83709815D01*
X142386302Y-83657011D01*
X142376358Y-83587853D01*
X142405383Y-83524297D01*
X142411415Y-83517819D01*
X143268134Y-82661101D01*
X146392417Y-79536819D01*
X146453740Y-79503334D01*
X146480098Y-79500500D01*
X150298308Y-79500500D01*
X150365347Y-79520185D01*
X150399880Y-79553374D01*
X150450383Y-79625500D01*
X150529954Y-79739141D01*
X150690858Y-79900045D01*
X150690861Y-79900047D01*
X150877266Y-80030568D01*
X151083504Y-80126739D01*
X151303308Y-80185635D01*
X151465230Y-80199801D01*
X151529998Y-80205468D01*
X151530000Y-80205468D01*
X151530002Y-80205468D01*
X151586673Y-80200509D01*
X151756692Y-80185635D01*
X151976496Y-80126739D01*
X152182734Y-80030568D01*
X152369139Y-79900047D01*
X152530047Y-79739139D01*
X152660568Y-79552734D01*
X152756739Y-79346496D01*
X152815635Y-79126692D01*
X152835468Y-78900000D01*
X152835468Y-78899998D01*
X165464532Y-78899998D01*
X165464532Y-78900001D01*
X165484364Y-79126686D01*
X165484366Y-79126697D01*
X165543258Y-79346488D01*
X165543261Y-79346497D01*
X165639431Y-79552732D01*
X165639432Y-79552734D01*
X165769954Y-79739141D01*
X165930858Y-79900045D01*
X165930861Y-79900047D01*
X166117266Y-80030568D01*
X166323504Y-80126739D01*
X166543308Y-80185635D01*
X166705230Y-80199801D01*
X166769998Y-80205468D01*
X166770000Y-80205468D01*
X166770002Y-80205468D01*
X166826673Y-80200509D01*
X166996692Y-80185635D01*
X167216496Y-80126739D01*
X167422734Y-80030568D01*
X167609139Y-79900047D01*
X167770047Y-79739139D01*
X167900568Y-79552734D01*
X167925972Y-79498254D01*
X167961487Y-79422095D01*
X168007660Y-79369656D01*
X168073869Y-79350500D01*
X170283199Y-79350500D01*
X170350238Y-79370185D01*
X170392253Y-79415481D01*
X170394075Y-79418848D01*
X170521016Y-79613147D01*
X170521019Y-79613151D01*
X170521021Y-79613153D01*
X170678216Y-79783913D01*
X170678219Y-79783915D01*
X170678222Y-79783918D01*
X170861365Y-79926464D01*
X170861371Y-79926468D01*
X170861374Y-79926470D01*
X171065497Y-80036936D01*
X171154358Y-80067442D01*
X171285015Y-80112297D01*
X171285017Y-80112297D01*
X171285019Y-80112298D01*
X171513951Y-80150500D01*
X171513952Y-80150500D01*
X171746048Y-80150500D01*
X171746049Y-80150500D01*
X171974981Y-80112298D01*
X172194503Y-80036936D01*
X172398626Y-79926470D01*
X172432575Y-79900047D01*
X172460129Y-79878600D01*
X172581784Y-79783913D01*
X172590511Y-79774432D01*
X172650394Y-79738441D01*
X172720232Y-79740538D01*
X172777850Y-79780060D01*
X172797924Y-79815080D01*
X172826645Y-79892086D01*
X172826649Y-79892093D01*
X172912809Y-80007187D01*
X172912812Y-80007190D01*
X173027906Y-80093350D01*
X173027913Y-80093354D01*
X173162620Y-80143596D01*
X173162627Y-80143598D01*
X173222155Y-80149999D01*
X173222172Y-80150000D01*
X173920000Y-80150000D01*
X173920000Y-79125277D01*
X173996306Y-79169333D01*
X174110756Y-79200000D01*
X174229244Y-79200000D01*
X174343694Y-79169333D01*
X174420000Y-79125277D01*
X174420000Y-80150000D01*
X175117828Y-80150000D01*
X175117844Y-80149999D01*
X175177372Y-80143598D01*
X175177379Y-80143596D01*
X175312086Y-80093354D01*
X175312093Y-80093350D01*
X175427187Y-80007190D01*
X175427190Y-80007187D01*
X175513350Y-79892093D01*
X175513354Y-79892086D01*
X175563596Y-79757379D01*
X175563598Y-79757372D01*
X175569999Y-79697844D01*
X175570000Y-79697827D01*
X175570000Y-79000000D01*
X174545278Y-79000000D01*
X174589333Y-78923694D01*
X174620000Y-78809244D01*
X174620000Y-78690756D01*
X174589333Y-78576306D01*
X174545278Y-78500000D01*
X175570000Y-78500000D01*
X175570000Y-77802172D01*
X175569999Y-77802155D01*
X175563598Y-77742627D01*
X175563596Y-77742620D01*
X175513354Y-77607913D01*
X175513350Y-77607906D01*
X175427190Y-77492812D01*
X175427187Y-77492809D01*
X175312093Y-77406649D01*
X175312086Y-77406645D01*
X175177379Y-77356403D01*
X175177372Y-77356401D01*
X175117844Y-77350000D01*
X174420000Y-77350000D01*
X174420000Y-78374722D01*
X174343694Y-78330667D01*
X174229244Y-78300000D01*
X174110756Y-78300000D01*
X173996306Y-78330667D01*
X173920000Y-78374722D01*
X173920000Y-77350000D01*
X173222155Y-77350000D01*
X173162627Y-77356401D01*
X173162620Y-77356403D01*
X173027913Y-77406645D01*
X173027906Y-77406649D01*
X172912812Y-77492809D01*
X172912809Y-77492812D01*
X172826649Y-77607906D01*
X172826646Y-77607911D01*
X172797924Y-77684920D01*
X172756052Y-77740853D01*
X172690588Y-77765270D01*
X172622315Y-77750418D01*
X172590514Y-77725571D01*
X172581784Y-77716087D01*
X172581779Y-77716083D01*
X172581777Y-77716081D01*
X172398634Y-77573535D01*
X172398628Y-77573531D01*
X172194504Y-77463064D01*
X172194495Y-77463061D01*
X171974984Y-77387702D01*
X171787404Y-77356401D01*
X171746049Y-77349500D01*
X171513951Y-77349500D01*
X171472596Y-77356401D01*
X171285015Y-77387702D01*
X171065504Y-77463061D01*
X171065495Y-77463064D01*
X170861371Y-77573531D01*
X170861365Y-77573535D01*
X170678222Y-77716081D01*
X170678219Y-77716084D01*
X170678216Y-77716086D01*
X170678216Y-77716087D01*
X170653791Y-77742620D01*
X170521016Y-77886852D01*
X170394075Y-78081151D01*
X170392253Y-78084519D01*
X170343033Y-78134109D01*
X170283199Y-78149500D01*
X167896663Y-78149500D01*
X167829624Y-78129815D01*
X167795088Y-78096623D01*
X167770045Y-78060858D01*
X167609141Y-77899954D01*
X167422734Y-77769432D01*
X167422732Y-77769431D01*
X167216497Y-77673261D01*
X167216488Y-77673258D01*
X166996697Y-77614366D01*
X166996693Y-77614365D01*
X166996692Y-77614365D01*
X166996691Y-77614364D01*
X166996686Y-77614364D01*
X166770002Y-77594532D01*
X166769998Y-77594532D01*
X166543313Y-77614364D01*
X166543302Y-77614366D01*
X166323511Y-77673258D01*
X166323502Y-77673261D01*
X166117267Y-77769431D01*
X166117265Y-77769432D01*
X165930858Y-77899954D01*
X165769954Y-78060858D01*
X165639432Y-78247265D01*
X165639431Y-78247267D01*
X165543261Y-78453502D01*
X165543258Y-78453511D01*
X165484366Y-78673302D01*
X165484364Y-78673313D01*
X165464532Y-78899998D01*
X152835468Y-78899998D01*
X152815635Y-78673308D01*
X152756739Y-78453504D01*
X152660568Y-78247266D01*
X152530047Y-78060861D01*
X152530045Y-78060858D01*
X152369141Y-77899954D01*
X152182734Y-77769432D01*
X152182732Y-77769431D01*
X151976497Y-77673261D01*
X151976488Y-77673258D01*
X151756697Y-77614366D01*
X151756693Y-77614365D01*
X151756692Y-77614365D01*
X151756691Y-77614364D01*
X151756686Y-77614364D01*
X151530002Y-77594532D01*
X151529998Y-77594532D01*
X151303313Y-77614364D01*
X151303302Y-77614366D01*
X151083511Y-77673258D01*
X151083502Y-77673261D01*
X150877267Y-77769431D01*
X150877265Y-77769432D01*
X150690858Y-77899954D01*
X150529954Y-78060858D01*
X150467888Y-78149500D01*
X150399881Y-78246624D01*
X150345307Y-78290248D01*
X150298308Y-78299500D01*
X146266670Y-78299500D01*
X146266654Y-78299499D01*
X146259058Y-78299499D01*
X146100943Y-78299499D01*
X145999125Y-78326781D01*
X145948215Y-78340423D01*
X145854389Y-78394593D01*
X145786489Y-78411064D01*
X145720462Y-78388212D01*
X145677272Y-78333290D01*
X145670631Y-78263737D01*
X145702648Y-78201634D01*
X145704666Y-78199567D01*
X151012294Y-72891939D01*
X151073615Y-72858456D01*
X151132066Y-72859847D01*
X151151604Y-72865082D01*
X151228308Y-72885635D01*
X151390230Y-72899801D01*
X151454998Y-72905468D01*
X151455000Y-72905468D01*
X151455002Y-72905468D01*
X151511673Y-72900509D01*
X151681692Y-72885635D01*
X151901496Y-72826739D01*
X152107734Y-72730568D01*
X152294139Y-72600047D01*
X152455047Y-72439139D01*
X152585568Y-72252734D01*
X152681739Y-72046496D01*
X152740635Y-71826692D01*
X152760468Y-71600000D01*
X152760468Y-71599998D01*
X165389532Y-71599998D01*
X165389532Y-71600001D01*
X165409364Y-71826686D01*
X165409366Y-71826697D01*
X165468258Y-72046488D01*
X165468261Y-72046497D01*
X165564431Y-72252732D01*
X165564432Y-72252734D01*
X165694954Y-72439141D01*
X165855858Y-72600045D01*
X165855861Y-72600047D01*
X166042266Y-72730568D01*
X166248504Y-72826739D01*
X166468308Y-72885635D01*
X166630230Y-72899801D01*
X166694998Y-72905468D01*
X166695000Y-72905468D01*
X166695002Y-72905468D01*
X166751673Y-72900509D01*
X166921692Y-72885635D01*
X167141496Y-72826739D01*
X167347734Y-72730568D01*
X167534139Y-72600047D01*
X167695047Y-72439139D01*
X167825568Y-72252734D01*
X167921739Y-72046496D01*
X167980635Y-71826692D01*
X167981335Y-71818689D01*
X168006789Y-71753622D01*
X168063381Y-71712645D01*
X168104863Y-71705500D01*
X170413199Y-71705500D01*
X170480238Y-71725185D01*
X170522253Y-71770481D01*
X170524075Y-71773848D01*
X170651016Y-71968147D01*
X170651019Y-71968151D01*
X170651021Y-71968153D01*
X170808216Y-72138913D01*
X170808219Y-72138915D01*
X170808222Y-72138918D01*
X170991365Y-72281464D01*
X170991371Y-72281468D01*
X170991374Y-72281470D01*
X171195497Y-72391936D01*
X171309487Y-72431068D01*
X171415015Y-72467297D01*
X171415017Y-72467297D01*
X171415019Y-72467298D01*
X171643951Y-72505500D01*
X171643952Y-72505500D01*
X171876048Y-72505500D01*
X171876049Y-72505500D01*
X172104981Y-72467298D01*
X172324503Y-72391936D01*
X172528626Y-72281470D01*
X172575617Y-72244896D01*
X172671740Y-72170080D01*
X172711784Y-72138913D01*
X172720511Y-72129432D01*
X172780394Y-72093441D01*
X172850232Y-72095538D01*
X172907850Y-72135060D01*
X172927924Y-72170080D01*
X172956645Y-72247086D01*
X172956649Y-72247093D01*
X173042809Y-72362187D01*
X173042812Y-72362190D01*
X173157906Y-72448350D01*
X173157913Y-72448354D01*
X173292620Y-72498596D01*
X173292627Y-72498598D01*
X173352155Y-72504999D01*
X173352172Y-72505000D01*
X174050000Y-72505000D01*
X174050000Y-71480277D01*
X174126306Y-71524333D01*
X174240756Y-71555000D01*
X174359244Y-71555000D01*
X174473694Y-71524333D01*
X174550000Y-71480277D01*
X174550000Y-72505000D01*
X175247828Y-72505000D01*
X175247844Y-72504999D01*
X175307372Y-72498598D01*
X175307379Y-72498596D01*
X175442086Y-72448354D01*
X175442093Y-72448350D01*
X175557187Y-72362190D01*
X175557190Y-72362187D01*
X175643350Y-72247093D01*
X175643354Y-72247086D01*
X175693596Y-72112379D01*
X175693598Y-72112372D01*
X175699999Y-72052844D01*
X175700000Y-72052827D01*
X175700000Y-71355000D01*
X174675278Y-71355000D01*
X174719333Y-71278694D01*
X174750000Y-71164244D01*
X174750000Y-71045756D01*
X174719333Y-70931306D01*
X174675278Y-70855000D01*
X175700000Y-70855000D01*
X175700000Y-70157172D01*
X175699999Y-70157155D01*
X175693598Y-70097627D01*
X175693596Y-70097620D01*
X175643354Y-69962913D01*
X175643350Y-69962906D01*
X175557190Y-69847812D01*
X175557187Y-69847809D01*
X175442093Y-69761649D01*
X175442086Y-69761645D01*
X175307379Y-69711403D01*
X175307372Y-69711401D01*
X175247844Y-69705000D01*
X174550000Y-69705000D01*
X174550000Y-70729722D01*
X174473694Y-70685667D01*
X174359244Y-70655000D01*
X174240756Y-70655000D01*
X174126306Y-70685667D01*
X174050000Y-70729722D01*
X174050000Y-69705000D01*
X173352155Y-69705000D01*
X173292627Y-69711401D01*
X173292620Y-69711403D01*
X173157913Y-69761645D01*
X173157906Y-69761649D01*
X173042812Y-69847809D01*
X173042809Y-69847812D01*
X172956649Y-69962906D01*
X172956646Y-69962911D01*
X172927924Y-70039920D01*
X172886052Y-70095853D01*
X172820588Y-70120270D01*
X172752315Y-70105418D01*
X172720514Y-70080571D01*
X172711784Y-70071087D01*
X172711779Y-70071083D01*
X172711777Y-70071081D01*
X172528634Y-69928535D01*
X172528628Y-69928531D01*
X172324504Y-69818064D01*
X172324495Y-69818061D01*
X172104984Y-69742702D01*
X171917404Y-69711401D01*
X171876049Y-69704500D01*
X171643951Y-69704500D01*
X171602596Y-69711401D01*
X171415015Y-69742702D01*
X171195504Y-69818061D01*
X171195495Y-69818064D01*
X170991371Y-69928531D01*
X170991365Y-69928535D01*
X170808222Y-70071081D01*
X170808219Y-70071084D01*
X170808216Y-70071086D01*
X170808216Y-70071087D01*
X170783791Y-70097620D01*
X170651016Y-70241852D01*
X170524075Y-70436151D01*
X170522253Y-70439519D01*
X170473033Y-70489109D01*
X170413199Y-70504500D01*
X167436913Y-70504500D01*
X167369874Y-70484815D01*
X167365809Y-70482088D01*
X167347734Y-70469432D01*
X167283586Y-70439519D01*
X167141497Y-70373261D01*
X167141488Y-70373258D01*
X166921697Y-70314366D01*
X166921693Y-70314365D01*
X166921692Y-70314365D01*
X166921691Y-70314364D01*
X166921686Y-70314364D01*
X166695002Y-70294532D01*
X166694998Y-70294532D01*
X166468313Y-70314364D01*
X166468302Y-70314366D01*
X166248511Y-70373258D01*
X166248502Y-70373261D01*
X166042267Y-70469431D01*
X166042265Y-70469432D01*
X165855858Y-70599954D01*
X165694954Y-70760858D01*
X165564432Y-70947265D01*
X165564431Y-70947267D01*
X165468261Y-71153502D01*
X165468258Y-71153511D01*
X165409366Y-71373302D01*
X165409364Y-71373313D01*
X165389532Y-71599998D01*
X152760468Y-71599998D01*
X152740635Y-71373308D01*
X152681739Y-71153504D01*
X152585568Y-70947266D01*
X152455047Y-70760861D01*
X152455045Y-70760858D01*
X152294141Y-70599954D01*
X152107734Y-70469432D01*
X152107732Y-70469431D01*
X151901497Y-70373261D01*
X151901488Y-70373258D01*
X151681697Y-70314366D01*
X151681693Y-70314365D01*
X151681692Y-70314365D01*
X151681691Y-70314364D01*
X151681686Y-70314364D01*
X151455002Y-70294532D01*
X151454998Y-70294532D01*
X151228313Y-70314364D01*
X151228302Y-70314366D01*
X151008511Y-70373258D01*
X151008502Y-70373261D01*
X150802267Y-70469431D01*
X150802265Y-70469432D01*
X150615858Y-70599954D01*
X150454954Y-70760858D01*
X150324432Y-70947265D01*
X150324431Y-70947267D01*
X150228261Y-71153502D01*
X150228258Y-71153511D01*
X150169366Y-71373302D01*
X150169364Y-71373313D01*
X150149532Y-71599998D01*
X150149532Y-71600001D01*
X150169364Y-71826686D01*
X150169366Y-71826697D01*
X150195152Y-71922931D01*
X150193489Y-71992781D01*
X150163058Y-72042705D01*
X137758903Y-84446860D01*
X137697580Y-84480345D01*
X137630268Y-84476221D01*
X137454257Y-84414632D01*
X137454249Y-84414630D01*
X137275004Y-84394435D01*
X137274996Y-84394435D01*
X137095750Y-84414630D01*
X137095745Y-84414631D01*
X136925476Y-84474211D01*
X136772737Y-84570184D01*
X136645184Y-84697737D01*
X136549211Y-84850476D01*
X136489631Y-85020745D01*
X136489630Y-85020750D01*
X136469435Y-85199996D01*
X136469435Y-85200003D01*
X136489630Y-85379249D01*
X136489631Y-85379254D01*
X136549211Y-85549523D01*
X136636809Y-85688934D01*
X136645184Y-85702262D01*
X136772738Y-85829816D01*
X136925478Y-85925789D01*
X137074300Y-85977864D01*
X137095745Y-85985368D01*
X137095750Y-85985369D01*
X137274996Y-86005565D01*
X137275000Y-86005565D01*
X137275004Y-86005565D01*
X137454249Y-85985369D01*
X137454252Y-85985368D01*
X137454255Y-85985368D01*
X137624522Y-85925789D01*
X137777262Y-85829816D01*
X137777266Y-85829811D01*
X137780097Y-85827555D01*
X137782275Y-85826665D01*
X137783158Y-85826111D01*
X137783255Y-85826265D01*
X137844784Y-85801146D01*
X137857411Y-85800501D01*
X137934054Y-85800501D01*
X137934057Y-85800501D01*
X138086785Y-85759577D01*
X138136904Y-85730639D01*
X138180610Y-85705406D01*
X138248507Y-85688934D01*
X138314534Y-85711787D01*
X138357725Y-85766708D01*
X138364366Y-85836261D01*
X138332350Y-85898364D01*
X138330288Y-85900475D01*
X135657380Y-88573384D01*
X135596057Y-88606869D01*
X135526365Y-88601885D01*
X135470432Y-88560013D01*
X135446015Y-88494549D01*
X135445699Y-88485703D01*
X135445699Y-87339329D01*
X135445698Y-87339323D01*
X135445697Y-87339316D01*
X135439291Y-87279717D01*
X135410056Y-87201335D01*
X135388997Y-87144871D01*
X135388993Y-87144864D01*
X135302747Y-87029655D01*
X135302744Y-87029652D01*
X135223682Y-86970466D01*
X135181811Y-86914533D01*
X135176827Y-86844841D01*
X135210313Y-86783518D01*
X135223682Y-86771934D01*
X135268615Y-86738296D01*
X135302746Y-86712746D01*
X135388996Y-86597531D01*
X135439291Y-86462683D01*
X135445700Y-86403073D01*
X135445699Y-84799328D01*
X135439291Y-84739717D01*
X135423633Y-84697737D01*
X135388997Y-84604871D01*
X135388993Y-84604864D01*
X135302747Y-84489655D01*
X135302744Y-84489652D01*
X135223682Y-84430466D01*
X135181811Y-84374533D01*
X135176827Y-84304841D01*
X135210313Y-84243518D01*
X135223682Y-84231934D01*
X135290220Y-84182123D01*
X135302746Y-84172746D01*
X135388996Y-84057531D01*
X135439291Y-83922683D01*
X135445700Y-83863073D01*
X135445699Y-82259328D01*
X135439291Y-82199717D01*
X135410315Y-82122029D01*
X135388997Y-82064871D01*
X135388993Y-82064864D01*
X135302747Y-81949655D01*
X135302744Y-81949652D01*
X135223682Y-81890466D01*
X135181811Y-81834533D01*
X135176827Y-81764841D01*
X135210313Y-81703518D01*
X135223682Y-81691934D01*
X135268615Y-81658296D01*
X135302746Y-81632746D01*
X135388996Y-81517531D01*
X135439291Y-81382683D01*
X135445700Y-81323073D01*
X135445699Y-79719328D01*
X135439291Y-79659717D01*
X135426576Y-79625627D01*
X135388997Y-79524871D01*
X135388993Y-79524864D01*
X135302747Y-79409655D01*
X135302744Y-79409652D01*
X135223682Y-79350466D01*
X135181811Y-79294533D01*
X135176827Y-79224841D01*
X135210313Y-79163518D01*
X135223682Y-79151934D01*
X135279577Y-79110090D01*
X135302746Y-79092746D01*
X135388996Y-78977531D01*
X135439291Y-78842683D01*
X135445700Y-78783073D01*
X135445699Y-77179328D01*
X135439291Y-77119717D01*
X135436196Y-77111420D01*
X135388997Y-76984871D01*
X135388993Y-76984864D01*
X135302747Y-76869655D01*
X135302744Y-76869652D01*
X135223682Y-76810466D01*
X135181811Y-76754533D01*
X135176827Y-76684841D01*
X135210313Y-76623518D01*
X135223682Y-76611934D01*
X135271231Y-76576338D01*
X135302746Y-76552746D01*
X135388996Y-76437531D01*
X135439291Y-76302683D01*
X135444692Y-76252441D01*
X135471429Y-76187894D01*
X135528821Y-76148046D01*
X135567981Y-76141700D01*
X139924681Y-76141700D01*
X139991720Y-76161385D01*
X140012362Y-76178019D01*
X140133630Y-76299287D01*
X140162990Y-76346013D01*
X140199209Y-76449519D01*
X140264070Y-76552744D01*
X140295184Y-76602262D01*
X140422738Y-76729816D01*
X140575478Y-76825789D01*
X140629589Y-76844723D01*
X140686366Y-76885444D01*
X140712114Y-76950396D01*
X140698659Y-77018958D01*
X140676317Y-77049446D01*
X138781465Y-78944298D01*
X138720142Y-78977783D01*
X138707668Y-78979837D01*
X138620750Y-78989630D01*
X138450478Y-79049210D01*
X138297737Y-79145184D01*
X138170184Y-79272737D01*
X138074211Y-79425476D01*
X138014631Y-79595745D01*
X138014630Y-79595750D01*
X137994435Y-79774996D01*
X137994435Y-79775003D01*
X138014630Y-79954249D01*
X138014631Y-79954254D01*
X138074211Y-80124523D01*
X138170184Y-80277262D01*
X138297738Y-80404816D01*
X138450478Y-80500789D01*
X138620745Y-80560368D01*
X138620750Y-80560369D01*
X138799996Y-80580565D01*
X138800000Y-80580565D01*
X138800004Y-80580565D01*
X138979249Y-80560369D01*
X138979252Y-80560368D01*
X138979255Y-80560368D01*
X139149522Y-80500789D01*
X139302262Y-80404816D01*
X139429816Y-80277262D01*
X139525789Y-80124522D01*
X139585368Y-79954255D01*
X139595161Y-79867329D01*
X139622226Y-79802918D01*
X139630690Y-79793543D01*
X151788506Y-67635728D01*
X151788511Y-67635724D01*
X151798714Y-67625520D01*
X151798716Y-67625520D01*
X151910520Y-67513716D01*
X151914187Y-67507363D01*
X151978939Y-67395211D01*
X151978940Y-67395208D01*
X151989577Y-67376785D01*
X152030500Y-67224058D01*
X152030500Y-67065943D01*
X152030500Y-65906692D01*
X152050185Y-65839653D01*
X152083374Y-65805119D01*
X152269139Y-65675047D01*
X152430047Y-65514139D01*
X152560568Y-65327734D01*
X152656739Y-65121496D01*
X152715635Y-64901692D01*
X152735468Y-64675000D01*
X152735468Y-64674998D01*
X165364532Y-64674998D01*
X165364532Y-64675001D01*
X165384364Y-64901686D01*
X165384366Y-64901697D01*
X165443258Y-65121488D01*
X165443261Y-65121497D01*
X165539431Y-65327732D01*
X165539432Y-65327734D01*
X165669954Y-65514141D01*
X165830858Y-65675045D01*
X165830861Y-65675047D01*
X166017266Y-65805568D01*
X166223504Y-65901739D01*
X166443308Y-65960635D01*
X166605230Y-65974801D01*
X166669998Y-65980468D01*
X166670000Y-65980468D01*
X166670002Y-65980468D01*
X166726673Y-65975509D01*
X166896692Y-65960635D01*
X167116496Y-65901739D01*
X167322734Y-65805568D01*
X167509139Y-65675047D01*
X167670047Y-65514139D01*
X167800568Y-65327734D01*
X167896739Y-65121496D01*
X167917931Y-65042407D01*
X167954296Y-64982746D01*
X168017143Y-64952217D01*
X168037706Y-64950500D01*
X170338199Y-64950500D01*
X170405238Y-64970185D01*
X170447253Y-65015481D01*
X170449075Y-65018848D01*
X170576016Y-65213147D01*
X170576019Y-65213151D01*
X170576021Y-65213153D01*
X170733216Y-65383913D01*
X170733219Y-65383915D01*
X170733222Y-65383918D01*
X170916365Y-65526464D01*
X170916371Y-65526468D01*
X170916374Y-65526470D01*
X171120497Y-65636936D01*
X171231505Y-65675045D01*
X171340015Y-65712297D01*
X171340017Y-65712297D01*
X171340019Y-65712298D01*
X171568951Y-65750500D01*
X171568952Y-65750500D01*
X171801048Y-65750500D01*
X171801049Y-65750500D01*
X172029981Y-65712298D01*
X172249503Y-65636936D01*
X172453626Y-65526470D01*
X172469467Y-65514141D01*
X172596740Y-65415080D01*
X172636784Y-65383913D01*
X172645511Y-65374432D01*
X172705394Y-65338441D01*
X172775232Y-65340538D01*
X172832850Y-65380060D01*
X172852924Y-65415080D01*
X172881645Y-65492086D01*
X172881649Y-65492093D01*
X172967809Y-65607187D01*
X172967812Y-65607190D01*
X173082906Y-65693350D01*
X173082913Y-65693354D01*
X173217620Y-65743596D01*
X173217627Y-65743598D01*
X173277155Y-65749999D01*
X173277172Y-65750000D01*
X173975000Y-65750000D01*
X173975000Y-64725277D01*
X174051306Y-64769333D01*
X174165756Y-64800000D01*
X174284244Y-64800000D01*
X174398694Y-64769333D01*
X174475000Y-64725277D01*
X174475000Y-65750000D01*
X175172828Y-65750000D01*
X175172844Y-65749999D01*
X175232372Y-65743598D01*
X175232379Y-65743596D01*
X175367086Y-65693354D01*
X175367093Y-65693350D01*
X175482187Y-65607190D01*
X175482190Y-65607187D01*
X175568350Y-65492093D01*
X175568354Y-65492086D01*
X175618596Y-65357379D01*
X175618598Y-65357372D01*
X175624999Y-65297844D01*
X175625000Y-65297827D01*
X175625000Y-64600000D01*
X174600278Y-64600000D01*
X174644333Y-64523694D01*
X174675000Y-64409244D01*
X174675000Y-64290756D01*
X174644333Y-64176306D01*
X174600278Y-64100000D01*
X175625000Y-64100000D01*
X175625000Y-63402172D01*
X175624999Y-63402155D01*
X175618598Y-63342627D01*
X175618596Y-63342620D01*
X175568354Y-63207913D01*
X175568350Y-63207906D01*
X175482190Y-63092812D01*
X175482187Y-63092809D01*
X175367093Y-63006649D01*
X175367086Y-63006645D01*
X175232379Y-62956403D01*
X175232372Y-62956401D01*
X175172844Y-62950000D01*
X174475000Y-62950000D01*
X174475000Y-63974722D01*
X174398694Y-63930667D01*
X174284244Y-63900000D01*
X174165756Y-63900000D01*
X174051306Y-63930667D01*
X173975000Y-63974722D01*
X173975000Y-62950000D01*
X173277155Y-62950000D01*
X173217627Y-62956401D01*
X173217620Y-62956403D01*
X173082913Y-63006645D01*
X173082906Y-63006649D01*
X172967812Y-63092809D01*
X172967809Y-63092812D01*
X172881649Y-63207906D01*
X172881646Y-63207911D01*
X172852924Y-63284920D01*
X172811052Y-63340853D01*
X172745588Y-63365270D01*
X172677315Y-63350418D01*
X172645514Y-63325571D01*
X172636784Y-63316087D01*
X172636779Y-63316083D01*
X172636777Y-63316081D01*
X172453634Y-63173535D01*
X172453628Y-63173531D01*
X172249504Y-63063064D01*
X172249495Y-63063061D01*
X172029984Y-62987702D01*
X171842404Y-62956401D01*
X171801049Y-62949500D01*
X171568951Y-62949500D01*
X171527596Y-62956401D01*
X171340015Y-62987702D01*
X171120504Y-63063061D01*
X171120495Y-63063064D01*
X170916371Y-63173531D01*
X170916365Y-63173535D01*
X170733222Y-63316081D01*
X170733219Y-63316084D01*
X170733216Y-63316086D01*
X170733216Y-63316087D01*
X170708791Y-63342620D01*
X170576016Y-63486852D01*
X170449075Y-63681151D01*
X170447253Y-63684519D01*
X170398033Y-63734109D01*
X170338199Y-63749500D01*
X167635048Y-63749500D01*
X167568009Y-63729815D01*
X167547366Y-63713180D01*
X167509140Y-63674953D01*
X167322734Y-63544432D01*
X167322732Y-63544431D01*
X167116497Y-63448261D01*
X167116488Y-63448258D01*
X166896697Y-63389366D01*
X166896693Y-63389365D01*
X166896692Y-63389365D01*
X166896691Y-63389364D01*
X166896686Y-63389364D01*
X166670002Y-63369532D01*
X166669998Y-63369532D01*
X166443313Y-63389364D01*
X166443302Y-63389366D01*
X166223511Y-63448258D01*
X166223502Y-63448261D01*
X166017267Y-63544431D01*
X166017265Y-63544432D01*
X165830858Y-63674954D01*
X165669954Y-63835858D01*
X165539432Y-64022265D01*
X165539431Y-64022267D01*
X165443261Y-64228502D01*
X165443258Y-64228511D01*
X165384366Y-64448302D01*
X165384364Y-64448313D01*
X165364532Y-64674998D01*
X152735468Y-64674998D01*
X152715635Y-64448308D01*
X152656739Y-64228504D01*
X152560568Y-64022266D01*
X152430047Y-63835861D01*
X152430045Y-63835858D01*
X152269141Y-63674954D01*
X152082734Y-63544432D01*
X152082732Y-63544431D01*
X151876497Y-63448261D01*
X151876488Y-63448258D01*
X151656697Y-63389366D01*
X151656693Y-63389365D01*
X151656692Y-63389365D01*
X151656691Y-63389364D01*
X151656686Y-63389364D01*
X151430002Y-63369532D01*
X151429998Y-63369532D01*
X151203313Y-63389364D01*
X151203302Y-63389366D01*
X150983511Y-63448258D01*
X150983502Y-63448261D01*
X150777267Y-63544431D01*
X150777265Y-63544432D01*
X150590858Y-63674954D01*
X150429954Y-63835858D01*
X150299432Y-64022265D01*
X150299431Y-64022267D01*
X150203261Y-64228502D01*
X150203258Y-64228511D01*
X150144366Y-64448302D01*
X150144364Y-64448313D01*
X150124532Y-64674998D01*
X150124532Y-64675001D01*
X150144364Y-64901686D01*
X150144366Y-64901697D01*
X150203258Y-65121488D01*
X150203261Y-65121497D01*
X150299431Y-65327732D01*
X150299432Y-65327734D01*
X150429954Y-65514141D01*
X150590858Y-65675045D01*
X150590861Y-65675047D01*
X150776624Y-65805118D01*
X150820248Y-65859693D01*
X150829500Y-65906692D01*
X150829500Y-66844902D01*
X150809815Y-66911941D01*
X150793181Y-66932583D01*
X141874446Y-75851317D01*
X141813123Y-75884802D01*
X141743431Y-75879818D01*
X141687498Y-75837946D01*
X141669723Y-75804589D01*
X141650789Y-75750479D01*
X141650789Y-75750478D01*
X141554816Y-75597738D01*
X141427262Y-75470184D01*
X141336819Y-75413355D01*
X141274519Y-75374209D01*
X141171013Y-75337990D01*
X141124287Y-75308630D01*
X140712746Y-74897088D01*
X140712745Y-74897087D01*
X140598007Y-74820422D01*
X140470532Y-74767621D01*
X140470522Y-74767618D01*
X140335196Y-74740700D01*
X140335194Y-74740700D01*
X140335193Y-74740700D01*
X135567981Y-74740700D01*
X135500942Y-74721015D01*
X135455187Y-74668211D01*
X135444691Y-74629953D01*
X135439291Y-74579716D01*
X135388997Y-74444871D01*
X135388993Y-74444864D01*
X135302747Y-74329655D01*
X135302744Y-74329652D01*
X135223682Y-74270466D01*
X135181811Y-74214533D01*
X135176827Y-74144841D01*
X135210313Y-74083518D01*
X135223682Y-74071934D01*
X135268615Y-74038296D01*
X135302746Y-74012746D01*
X135388996Y-73897531D01*
X135439291Y-73762683D01*
X135445700Y-73703073D01*
X135445699Y-72099328D01*
X135439291Y-72039717D01*
X135412599Y-71968153D01*
X135388997Y-71904871D01*
X135388993Y-71904864D01*
X135302747Y-71789655D01*
X135223264Y-71730153D01*
X135181394Y-71674219D01*
X135176410Y-71604527D01*
X135209896Y-71543204D01*
X135223265Y-71531620D01*
X135302391Y-71472386D01*
X135388550Y-71357293D01*
X135388554Y-71357286D01*
X135438796Y-71222579D01*
X135438798Y-71222572D01*
X135445199Y-71163044D01*
X135445200Y-71163027D01*
X135445200Y-70611200D01*
X134624212Y-70611200D01*
X134657125Y-70554193D01*
X134691200Y-70427026D01*
X134691200Y-70295374D01*
X134657125Y-70168207D01*
X134624212Y-70111200D01*
X135445200Y-70111200D01*
X135445200Y-69559372D01*
X135445199Y-69559355D01*
X135438798Y-69499827D01*
X135438796Y-69499820D01*
X135388554Y-69365113D01*
X135388550Y-69365106D01*
X135302390Y-69250012D01*
X135302387Y-69250009D01*
X135223265Y-69190778D01*
X135181394Y-69134844D01*
X135176410Y-69065153D01*
X135209896Y-69003830D01*
X135223264Y-68992246D01*
X135302746Y-68932746D01*
X135388996Y-68817531D01*
X135439291Y-68682683D01*
X135445700Y-68623073D01*
X135445699Y-67019328D01*
X135439291Y-66959717D01*
X135396003Y-66843657D01*
X135388997Y-66824871D01*
X135388993Y-66824864D01*
X135302747Y-66709655D01*
X135302744Y-66709652D01*
X135223682Y-66650466D01*
X135181811Y-66594533D01*
X135176827Y-66524841D01*
X135210313Y-66463518D01*
X135223682Y-66451934D01*
X135277268Y-66411819D01*
X135302746Y-66392746D01*
X135388996Y-66277531D01*
X135439291Y-66142683D01*
X135445700Y-66083073D01*
X135445699Y-64479328D01*
X135439291Y-64419717D01*
X135413288Y-64350000D01*
X135388997Y-64284871D01*
X135388993Y-64284864D01*
X135302747Y-64169655D01*
X135302744Y-64169652D01*
X135187535Y-64083406D01*
X135187528Y-64083402D01*
X135052682Y-64033108D01*
X135052683Y-64033108D01*
X134993083Y-64026701D01*
X134993081Y-64026700D01*
X134993073Y-64026700D01*
X134993064Y-64026700D01*
X133389329Y-64026700D01*
X133389323Y-64026701D01*
X133329716Y-64033108D01*
X133194871Y-64083402D01*
X133194864Y-64083406D01*
X133079655Y-64169652D01*
X133079652Y-64169655D01*
X132993406Y-64284864D01*
X132993402Y-64284871D01*
X132943108Y-64419717D01*
X132940034Y-64448313D01*
X132936701Y-64479323D01*
X132936700Y-64479335D01*
X132936700Y-66083070D01*
X132936701Y-66083076D01*
X132943108Y-66142683D01*
X132993402Y-66277528D01*
X132993406Y-66277535D01*
X133079652Y-66392744D01*
X133079653Y-66392744D01*
X133079654Y-66392746D01*
X133105132Y-66411819D01*
X133158718Y-66451934D01*
X133200588Y-66507868D01*
X133205572Y-66577560D01*
X133172086Y-66638883D01*
X133158718Y-66650466D01*
X133079652Y-66709655D01*
X132993406Y-66824864D01*
X132993402Y-66824871D01*
X132943108Y-66959717D01*
X132942249Y-66967712D01*
X132936701Y-67019323D01*
X132936700Y-67019335D01*
X132936700Y-68623070D01*
X132936701Y-68623076D01*
X132943108Y-68682683D01*
X132993402Y-68817528D01*
X132993406Y-68817535D01*
X133079652Y-68932744D01*
X133079653Y-68932744D01*
X133079654Y-68932746D01*
X133119978Y-68962932D01*
X133159135Y-68992246D01*
X133201005Y-69048180D01*
X133205989Y-69117872D01*
X133172503Y-69179194D01*
X133159135Y-69190778D01*
X133080009Y-69250012D01*
X132993849Y-69365106D01*
X132993845Y-69365113D01*
X132943603Y-69499820D01*
X132943601Y-69499827D01*
X132937200Y-69559355D01*
X132937200Y-70111200D01*
X133758188Y-70111200D01*
X133725275Y-70168207D01*
X133691200Y-70295374D01*
X133691200Y-70427026D01*
X133725275Y-70554193D01*
X133758188Y-70611200D01*
X132937200Y-70611200D01*
X132937200Y-71163044D01*
X132943601Y-71222572D01*
X132943603Y-71222579D01*
X132993845Y-71357286D01*
X132993849Y-71357293D01*
X133080009Y-71472386D01*
X133159134Y-71531620D01*
X133201005Y-71587554D01*
X133205989Y-71657246D01*
X133172504Y-71718569D01*
X133159135Y-71730153D01*
X133079652Y-71789655D01*
X132993406Y-71904864D01*
X132993402Y-71904871D01*
X132943108Y-72039717D01*
X132939854Y-72069989D01*
X132936701Y-72099323D01*
X132936700Y-72099335D01*
X132936700Y-73703070D01*
X132936701Y-73703076D01*
X132943108Y-73762683D01*
X132993402Y-73897528D01*
X132993406Y-73897535D01*
X133079652Y-74012744D01*
X133079653Y-74012744D01*
X133079654Y-74012746D01*
X133113999Y-74038457D01*
X133158718Y-74071934D01*
X133200588Y-74127868D01*
X133205572Y-74197560D01*
X133172086Y-74258883D01*
X133158718Y-74270466D01*
X133079652Y-74329655D01*
X132993406Y-74444864D01*
X132993402Y-74444871D01*
X132943108Y-74579717D01*
X132939700Y-74611420D01*
X132936701Y-74639323D01*
X132936700Y-74639335D01*
X132936700Y-76243070D01*
X132936701Y-76243076D01*
X132943108Y-76302683D01*
X132993402Y-76437528D01*
X132993406Y-76437535D01*
X133079652Y-76552744D01*
X133079653Y-76552744D01*
X133079654Y-76552746D01*
X133111169Y-76576338D01*
X133158718Y-76611934D01*
X133200588Y-76667868D01*
X133205572Y-76737560D01*
X133172086Y-76798883D01*
X133158718Y-76810466D01*
X133079652Y-76869655D01*
X132993406Y-76984864D01*
X132993402Y-76984871D01*
X132943108Y-77119717D01*
X132936701Y-77179316D01*
X132936701Y-77179323D01*
X132936700Y-77179335D01*
X132936700Y-78783070D01*
X132936701Y-78783076D01*
X132943108Y-78842683D01*
X132993402Y-78977528D01*
X132993406Y-78977535D01*
X133079652Y-79092744D01*
X133079653Y-79092744D01*
X133079654Y-79092746D01*
X133102823Y-79110090D01*
X133158718Y-79151934D01*
X133200588Y-79207868D01*
X133205572Y-79277560D01*
X133172086Y-79338883D01*
X133158718Y-79350466D01*
X133079652Y-79409655D01*
X132993406Y-79524864D01*
X132993402Y-79524871D01*
X132943108Y-79659717D01*
X132936701Y-79719316D01*
X132936701Y-79719323D01*
X132936700Y-79719335D01*
X132936700Y-81323070D01*
X132936701Y-81323076D01*
X132943108Y-81382683D01*
X132993402Y-81517528D01*
X132993406Y-81517535D01*
X133079652Y-81632744D01*
X133079653Y-81632744D01*
X133079654Y-81632746D01*
X133113999Y-81658457D01*
X133158718Y-81691934D01*
X133200588Y-81747868D01*
X133205572Y-81817560D01*
X133172086Y-81878883D01*
X133158718Y-81890466D01*
X133079652Y-81949655D01*
X132993406Y-82064864D01*
X132993402Y-82064871D01*
X132943108Y-82199717D01*
X132936701Y-82259316D01*
X132936701Y-82259323D01*
X132936700Y-82259335D01*
X132936700Y-83863070D01*
X132936701Y-83863076D01*
X132943108Y-83922683D01*
X132993402Y-84057528D01*
X132993406Y-84057535D01*
X133079652Y-84172744D01*
X133079653Y-84172744D01*
X133079654Y-84172746D01*
X133092180Y-84182123D01*
X133158718Y-84231934D01*
X133200588Y-84287868D01*
X133205572Y-84357560D01*
X133172086Y-84418883D01*
X133158718Y-84430466D01*
X133079652Y-84489655D01*
X132993406Y-84604864D01*
X132993402Y-84604871D01*
X132943108Y-84739717D01*
X132938806Y-84779735D01*
X132936701Y-84799323D01*
X132936700Y-84799335D01*
X132936700Y-86403070D01*
X132936701Y-86403076D01*
X132943108Y-86462683D01*
X132993402Y-86597528D01*
X132993406Y-86597535D01*
X133079652Y-86712744D01*
X133079653Y-86712744D01*
X133079654Y-86712746D01*
X133113999Y-86738457D01*
X133158718Y-86771934D01*
X133200588Y-86827868D01*
X133205572Y-86897560D01*
X133172086Y-86958883D01*
X133158718Y-86970466D01*
X133079652Y-87029655D01*
X132993406Y-87144864D01*
X132993402Y-87144871D01*
X132943108Y-87279717D01*
X132936701Y-87339316D01*
X132936701Y-87339323D01*
X132936700Y-87339335D01*
X132936700Y-88943070D01*
X132936701Y-88943076D01*
X132943108Y-89002683D01*
X132993402Y-89137528D01*
X132993406Y-89137535D01*
X133079652Y-89252744D01*
X133079653Y-89252744D01*
X133079654Y-89252746D01*
X133113999Y-89278457D01*
X133158718Y-89311934D01*
X133200588Y-89367868D01*
X133205572Y-89437560D01*
X133172086Y-89498883D01*
X133158718Y-89510466D01*
X133079652Y-89569655D01*
X132993406Y-89684864D01*
X132993402Y-89684871D01*
X132943108Y-89819717D01*
X132940152Y-89847216D01*
X132936701Y-89879323D01*
X132936700Y-89879335D01*
X132936700Y-91483070D01*
X132936701Y-91483076D01*
X132943108Y-91542683D01*
X132993402Y-91677528D01*
X132993406Y-91677535D01*
X133079652Y-91792744D01*
X133079653Y-91792744D01*
X133079654Y-91792746D01*
X133113999Y-91818457D01*
X133158718Y-91851934D01*
X133200588Y-91907868D01*
X133205572Y-91977560D01*
X133172086Y-92038883D01*
X133158718Y-92050466D01*
X133079652Y-92109655D01*
X132993406Y-92224864D01*
X132993402Y-92224871D01*
X132943108Y-92359717D01*
X132936701Y-92419316D01*
X132936701Y-92419323D01*
X132936700Y-92419335D01*
X132936700Y-94023070D01*
X132936701Y-94023076D01*
X132943108Y-94082683D01*
X132993402Y-94217528D01*
X132993406Y-94217535D01*
X133079652Y-94332744D01*
X133079653Y-94332744D01*
X133079654Y-94332746D01*
X133119978Y-94362932D01*
X133159135Y-94392246D01*
X133201005Y-94448180D01*
X133205989Y-94517872D01*
X133172503Y-94579194D01*
X133159135Y-94590778D01*
X133080009Y-94650012D01*
X132993849Y-94765106D01*
X132993845Y-94765113D01*
X132943603Y-94899820D01*
X132943601Y-94899827D01*
X132937200Y-94959355D01*
X132937200Y-95511200D01*
X133758188Y-95511200D01*
X133725275Y-95568207D01*
X133691200Y-95695374D01*
X133691200Y-95827026D01*
X133725275Y-95954193D01*
X133758188Y-96011200D01*
X132937200Y-96011200D01*
X132937200Y-96563044D01*
X132943601Y-96622572D01*
X132943603Y-96622579D01*
X132993845Y-96757286D01*
X132993849Y-96757293D01*
X133080009Y-96872386D01*
X133159134Y-96931620D01*
X133201005Y-96987554D01*
X133205989Y-97057246D01*
X133172504Y-97118569D01*
X133159135Y-97130153D01*
X133079652Y-97189655D01*
X132993406Y-97304864D01*
X132993402Y-97304871D01*
X132943108Y-97439717D01*
X132939622Y-97472147D01*
X132936701Y-97499323D01*
X132936700Y-97499335D01*
X132936700Y-99103070D01*
X132936701Y-99103076D01*
X132943108Y-99162683D01*
X132993402Y-99297528D01*
X132993406Y-99297535D01*
X133079652Y-99412744D01*
X133079653Y-99412744D01*
X133079654Y-99412746D01*
X133113999Y-99438457D01*
X133158718Y-99471934D01*
X133200588Y-99527868D01*
X133205572Y-99597560D01*
X133172086Y-99658883D01*
X133158718Y-99670466D01*
X133079652Y-99729655D01*
X132993406Y-99844864D01*
X132993402Y-99844871D01*
X132943108Y-99979717D01*
X132936701Y-100039316D01*
X132936701Y-100039323D01*
X132936700Y-100039335D01*
X132936700Y-101643070D01*
X132936701Y-101643076D01*
X132943108Y-101702683D01*
X132993402Y-101837528D01*
X132993406Y-101837535D01*
X133079652Y-101952744D01*
X133079653Y-101952744D01*
X133079654Y-101952746D01*
X133113999Y-101978457D01*
X133158718Y-102011934D01*
X133200588Y-102067868D01*
X133205572Y-102137560D01*
X133172086Y-102198883D01*
X133158718Y-102210466D01*
X133079652Y-102269655D01*
X132993406Y-102384864D01*
X132993402Y-102384871D01*
X132943108Y-102519717D01*
X132936701Y-102579316D01*
X132936701Y-102579323D01*
X132936700Y-102579335D01*
X132936700Y-104183070D01*
X132936701Y-104183076D01*
X132943108Y-104242683D01*
X132993402Y-104377528D01*
X132993406Y-104377535D01*
X133079652Y-104492744D01*
X133079653Y-104492744D01*
X133079654Y-104492746D01*
X133113999Y-104518457D01*
X133158718Y-104551934D01*
X133200588Y-104607868D01*
X133205572Y-104677560D01*
X133172086Y-104738883D01*
X133158718Y-104750466D01*
X133079652Y-104809655D01*
X132993406Y-104924864D01*
X132993402Y-104924871D01*
X132943108Y-105059717D01*
X132936701Y-105119316D01*
X132936701Y-105119323D01*
X132936700Y-105119335D01*
X132936700Y-106723070D01*
X132936701Y-106723076D01*
X132943108Y-106782683D01*
X132993402Y-106917528D01*
X132993406Y-106917535D01*
X133079652Y-107032744D01*
X133079653Y-107032744D01*
X133079654Y-107032746D01*
X133119978Y-107062932D01*
X133159135Y-107092246D01*
X133201005Y-107148180D01*
X133205989Y-107217872D01*
X133172503Y-107279194D01*
X133159135Y-107290778D01*
X133080009Y-107350012D01*
X132993849Y-107465106D01*
X132993845Y-107465113D01*
X132943603Y-107599820D01*
X132943601Y-107599827D01*
X132937200Y-107659355D01*
X132937200Y-108211200D01*
X133758188Y-108211200D01*
X133725275Y-108268207D01*
X133691200Y-108395374D01*
X133691200Y-108527026D01*
X133725275Y-108654193D01*
X133758188Y-108711200D01*
X132937200Y-108711200D01*
X132937200Y-109263044D01*
X132943601Y-109322572D01*
X132943603Y-109322579D01*
X132993845Y-109457286D01*
X132993849Y-109457293D01*
X133080009Y-109572386D01*
X133159134Y-109631620D01*
X133201005Y-109687554D01*
X133205989Y-109757246D01*
X133172504Y-109818569D01*
X133159135Y-109830153D01*
X133079652Y-109889655D01*
X132993406Y-110004864D01*
X132993402Y-110004871D01*
X132943108Y-110139717D01*
X132936701Y-110199316D01*
X132936701Y-110199323D01*
X132936700Y-110199335D01*
X132936700Y-111803070D01*
X132936701Y-111803076D01*
X132943108Y-111862683D01*
X132993402Y-111997528D01*
X132993406Y-111997535D01*
X133079652Y-112112744D01*
X133079653Y-112112744D01*
X133079654Y-112112746D01*
X133113999Y-112138457D01*
X133158718Y-112171934D01*
X133200588Y-112227868D01*
X133205572Y-112297560D01*
X133172086Y-112358883D01*
X133158718Y-112370466D01*
X133079652Y-112429655D01*
X132993406Y-112544864D01*
X132993402Y-112544871D01*
X132943108Y-112679717D01*
X132936701Y-112739316D01*
X132936700Y-112739327D01*
X132936700Y-113409433D01*
X132936701Y-113970700D01*
X132917016Y-114037739D01*
X132864213Y-114083494D01*
X132812701Y-114094700D01*
X117865297Y-114094700D01*
X117798258Y-114075015D01*
X117777616Y-114058381D01*
X117702018Y-113982783D01*
X117668533Y-113921460D01*
X117665699Y-113895102D01*
X117665699Y-112739329D01*
X117665698Y-112739323D01*
X117665697Y-112739316D01*
X117659291Y-112679717D01*
X117608996Y-112544869D01*
X117608995Y-112544868D01*
X117608993Y-112544864D01*
X117522747Y-112429655D01*
X117522744Y-112429652D01*
X117443682Y-112370466D01*
X117401811Y-112314533D01*
X117396827Y-112244841D01*
X117430313Y-112183518D01*
X117443682Y-112171934D01*
X117488615Y-112138296D01*
X117522746Y-112112746D01*
X117608996Y-111997531D01*
X117659291Y-111862683D01*
X117665700Y-111803073D01*
X117665699Y-110199328D01*
X117659291Y-110139717D01*
X117608996Y-110004869D01*
X117608995Y-110004868D01*
X117608993Y-110004864D01*
X117522747Y-109889655D01*
X117443264Y-109830153D01*
X117401394Y-109774219D01*
X117396410Y-109704527D01*
X117429896Y-109643204D01*
X117443265Y-109631620D01*
X117522391Y-109572386D01*
X117608550Y-109457293D01*
X117608554Y-109457286D01*
X117658796Y-109322579D01*
X117658798Y-109322572D01*
X117665199Y-109263044D01*
X117665200Y-109263027D01*
X117665200Y-108711200D01*
X116844212Y-108711200D01*
X116877125Y-108654193D01*
X116911200Y-108527026D01*
X116911200Y-108395374D01*
X116877125Y-108268207D01*
X116844212Y-108211200D01*
X117665200Y-108211200D01*
X117665200Y-107659372D01*
X117665199Y-107659355D01*
X117658798Y-107599827D01*
X117658796Y-107599820D01*
X117608554Y-107465113D01*
X117608550Y-107465106D01*
X117522390Y-107350012D01*
X117522387Y-107350009D01*
X117443265Y-107290778D01*
X117401394Y-107234844D01*
X117396410Y-107165153D01*
X117429896Y-107103830D01*
X117443264Y-107092246D01*
X117522746Y-107032746D01*
X117608996Y-106917531D01*
X117659291Y-106782683D01*
X117665700Y-106723073D01*
X117665699Y-105119328D01*
X117659291Y-105059717D01*
X117647399Y-105027834D01*
X117608997Y-104924871D01*
X117608993Y-104924864D01*
X117522747Y-104809655D01*
X117522744Y-104809652D01*
X117443682Y-104750466D01*
X117401811Y-104694533D01*
X117396827Y-104624841D01*
X117430313Y-104563518D01*
X117443682Y-104551934D01*
X117488615Y-104518296D01*
X117522746Y-104492746D01*
X117608996Y-104377531D01*
X117659291Y-104242683D01*
X117665700Y-104183073D01*
X117665699Y-102579328D01*
X117659291Y-102519717D01*
X117647399Y-102487834D01*
X117608997Y-102384871D01*
X117608993Y-102384864D01*
X117522747Y-102269655D01*
X117522744Y-102269652D01*
X117443682Y-102210466D01*
X117401811Y-102154533D01*
X117396827Y-102084841D01*
X117430313Y-102023518D01*
X117443682Y-102011934D01*
X117488615Y-101978296D01*
X117522746Y-101952746D01*
X117608996Y-101837531D01*
X117659291Y-101702683D01*
X117665700Y-101643073D01*
X117665699Y-100039328D01*
X117659291Y-99979717D01*
X117647399Y-99947834D01*
X117608997Y-99844871D01*
X117608993Y-99844864D01*
X117522747Y-99729655D01*
X117522744Y-99729652D01*
X117443682Y-99670466D01*
X117401811Y-99614533D01*
X117396827Y-99544841D01*
X117430313Y-99483518D01*
X117443682Y-99471934D01*
X117488615Y-99438296D01*
X117522746Y-99412746D01*
X117608996Y-99297531D01*
X117659291Y-99162683D01*
X117665700Y-99103073D01*
X117665699Y-97499328D01*
X117659291Y-97439717D01*
X117647399Y-97407834D01*
X117608997Y-97304871D01*
X117608993Y-97304864D01*
X117522747Y-97189655D01*
X117443264Y-97130153D01*
X117401394Y-97074219D01*
X117396410Y-97004527D01*
X117429896Y-96943204D01*
X117443265Y-96931620D01*
X117522391Y-96872386D01*
X117608550Y-96757293D01*
X117608554Y-96757286D01*
X117658796Y-96622579D01*
X117658798Y-96622572D01*
X117665199Y-96563044D01*
X117665200Y-96563027D01*
X117665200Y-96011200D01*
X116844212Y-96011200D01*
X116877125Y-95954193D01*
X116911200Y-95827026D01*
X116911200Y-95695374D01*
X116877125Y-95568207D01*
X116844212Y-95511200D01*
X117665200Y-95511200D01*
X117665200Y-94959372D01*
X117665199Y-94959355D01*
X117658798Y-94899827D01*
X117658796Y-94899820D01*
X117608554Y-94765113D01*
X117608550Y-94765106D01*
X117522390Y-94650012D01*
X117522387Y-94650009D01*
X117443265Y-94590778D01*
X117401394Y-94534844D01*
X117396410Y-94465153D01*
X117429896Y-94403830D01*
X117443264Y-94392246D01*
X117522746Y-94332746D01*
X117608996Y-94217531D01*
X117659291Y-94082683D01*
X117665700Y-94023073D01*
X117665699Y-92419328D01*
X117659291Y-92359717D01*
X117657539Y-92355020D01*
X117608997Y-92224871D01*
X117608993Y-92224864D01*
X117522747Y-92109655D01*
X117522744Y-92109652D01*
X117443682Y-92050466D01*
X117401811Y-91994533D01*
X117396827Y-91924841D01*
X117430313Y-91863518D01*
X117443682Y-91851934D01*
X117488615Y-91818296D01*
X117522746Y-91792746D01*
X117608996Y-91677531D01*
X117659291Y-91542683D01*
X117665700Y-91483073D01*
X117665699Y-89879328D01*
X117659291Y-89819717D01*
X117630056Y-89741335D01*
X117608997Y-89684871D01*
X117608993Y-89684864D01*
X117522747Y-89569655D01*
X117522744Y-89569652D01*
X117443682Y-89510466D01*
X117401811Y-89454533D01*
X117396827Y-89384841D01*
X117430313Y-89323518D01*
X117443682Y-89311934D01*
X117488615Y-89278296D01*
X117522746Y-89252746D01*
X117608996Y-89137531D01*
X117659291Y-89002683D01*
X117665700Y-88943073D01*
X117665699Y-87339328D01*
X117659291Y-87279717D01*
X117630056Y-87201335D01*
X117608997Y-87144871D01*
X117608993Y-87144864D01*
X117522747Y-87029655D01*
X117522744Y-87029652D01*
X117443682Y-86970466D01*
X117401811Y-86914533D01*
X117396827Y-86844841D01*
X117430313Y-86783518D01*
X117443682Y-86771934D01*
X117488615Y-86738296D01*
X117522746Y-86712746D01*
X117608996Y-86597531D01*
X117659291Y-86462683D01*
X117665700Y-86403073D01*
X117665699Y-84799328D01*
X117659291Y-84739717D01*
X117643633Y-84697737D01*
X117608997Y-84604871D01*
X117608993Y-84604864D01*
X117522747Y-84489655D01*
X117443264Y-84430153D01*
X117401394Y-84374219D01*
X117396410Y-84304527D01*
X117429896Y-84243204D01*
X117443265Y-84231620D01*
X117522391Y-84172386D01*
X117608550Y-84057293D01*
X117608554Y-84057286D01*
X117658796Y-83922579D01*
X117658798Y-83922572D01*
X117665199Y-83863044D01*
X117665200Y-83863027D01*
X117665200Y-83311200D01*
X116844212Y-83311200D01*
X116877125Y-83254193D01*
X116911200Y-83127026D01*
X116911200Y-82995374D01*
X116877125Y-82868207D01*
X116844212Y-82811200D01*
X117665200Y-82811200D01*
X117665200Y-82259372D01*
X117665199Y-82259355D01*
X117658798Y-82199827D01*
X117658796Y-82199820D01*
X117608554Y-82065113D01*
X117608550Y-82065106D01*
X117522390Y-81950012D01*
X117522387Y-81950009D01*
X117443265Y-81890778D01*
X117401394Y-81834844D01*
X117396410Y-81765153D01*
X117429896Y-81703830D01*
X117443264Y-81692246D01*
X117522746Y-81632746D01*
X117608996Y-81517531D01*
X117659291Y-81382683D01*
X117665700Y-81323073D01*
X117665699Y-79719328D01*
X117659291Y-79659717D01*
X117646576Y-79625627D01*
X117608997Y-79524871D01*
X117608993Y-79524864D01*
X117522747Y-79409655D01*
X117522744Y-79409652D01*
X117443682Y-79350466D01*
X117401811Y-79294533D01*
X117396827Y-79224841D01*
X117430313Y-79163518D01*
X117443682Y-79151934D01*
X117499577Y-79110090D01*
X117522746Y-79092746D01*
X117608996Y-78977531D01*
X117659291Y-78842683D01*
X117665700Y-78783073D01*
X117665699Y-77179328D01*
X117659291Y-77119717D01*
X117656196Y-77111420D01*
X117608997Y-76984871D01*
X117608993Y-76984864D01*
X117522747Y-76869655D01*
X117522744Y-76869652D01*
X117443682Y-76810466D01*
X117401811Y-76754533D01*
X117396827Y-76684841D01*
X117430313Y-76623518D01*
X117443682Y-76611934D01*
X117491231Y-76576338D01*
X117522746Y-76552746D01*
X117608996Y-76437531D01*
X117659291Y-76302683D01*
X117665700Y-76243073D01*
X117665699Y-74639328D01*
X117659291Y-74579717D01*
X117648067Y-74549625D01*
X117608997Y-74444871D01*
X117608993Y-74444864D01*
X117522747Y-74329655D01*
X117522744Y-74329652D01*
X117443682Y-74270466D01*
X117401811Y-74214533D01*
X117396827Y-74144841D01*
X117430313Y-74083518D01*
X117443682Y-74071934D01*
X117488615Y-74038296D01*
X117522746Y-74012746D01*
X117608996Y-73897531D01*
X117659291Y-73762683D01*
X117665700Y-73703073D01*
X117665699Y-72099328D01*
X117659291Y-72039717D01*
X117632599Y-71968153D01*
X117608997Y-71904871D01*
X117608993Y-71904864D01*
X117522747Y-71789655D01*
X117443264Y-71730153D01*
X117401394Y-71674219D01*
X117396410Y-71604527D01*
X117429896Y-71543204D01*
X117443265Y-71531620D01*
X117522391Y-71472386D01*
X117608550Y-71357293D01*
X117608554Y-71357286D01*
X117658796Y-71222579D01*
X117658798Y-71222572D01*
X117665199Y-71163044D01*
X117665200Y-71163027D01*
X117665200Y-70611200D01*
X116844212Y-70611200D01*
X116877125Y-70554193D01*
X116911200Y-70427026D01*
X116911200Y-70295374D01*
X116877125Y-70168207D01*
X116844212Y-70111200D01*
X117665200Y-70111200D01*
X117665200Y-69559372D01*
X117665199Y-69559355D01*
X117658798Y-69499827D01*
X117658796Y-69499820D01*
X117608554Y-69365113D01*
X117608550Y-69365106D01*
X117522390Y-69250012D01*
X117522387Y-69250009D01*
X117443265Y-69190778D01*
X117401394Y-69134844D01*
X117396410Y-69065153D01*
X117429896Y-69003830D01*
X117443264Y-68992246D01*
X117522746Y-68932746D01*
X117608996Y-68817531D01*
X117659291Y-68682683D01*
X117665700Y-68623073D01*
X117665699Y-67019328D01*
X117659291Y-66959717D01*
X117616003Y-66843657D01*
X117608997Y-66824871D01*
X117608993Y-66824864D01*
X117522747Y-66709655D01*
X117522744Y-66709652D01*
X117443682Y-66650466D01*
X117401811Y-66594533D01*
X117396827Y-66524841D01*
X117430313Y-66463518D01*
X117443682Y-66451934D01*
X117497268Y-66411819D01*
X117522746Y-66392746D01*
X117608996Y-66277531D01*
X117659291Y-66142683D01*
X117665700Y-66083073D01*
X117665699Y-64479328D01*
X117659291Y-64419717D01*
X117633288Y-64350000D01*
X117608997Y-64284871D01*
X117608993Y-64284864D01*
X117522747Y-64169655D01*
X117522744Y-64169652D01*
X117407535Y-64083406D01*
X117407528Y-64083402D01*
X117272682Y-64033108D01*
X117272683Y-64033108D01*
X117213083Y-64026701D01*
X117213081Y-64026700D01*
X117213073Y-64026700D01*
X117213064Y-64026700D01*
X115609329Y-64026700D01*
X115609323Y-64026701D01*
X115549716Y-64033108D01*
X115414871Y-64083402D01*
X115414864Y-64083406D01*
X115299655Y-64169652D01*
X115299652Y-64169655D01*
X115213406Y-64284864D01*
X115213402Y-64284871D01*
X115163108Y-64419717D01*
X115160034Y-64448313D01*
X115156701Y-64479323D01*
X115156700Y-64479335D01*
X115156700Y-66083070D01*
X115156701Y-66083076D01*
X115163108Y-66142683D01*
X115213402Y-66277528D01*
X115213406Y-66277535D01*
X115299652Y-66392744D01*
X115299653Y-66392744D01*
X115299654Y-66392746D01*
X115325132Y-66411819D01*
X115378718Y-66451934D01*
X115420588Y-66507868D01*
X115425572Y-66577560D01*
X115392086Y-66638883D01*
X115378718Y-66650466D01*
X115299652Y-66709655D01*
X115213406Y-66824864D01*
X115213402Y-66824871D01*
X115163108Y-66959717D01*
X115162249Y-66967712D01*
X115156701Y-67019323D01*
X115156700Y-67019335D01*
X115156700Y-68623070D01*
X115156701Y-68623076D01*
X115163108Y-68682683D01*
X115213402Y-68817528D01*
X115213406Y-68817535D01*
X115299652Y-68932744D01*
X115299653Y-68932744D01*
X115299654Y-68932746D01*
X115339978Y-68962932D01*
X115379135Y-68992246D01*
X115421005Y-69048180D01*
X115425989Y-69117872D01*
X115392503Y-69179194D01*
X115379135Y-69190778D01*
X115300009Y-69250012D01*
X115213849Y-69365106D01*
X115213845Y-69365113D01*
X115163603Y-69499820D01*
X115163601Y-69499827D01*
X115157200Y-69559355D01*
X115157200Y-70111200D01*
X115978188Y-70111200D01*
X115945275Y-70168207D01*
X115911200Y-70295374D01*
X115911200Y-70427026D01*
X115945275Y-70554193D01*
X115978188Y-70611200D01*
X115157199Y-70611200D01*
X115151497Y-70616902D01*
X115090174Y-70650387D01*
X115020482Y-70645401D01*
X114976138Y-70616902D01*
X109772589Y-65413354D01*
X109772588Y-65413352D01*
X109653717Y-65294481D01*
X109653716Y-65294480D01*
X109549960Y-65234577D01*
X109549959Y-65234576D01*
X109516783Y-65215422D01*
X109460881Y-65200443D01*
X109364057Y-65174499D01*
X109205943Y-65174499D01*
X109198347Y-65174499D01*
X109198331Y-65174500D01*
X106917535Y-65174500D01*
X106850496Y-65154815D01*
X106804741Y-65102011D01*
X106794177Y-65063102D01*
X106793663Y-65058071D01*
X106789999Y-65022203D01*
X106734814Y-64855666D01*
X106642712Y-64706344D01*
X106518656Y-64582288D01*
X106369334Y-64490186D01*
X106202797Y-64435001D01*
X106202795Y-64435000D01*
X106100010Y-64424500D01*
X104549998Y-64424500D01*
X104549981Y-64424501D01*
X104447203Y-64435000D01*
X104447200Y-64435001D01*
X104280668Y-64490185D01*
X104280663Y-64490187D01*
X104131342Y-64582289D01*
X104007289Y-64706342D01*
X103915187Y-64855663D01*
X103915186Y-64855666D01*
X103860001Y-65022203D01*
X103860001Y-65022204D01*
X103860000Y-65022204D01*
X103849500Y-65124983D01*
X90525500Y-65124983D01*
X90525500Y-61256902D01*
X92174500Y-61256902D01*
X92174500Y-61493097D01*
X92211446Y-61726368D01*
X92284433Y-61950996D01*
X92362822Y-62104842D01*
X92391657Y-62161433D01*
X92530483Y-62352510D01*
X92697490Y-62519517D01*
X92888567Y-62658343D01*
X92967988Y-62698810D01*
X93099003Y-62765566D01*
X93099005Y-62765566D01*
X93099008Y-62765568D01*
X93175944Y-62790566D01*
X93323631Y-62838553D01*
X93556903Y-62875500D01*
X93556908Y-62875500D01*
X93793097Y-62875500D01*
X94026368Y-62838553D01*
X94250992Y-62765568D01*
X94461433Y-62658343D01*
X94652510Y-62519517D01*
X94819517Y-62352510D01*
X94958343Y-62161433D01*
X95065568Y-61950992D01*
X95138553Y-61726368D01*
X95146481Y-61676311D01*
X95175500Y-61493097D01*
X95175500Y-61256902D01*
X95138553Y-61023631D01*
X95065566Y-60799003D01*
X95009002Y-60687991D01*
X94958343Y-60588567D01*
X94819517Y-60397490D01*
X94652510Y-60230483D01*
X94461433Y-60091657D01*
X94446800Y-60084201D01*
X94250996Y-59984433D01*
X94026368Y-59911446D01*
X93793097Y-59874500D01*
X93793092Y-59874500D01*
X93556908Y-59874500D01*
X93556903Y-59874500D01*
X93323631Y-59911446D01*
X93099003Y-59984433D01*
X92888566Y-60091657D01*
X92793469Y-60160750D01*
X92697490Y-60230483D01*
X92697488Y-60230485D01*
X92697487Y-60230485D01*
X92530485Y-60397487D01*
X92530485Y-60397488D01*
X92530483Y-60397490D01*
X92470862Y-60479550D01*
X92391657Y-60588566D01*
X92284433Y-60799003D01*
X92211446Y-61023631D01*
X92174500Y-61256902D01*
X90525500Y-61256902D01*
X90525500Y-60678750D01*
X90525726Y-60671263D01*
X90531779Y-60571198D01*
X90543271Y-60381201D01*
X90545076Y-60366340D01*
X90565392Y-60255483D01*
X90596780Y-60084197D01*
X90600364Y-60069663D01*
X90685696Y-59795822D01*
X90690998Y-59781841D01*
X90808731Y-59520249D01*
X90815676Y-59507016D01*
X90964080Y-59261526D01*
X90972567Y-59249230D01*
X91149480Y-59023417D01*
X91159395Y-59012226D01*
X91362226Y-58809395D01*
X91373417Y-58799480D01*
X91599230Y-58622567D01*
X91611526Y-58614080D01*
X91857016Y-58465676D01*
X91870249Y-58458731D01*
X92131841Y-58340998D01*
X92145822Y-58335696D01*
X92419668Y-58250362D01*
X92434197Y-58246780D01*
X92716344Y-58195075D01*
X92731201Y-58193271D01*
X93021264Y-58175726D01*
X93028751Y-58175500D01*
X93090892Y-58175500D01*
X109148456Y-58175500D01*
X109155197Y-58175682D01*
G37*
%TD.AperFunction*%
%TD*%
M02*
